<svg width="22" height="21" viewBox="0 0 22 21" fill="none" xmlns="http://www.w3.org/2000/svg">
<path d="M19.963 4.8305H16.279C16.1715 3.51458 15.5687 2.28702 14.5906 1.39198C13.6124 0.49694 12.3306 0 11 0C9.66941 0 8.38757 0.49694 7.40943 1.39198C6.43129 2.28702 5.82852 3.51458 5.72102 4.8305H2.03704C1.49678 4.8305 0.978653 5.04345 0.596634 5.4225C0.214616 5.80154 0 6.31564 0 6.85169V18.9788C0 19.5149 0.214616 20.029 0.596634 20.408C0.978653 20.7871 1.49678 21 2.03704 21H19.963C20.5032 21 21.0213 20.7871 21.4034 20.408C21.7854 20.029 22 19.5149 22 18.9788V6.85169C22 6.31564 21.7854 5.80154 21.4034 5.4225C21.0213 5.04345 20.5032 4.8305 19.963 4.8305ZM11 2.40508C11.6857 2.40515 12.3485 2.65037 12.8668 3.09581C13.3851 3.54125 13.7244 4.1571 13.8223 4.8305H8.17769C8.27565 4.1571 8.61487 3.54125 9.1332 3.09581C9.65154 2.65037 10.3143 2.40515 11 2.40508ZM19.5556 18.5746H2.44444V7.25593H5.7037V8.46864C5.7037 8.79027 5.83247 9.09873 6.06168 9.32616C6.2909 9.55358 6.60177 9.68135 6.92593 9.68135C7.25008 9.68135 7.56096 9.55358 7.79017 9.32616C8.01938 9.09873 8.14815 8.79027 8.14815 8.46864V7.25593H13.8519V8.46864C13.8519 8.79027 13.9806 9.09873 14.2098 9.32616C14.439 9.55358 14.7499 9.68135 15.0741 9.68135C15.3982 9.68135 15.7091 9.55358 15.9383 9.32616C16.1675 9.09873 16.2963 8.79027 16.2963 8.46864V7.25593H19.5556V18.5746Z" fill="#111111"/>
</svg>
