<svg width="18" height="18" viewBox="0 0 18 18" fill="none" xmlns="http://www.w3.org/2000/svg">
<path d="M0.765217 0C0.562269 0 0.367633 0.0790178 0.224127 0.21967C0.080621 0.360322 0 0.551088 0 0.75C0 0.948912 0.080621 1.13968 0.224127 1.28033C0.367633 1.42098 0.562269 1.5 0.765217 1.5H1.1417C1.30787 1.50028 1.46942 1.55357 1.60195 1.6518C1.73448 1.75003 1.83078 1.88788 1.87631 2.0445L4.30358 10.3695C4.44087 10.8393 4.73048 11.2525 5.12864 11.5467C5.5268 11.8409 6.01186 12 6.51047 12H13.503C13.9619 12.0001 14.4103 11.8654 14.7903 11.6132C15.1703 11.3611 15.4645 11.0031 15.6349 10.5855L17.8908 5.0565C17.9835 4.82899 18.018 4.58268 17.9912 4.3391C17.9644 4.09551 17.8771 3.86208 17.737 3.65919C17.5968 3.4563 17.4082 3.29014 17.1874 3.17523C16.9666 3.06032 16.7205 3.00016 16.4705 3H3.7465L3.34706 1.632C3.21013 1.16216 2.92086 0.748779 2.52298 0.454345C2.12511 0.15991 1.64025 0.000426552 1.1417 0H0.765217ZM5.77586 9.9555L4.18421 4.5H16.469L14.2131 10.029C14.1563 10.168 14.0583 10.2872 13.9317 10.3711C13.8051 10.4551 13.6558 10.5 13.503 10.5H6.51047C6.34431 10.4997 6.18275 10.4464 6.05022 10.3482C5.91769 10.25 5.82139 10.1121 5.77586 9.9555ZM6.88695 18C7.18842 18 7.48694 17.9418 7.76546 17.8287C8.04398 17.7157 8.29705 17.5499 8.51023 17.341C8.7234 17.1321 8.89249 16.884 9.00786 16.611C9.12323 16.3381 9.18261 16.0455 9.18261 15.75C9.18261 15.4545 9.12323 15.1619 9.00786 14.889C8.89249 14.616 8.7234 14.3679 8.51023 14.159C8.29705 13.9501 8.04398 13.7843 7.76546 13.6713C7.48694 13.5582 7.18842 13.5 6.88695 13.5C6.27811 13.5 5.6942 13.7371 5.26368 14.159C4.83317 14.581 4.5913 15.1533 4.5913 15.75C4.5913 16.3467 4.83317 16.919 5.26368 17.341C5.6942 17.7629 6.27811 18 6.88695 18ZM6.88695 16.5C6.68401 16.5 6.48937 16.421 6.34586 16.2803C6.20236 16.1397 6.12174 15.9489 6.12174 15.75C6.12174 15.5511 6.20236 15.3603 6.34586 15.2197C6.48937 15.079 6.68401 15 6.88695 15C7.0899 15 7.28454 15.079 7.42804 15.2197C7.57155 15.3603 7.65217 15.5511 7.65217 15.75C7.65217 15.9489 7.57155 16.1397 7.42804 16.2803C7.28454 16.421 7.0899 16.5 6.88695 16.5ZM13.0087 18C13.3102 18 13.6087 17.9418 13.8872 17.8287C14.1657 17.7157 14.4188 17.5499 14.632 17.341C14.8451 17.1321 15.0142 16.884 15.1296 16.611C15.245 16.3381 15.3043 16.0455 15.3043 15.75C15.3043 15.4545 15.245 15.1619 15.1296 14.889C15.0142 14.616 14.8451 14.3679 14.632 14.159C14.4188 13.9501 14.1657 13.7843 13.8872 13.6713C13.6087 13.5582 13.3102 13.5 13.0087 13.5C12.3998 13.5 11.8159 13.7371 11.3854 14.159C10.9549 14.581 10.713 15.1533 10.713 15.75C10.713 16.3467 10.9549 16.919 11.3854 17.341C11.8159 17.7629 12.3998 18 13.0087 18ZM13.0087 16.5C12.8057 16.5 12.6111 16.421 12.4676 16.2803C12.3241 16.1397 12.2435 15.9489 12.2435 15.75C12.2435 15.5511 12.3241 15.3603 12.4676 15.2197C12.6111 15.079 12.8057 15 13.0087 15C13.2116 15 13.4063 15.079 13.5498 15.2197C13.6933 15.3603 13.7739 15.5511 13.7739 15.75C13.7739 15.9489 13.6933 16.1397 13.5498 16.2803C13.4063 16.421 13.2116 16.5 13.0087 16.5Z" fill="#EF233C"/>
</svg>
