<svg width="19" height="21" viewBox="0 0 19 21" fill="none" xmlns="http://www.w3.org/2000/svg">
<path d="M17.682 7.08081L12.2146 6.15649L9.78095 0.461274C9.71448 0.305343 9.60487 0.178992 9.46932 0.102041C9.12936 -0.0915756 8.71546 0.0682605 8.54452 0.458595L6.08849 6.14322L0.617548 7.04383C0.466715 7.06823 0.328695 7.14954 0.222903 7.27295C0.0950048 7.42323 0.0242921 7.62564 0.0263032 7.83569C0.0283143 8.04573 0.102884 8.24624 0.233628 8.39316L4.18194 12.8305L3.2348 19.0822C3.21259 19.2276 3.22632 19.3773 3.27443 19.5142C3.32254 19.6511 3.40311 19.7697 3.50699 19.8567C3.61088 19.9437 3.73393 19.9955 3.86219 20.0063C3.99045 20.0171 4.11879 19.9864 4.23265 19.9177L9.13031 16.9758L14.0164 19.9389C14.1498 20.0208 14.3048 20.0483 14.4535 20.019C14.8285 19.9456 15.0813 19.5382 15.0175 19.1077L14.0949 12.852L18.0606 8.43178C18.1686 8.31085 18.24 8.15274 18.2618 7.9797C18.3208 7.54708 18.0588 7.14592 17.682 7.08081Z" fill="#FFC700"/>
</svg>
