<svg width="320" height="280" viewBox="0 0 320 280" fill="none" xmlns="http://www.w3.org/2000/svg">
<path d="M262.622 80.1847C260.109 78.8087 258.965 79.9528 258.053 78.8087C257.141 77.6645 260.566 74.696 253.709 71.7274C253.709 71.7274 253.252 65.3264 243.883 65.1022C234.513 64.8781 237.026 71.4955 234.513 73.0957C232.001 74.696 231.313 72.1835 228.8 73.7837C226.288 75.384 227.432 78.5845 225.376 79.0406C223.319 79.4967 220.575 76.9842 218.063 78.5845C215.55 80.1847 215.55 81.553 214.406 81.553C213.262 81.553 210.974 80.6408 209.605 81.553C208.237 82.4652 206.637 83.6094 206.637 83.6094H264.454C264.454 83.6094 265.134 81.5144 262.622 80.1847Z" fill="white"/>
<path opacity="0.5" d="M262.622 80.1847C260.109 78.8087 258.965 79.9528 258.053 78.8087C257.141 77.6645 260.566 74.696 253.709 71.7274C253.709 71.7274 253.252 65.3264 243.883 65.1022C234.513 64.8781 237.026 71.4955 234.513 73.0957C232.001 74.696 231.313 72.1835 228.8 73.7837C226.288 75.384 227.432 78.5845 225.376 79.0406C223.319 79.4967 220.575 76.9842 218.063 78.5845C215.55 80.1847 215.55 81.553 214.406 81.553C213.262 81.553 210.974 80.6408 209.605 81.553C208.237 82.4652 206.637 83.6094 206.637 83.6094H264.454C264.454 83.6094 265.134 81.5144 262.622 80.1847Z" fill="white"/>
<path d="M164.704 231.705C162.184 230.329 161.047 231.473 160.127 230.329C159.207 229.185 162.64 226.216 155.791 223.248C155.791 223.248 155.334 216.847 145.965 216.623C136.595 216.399 139.108 223.016 136.595 224.616C134.083 226.216 133.395 223.704 130.882 225.304C128.37 226.905 129.506 230.105 127.45 230.561C125.394 231.017 122.649 228.505 120.137 230.105C117.624 231.705 117.624 233.074 116.48 233.074C115.336 233.074 113.056 232.161 111.68 233.074C110.303 233.986 108.711 235.13 108.711 235.13H166.528C166.528 235.13 167.216 233.035 164.704 231.705Z" fill="white"/>
<path opacity="0.5" d="M164.704 231.705C162.184 230.329 161.047 231.473 160.127 230.329C159.207 229.185 162.64 226.216 155.791 223.248C155.791 223.248 155.334 216.847 145.965 216.623C136.595 216.399 139.108 223.016 136.595 224.616C134.083 226.216 133.395 223.704 130.882 225.304C128.37 226.905 129.506 230.105 127.45 230.561C125.394 231.017 122.649 228.505 120.137 230.105C117.624 231.705 117.624 233.074 116.48 233.074C115.336 233.074 113.056 232.161 111.68 233.074C110.303 233.986 108.711 235.13 108.711 235.13H166.528C166.528 235.13 167.216 233.035 164.704 231.705Z" fill="white"/>
<path d="M117.988 206.194C114.053 204.052 112.267 205.838 110.837 204.052C109.407 202.266 114.764 197.613 104.042 192.967C104.042 192.967 103.331 182.955 88.6659 182.6C74.0008 182.244 77.9435 192.611 73.9776 195.116C70.0118 197.62 68.9759 193.685 65.041 196.182C61.1061 198.679 62.8919 203.697 59.676 204.408C56.46 205.119 52.1695 201.192 48.2346 203.697C44.2997 206.201 44.2997 208.335 42.514 208.335C40.7282 208.335 37.1489 206.905 35.0075 208.335C32.8661 209.765 30.3691 211.551 30.3691 211.551H120.818C120.818 211.551 121.915 208.366 117.988 206.194Z" fill="white"/>
<path opacity="0.5" d="M117.988 206.194C114.053 204.052 112.267 205.838 110.837 204.052C109.407 202.266 114.764 197.613 104.042 192.967C104.042 192.967 103.331 182.955 88.6659 182.6C74.0008 182.244 77.9435 192.611 73.9776 195.116C70.0118 197.62 68.9759 193.685 65.041 196.182C61.1061 198.679 62.8919 203.697 59.676 204.408C56.46 205.119 52.1695 201.192 48.2346 203.697C44.2997 206.201 44.2997 208.335 42.514 208.335C40.7282 208.335 37.1489 206.905 35.0075 208.335C32.8661 209.765 30.3691 211.551 30.3691 211.551H120.818C120.818 211.551 121.915 208.366 117.988 206.194Z" fill="white"/>
<path d="M159.268 1C132.28 1 110.333 20.6899 109.568 45.2347L88.3006 56.8848L77.1221 46.2629L60.9806 70.769L49.7402 70.2897L55.5073 92.6544L56.0098 74.2478L63.9646 75.7398L77.1067 61.9097L90.5193 72.5316L111.539 59.3895C117.6 78.2831 136.656 92.09 159.252 92.09C186.719 92.09 208.991 71.6966 208.991 46.5412C208.991 21.3857 186.735 1 159.268 1Z" fill="#263238" stroke="#263238" stroke-linecap="round" stroke-linejoin="round"/>
<path d="M203.324 16.9326H113.603C111.114 16.9326 109.096 18.9505 109.096 21.4396V72.4927C109.096 74.9818 111.114 76.9996 113.603 76.9996H203.324C205.814 76.9996 207.831 74.9818 207.831 72.4927V21.4396C207.831 18.9505 205.814 16.9326 203.324 16.9326Z" fill="#EF233C" stroke="#263238" stroke-width="2" stroke-linecap="round" stroke-linejoin="round"/>
<path d="M162.406 45.4663L207.831 22.4831V21.4318C207.831 20.2364 207.357 19.0901 206.511 18.2449C205.666 17.3996 204.52 16.9248 203.324 16.9248H113.603C112.407 16.9248 111.261 17.3996 110.416 18.2449C109.571 19.0901 109.096 20.2364 109.096 21.4318V22.6764L153.694 45.5668C155.054 46.2281 156.549 46.5634 158.062 46.5459C159.574 46.5285 161.062 46.1588 162.406 45.4663Z" fill="white" stroke="#263238" stroke-width="2" stroke-linecap="round" stroke-linejoin="round"/>
<path d="M206.089 39.3083C211.613 38.4076 215.361 33.1991 214.461 27.6747C213.56 22.1503 208.351 18.402 202.827 19.3027C197.303 20.2034 193.554 25.412 194.455 30.9364C195.356 36.4608 200.564 40.209 206.089 39.3083Z" fill="#263238"/>
<path d="M203.852 35.1384C203.593 34.8214 203.463 34.4183 203.488 34.0097V24.9881L201.71 26.0704C201.571 26.1635 201.406 26.212 201.239 26.2095C201.121 26.2122 201.004 26.1879 200.896 26.1383C200.789 26.0887 200.695 26.0152 200.62 25.9235C200.535 25.8367 200.468 25.734 200.423 25.6212C200.378 25.5084 200.356 25.3878 200.358 25.2664C200.36 25.1063 200.406 24.95 200.491 24.8139C200.575 24.6778 200.695 24.5671 200.837 24.4933L204.076 22.5838C204.308 22.4367 204.575 22.354 204.849 22.3442C205.017 22.3395 205.184 22.3724 205.338 22.4407C205.492 22.5089 205.629 22.6106 205.738 22.7385C205.981 23.0567 206.102 23.4518 206.078 23.8517V34.0716C206.098 34.4628 205.968 34.8469 205.715 35.1461C205.599 35.2767 205.456 35.3803 205.295 35.4497C205.135 35.5192 204.962 35.5528 204.787 35.5481C204.61 35.5569 204.434 35.5245 204.271 35.4534C204.109 35.3823 203.965 35.2745 203.852 35.1384Z" fill="#EF233C"/>
<path d="M109.777 163.49C109.777 163.49 140.313 209.488 147.657 210.261C155.002 211.034 178.193 187.069 178.193 187.069L171.622 185.523L149.737 200.319C149.737 200.319 131.037 177.359 114.601 159.811L109.777 163.49Z" fill="white" stroke="#263238" stroke-width="2" stroke-linecap="round" stroke-linejoin="round"/>
<path d="M115.211 149.761C115.211 149.761 121.334 150.024 121.071 152.691C120.808 155.358 121.071 162.547 119.471 163.885C117.87 165.222 115.474 165.748 114.941 163.112C114.407 160.475 115.211 149.761 115.211 149.761Z" fill="white" stroke="#263238" stroke-width="2" stroke-linecap="round" stroke-linejoin="round"/>
<path d="M113.611 162.307C113.611 162.307 113.341 170.301 112.838 171.097C112.336 171.893 108.571 174.831 106.174 174.297C103.778 173.764 104.574 171.367 104.574 170.038V148.987H113.634L113.611 162.307Z" fill="#263238" stroke="#263238" stroke-linecap="round" stroke-linejoin="round"/>
<path d="M101.088 165.222C101.088 165.222 99.2252 168.686 100.818 171.353C102.41 174.02 106.948 174.02 108.819 172.682C110.69 171.345 109.345 169.49 107.752 168.956C106.16 168.423 104.018 167.085 104.018 165.493C104.018 163.9 101.885 164.171 101.088 165.222Z" fill="white" stroke="#263238" stroke-width="2" stroke-linecap="round" stroke-linejoin="round"/>
<path d="M99.6426 160.166C99.6426 161.99 99.9518 165.052 101.39 166.35C103.013 167.781 110.481 167.897 113.759 165.709C117.037 163.521 114.856 159.756 112.375 159.996C110.319 160.197 108.115 159.694 106.028 159.431C104.853 159.285 100.709 158.365 99.8977 159.223C99.7133 159.492 99.6335 159.819 99.6735 160.143L99.6426 160.166Z" fill="white" stroke="#263238" stroke-width="2" stroke-linecap="round" stroke-linejoin="round"/>
<path d="M98.7221 153.564C98.467 155.404 98.3511 158.511 99.8585 159.856C101.567 161.403 110.419 161.835 114.601 159.795C118.783 157.754 116.796 153.834 113.828 153.966C111.362 154.066 108.818 153.448 106.391 153.084C105.023 152.883 100.206 151.762 99.1473 152.59C98.8981 152.833 98.7515 153.162 98.7376 153.51L98.7221 153.564Z" fill="white" stroke="#263238" stroke-width="2" stroke-linecap="round" stroke-linejoin="round"/>
<path d="M99.2407 144.458C98.5836 146.197 97.7796 149.204 98.9547 150.851C100.292 152.714 108.819 155.11 113.341 154.044C117.864 152.977 116.812 148.717 113.875 148.184C111.447 147.743 109.105 146.576 106.817 145.687C105.526 145.184 101.112 143.035 99.8592 143.6C99.571 143.774 99.3586 144.049 99.2639 144.373L99.2407 144.458Z" fill="white" stroke="#263238" stroke-width="2" stroke-linecap="round" stroke-linejoin="round"/>
<path d="M170.129 278.058L194.48 187.022H202.721L176.87 278.808" fill="#263238"/>
<path d="M170.129 278.058L194.48 187.022H202.721L176.87 278.808" stroke="#263238" stroke-linecap="round" stroke-linejoin="round"/>
<path d="M186.256 269.354L209.842 186.651L202.722 187.022L176.871 278.808" fill="white"/>
<path d="M186.256 269.354L209.842 186.651L202.722 187.022L176.871 278.808" stroke="#263238" stroke-width="2" stroke-linecap="round" stroke-linejoin="round"/>
<path d="M183.992 277.308L185.082 273.489" stroke="#263238" stroke-width="2" stroke-linecap="round" stroke-linejoin="round"/>
<path d="M153.842 208.405C153.842 208.405 156.509 212.402 159.709 212.935C162.91 213.469 196.747 186.821 196.747 186.821L182.886 188.414L153.842 208.405Z" fill="white" stroke="#263238" stroke-width="2" stroke-linecap="round" stroke-linejoin="round"/>
<path d="M132.357 165.67C132.357 165.67 138.727 112.846 152.967 94.4861C168.529 74.3865 199.799 90.7445 193.429 122.958C188.544 147.696 174.319 191.892 174.319 191.892L132.357 165.67Z" fill="#EF233C" stroke="#263238" stroke-width="2" stroke-linecap="round" stroke-linejoin="round"/>
<path d="M178.07 87.7451L261.313 114.029C264.038 114.876 266.531 116.342 268.595 118.312C273.845 123.368 281.676 134.245 275.097 150.286C269.77 162.907 262.572 174.652 253.745 185.128L174.328 191.892L190.439 129.699C190.439 129.699 197.922 102.356 178.07 87.7451Z" fill="white"/>
<mask id="mask0_1548_8346" style="mask-type:luminance" maskUnits="userSpaceOnUse" x="174" y="87" width="104" height="105">
<path d="M178.07 87.7451L261.313 114.029C264.038 114.876 266.531 116.342 268.595 118.312C273.845 123.368 281.676 134.245 275.097 150.286C269.77 162.907 262.572 174.652 253.745 185.128L174.328 191.892L190.439 129.699C190.439 129.699 197.922 102.356 178.07 87.7451Z" fill="white"/>
</mask>
<g mask="url(#mask0_1548_8346)">
<path d="M217.102 160.916C197.079 170.301 186.372 168.647 181.046 165.941L174.328 191.893L253.753 185.151C262.58 174.676 269.778 162.93 275.105 150.309C275.97 148.22 276.627 146.05 277.068 143.831C257.765 139.286 242.458 149.034 217.102 160.916Z" fill="#EF233C"/>
<path opacity="0.5" d="M217.102 160.916C197.079 170.301 186.372 168.647 181.046 165.941L174.328 191.893L253.753 185.151C262.58 174.676 269.778 162.93 275.105 150.309C275.97 148.22 276.627 146.05 277.068 143.831C257.765 139.286 242.458 149.034 217.102 160.916Z" fill="white"/>
</g>
<path d="M178.07 87.7451L261.313 114.029C264.038 114.876 266.531 116.342 268.595 118.312C273.845 123.368 281.676 134.245 275.097 150.286C269.77 162.907 262.572 174.652 253.745 185.128L174.328 191.892L190.439 129.699C190.439 129.699 197.922 102.356 178.07 87.7451Z" stroke="#263238" stroke-width="2" stroke-linecap="round" stroke-linejoin="round"/>
<path d="M224.856 95.584L211.823 136.263C209.604 136.626 207.439 138.458 206.365 141.156C204.881 144.882 206.032 148.848 208.939 150.008C211.846 151.167 215.41 149.08 216.894 145.369C218.115 142.277 217.551 139.077 215.688 137.384L224.856 106.059L237.643 110.419L241.137 101.413L224.856 95.584Z" fill="#263238" stroke="#263238" stroke-linecap="round" stroke-linejoin="round"/>
<path d="M145.207 131.624C145.207 131.624 151.02 138.025 151.314 141.218C151.608 144.411 146.374 152.814 146.374 152.814C146.374 152.814 157.128 159.501 167.301 154.847C177.475 150.193 182.415 130.434 182.415 130.434C182.415 130.434 170.208 136.247 165.554 136.247C160.9 136.247 145.207 131.624 145.207 131.624Z" fill="#263238" stroke="#263238" stroke-linecap="round" stroke-linejoin="round"/>
<path d="M167.3 154.878C170.107 153.595 172.511 151.16 174.529 148.315C174.385 147.701 174.064 147.143 173.607 146.709C173.149 146.274 172.575 145.984 171.954 145.872C165.847 144.705 159.454 151.392 159.454 151.392C158.881 153.038 158.533 154.754 158.418 156.494C161.466 156.681 164.514 156.127 167.3 154.878Z" fill="#EF233C" stroke="#263238" stroke-linecap="round" stroke-linejoin="round"/>
<path d="M158.868 149.652C155.592 149.526 152.39 148.642 149.514 147.07C148.099 150.054 146.367 152.845 146.367 152.845C146.367 152.845 157.12 159.532 167.294 154.878C170.04 153.474 172.389 151.403 174.128 148.856C171.747 149.119 163.985 149.892 158.868 149.652Z" fill="white" stroke="#263238" stroke-linecap="round" stroke-linejoin="round"/>
<path d="M165.554 136.278C160.916 136.278 145.207 131.64 145.207 131.64C147.109 133.75 148.807 136.035 150.278 138.466C154.144 140.012 160.939 142.401 166.428 142.401C171.15 142.357 175.764 140.982 179.74 138.435C180.796 135.826 181.689 133.153 182.415 130.434C182.415 130.434 170.208 136.278 165.554 136.278Z" fill="white" stroke="#263238" stroke-linecap="round" stroke-linejoin="round"/>
<path d="M164.395 122.904C164.395 122.904 166.142 116.804 171.082 116.217C176.021 115.629 177.475 119.124 177.475 119.124C177.475 119.124 168.144 119.124 164.395 122.904Z" fill="#263238"/>
<path d="M178.635 128.718L185.902 131.338" stroke="#263238" stroke-linecap="round" stroke-linejoin="round"/>
<path d="M156.231 117.06C155.867 119.109 154.932 120.663 154.136 120.524C153.339 120.384 153.007 118.606 153.363 116.55C153.718 114.494 154.669 112.94 155.458 113.079C156.246 113.218 156.602 114.973 156.231 117.06Z" fill="#263238"/>
<path d="M165.554 115.637C165.554 115.637 165.268 112.151 172.82 112.151C180.373 112.151 181.834 111.277 178.928 107.512C176.021 103.747 163.814 105.757 165.554 115.637Z" fill="#263238"/>
<path d="M162.646 105.178C162.646 105.178 162.066 100.231 157.42 100.231C152.774 100.231 150.146 105.758 149.86 104.011C149.573 102.264 151.313 96.1642 157.706 95.5844C164.099 95.0046 162.646 105.178 162.646 105.178Z" fill="#263238"/>
<path d="M195.449 101.143C196.696 104.273 197.452 107.577 197.691 110.937C199.546 132.142 180.684 189.944 180.684 189.944" stroke="#263238" stroke-linecap="round" stroke-linejoin="round"/>
<path d="M188.143 92.6387C189.823 93.4072 191.291 94.5749 192.418 96.0401" stroke="#263238" stroke-linecap="round" stroke-linejoin="round"/>
<path d="M253.815 179.756C251.975 182.523 250.723 184.394 250.723 184.394" stroke="#263238" stroke-linecap="round" stroke-linejoin="round"/>
<path d="M256.812 113.589C256.812 113.589 270.867 121.544 272.722 133.209C274.577 144.875 270.07 150.99 267.419 157.337C265.873 160.978 260.639 169.319 256.426 175.782" stroke="#263238" stroke-linecap="round" stroke-linejoin="round"/>
<path d="M147.086 158.774C147.086 158.774 151.291 162.972 160.738 161.921C160.738 161.921 151.291 166.119 147.086 158.774Z" fill="#263238"/>
<path d="M62.1875 155.381C62.1875 155.381 86.7941 142.478 131.709 150.387C133.774 150.749 135.899 150.278 137.617 149.076C139.336 147.875 140.508 146.042 140.878 143.978L141.527 140.352C141.839 138.612 141.56 136.818 140.735 135.255C139.91 133.691 138.586 132.449 136.974 131.725C125.045 126.367 97.2923 111.509 82.7046 83.9727L62.1875 155.381Z" fill="#EF233C" stroke="#263238" stroke-width="2" stroke-linecap="round" stroke-linejoin="round"/>
<path d="M84.166 98.9238C84.166 98.9238 96.1794 117.771 116.124 124.597" stroke="white" stroke-width="2" stroke-linecap="round" stroke-linejoin="round"/>
<path d="M136.975 131.725C129.996 128.568 123.296 124.829 116.945 120.547C119.04 127.242 119.643 137.361 110.977 148.022C117.93 148.377 124.855 149.167 131.71 150.387C133.775 150.749 135.9 150.278 137.618 149.077C139.337 147.876 140.509 146.042 140.879 143.978L141.528 140.353C141.84 138.613 141.561 136.819 140.736 135.255C139.911 133.692 138.587 132.449 136.975 131.725Z" fill="#263238" stroke="#263238" stroke-linecap="round" stroke-linejoin="round"/>
<path d="M81.899 122.677C88.9055 100.264 87.5821 79.9058 78.943 77.2051C70.3039 74.5044 57.6207 90.4841 50.6142 112.897C43.6076 135.309 44.9311 155.668 53.5701 158.369C62.2092 161.069 74.8925 145.09 81.899 122.677Z" fill="#263238" stroke="#263238" stroke-linecap="round" stroke-linejoin="round"/>
<path d="M78.4078 121.59C84.7112 101.427 83.9508 83.2464 76.7094 80.9827C69.4681 78.7189 58.488 93.2293 52.1847 113.393C45.8813 133.556 46.6417 151.736 53.8831 154C61.1244 156.264 72.1045 141.754 78.4078 121.59Z" fill="white" stroke="#263238" stroke-linecap="round" stroke-linejoin="round"/>
<path d="M81.3197 110.049L74.1302 109.67L68.7188 128.084L74.4317 132.205C75.9436 128.747 77.265 125.209 78.3898 121.606C79.5867 117.813 80.5649 113.954 81.3197 110.049Z" fill="#263238" stroke="#263238" stroke-linecap="round" stroke-linejoin="round"/>
<path d="M74.5413 119.781C73.057 124.868 70.4673 128.586 68.7511 128.084C67.0349 127.581 66.8571 123.059 68.3414 117.972C69.8256 112.885 72.4231 109.167 74.1316 109.67C75.8401 110.172 76.0256 114.702 74.5413 119.781Z" fill="white" stroke="#263238" stroke-linecap="round" stroke-linejoin="round"/>
<path d="M156.779 211.868C152.782 210.005 120.004 151.647 118.126 148.477C116.247 145.308 116.796 140.746 118.659 136.487C120.522 132.227 120.522 124.226 119.432 122.626C118.342 121.026 115.08 119.394 115.08 119.394C115.08 119.394 115.706 118.621 117.036 117.037C118.366 115.452 121.566 116.503 121.566 116.503C123.963 114.632 126.104 117.678 126.104 117.678C128.771 116.078 130.093 119.163 130.093 119.163C131.029 119.215 131.941 119.479 132.76 119.936C134.979 121.373 134.623 127.666 134.623 127.666C134.623 127.666 137.02 128.2 137.553 129.8C138.15 132.372 137.965 135.065 137.02 137.531C135.953 140.198 129.289 148.191 129.289 148.191L162.33 204.949" fill="white"/>
<path d="M156.779 211.868C152.782 210.005 120.004 151.647 118.126 148.477C116.247 145.308 116.796 140.746 118.659 136.487C120.522 132.227 120.522 124.226 119.432 122.626C118.342 121.026 115.08 119.394 115.08 119.394C115.08 119.394 115.706 118.621 117.036 117.037C118.366 115.452 121.566 116.503 121.566 116.503C123.963 114.632 126.104 117.678 126.104 117.678C128.771 116.078 130.093 119.163 130.093 119.163C131.029 119.215 131.941 119.479 132.76 119.936C134.979 121.373 134.623 127.666 134.623 127.666C134.623 127.666 137.02 128.2 137.553 129.8C138.15 132.372 137.965 135.065 137.02 137.531C135.953 140.198 129.289 148.191 129.289 148.191L162.33 204.949" stroke="#263238" stroke-width="2" stroke-linecap="round" stroke-linejoin="round"/>
<path d="M121.605 116.519C121.605 116.519 125.432 118.985 125.432 121.157C125.473 122.834 125.615 124.507 125.857 126.166" stroke="#263238" stroke-linecap="round" stroke-linejoin="round"/>
<path d="M126.143 117.655C126.143 117.655 128.462 120.09 128.578 121.521C128.694 122.951 129.011 127.388 129.011 127.388" stroke="#263238" stroke-linecap="round" stroke-linejoin="round"/>
<path d="M130.133 119.14C130.929 120.311 131.381 121.682 131.439 123.098C131.455 124.581 131.551 126.062 131.725 127.535" stroke="#263238" stroke-linecap="round" stroke-linejoin="round"/>
<path d="M134.662 127.666C134.662 127.666 135.737 134.546 135.304 135.984" stroke="#263238" stroke-linecap="round" stroke-linejoin="round"/>
</svg>
