<svg width="19" height="23" viewBox="0 0 19 23" fill="none" xmlns="http://www.w3.org/2000/svg">
<path d="M9.03572 23L2.10615 14.8276C2.00987 14.7049 1.91458 14.5814 1.8203 14.4571C0.636601 12.8979 -0.00285955 10.9934 9.61308e-06 9.03571C9.61308e-06 6.63929 0.951984 4.34102 2.64651 2.6465C4.34103 0.951975 6.6393 0 9.03572 0C11.4321 0 13.7304 0.951975 15.4249 2.6465C17.1195 4.34102 18.0714 6.63929 18.0714 9.03571C18.0743 10.9925 17.4351 12.8961 16.252 14.4547L16.2512 14.4571C16.2512 14.4571 16.0047 14.7808 15.9678 14.8243L9.03572 23ZM3.1313 13.4673C3.13294 13.4673 3.32351 13.7203 3.36705 13.7745L9.03572 20.4601L14.7118 13.7655C14.7479 13.7203 14.9402 13.4657 14.941 13.4649C15.9079 12.1909 16.4305 10.6351 16.4286 9.03571C16.4286 7.07501 15.6497 5.1946 14.2633 3.80817C12.8768 2.42175 10.9964 1.64286 9.03572 1.64286C7.07502 1.64286 5.19461 2.42175 3.80818 3.80817C2.42176 5.1946 1.64287 7.07501 1.64287 9.03571C1.64114 10.6361 2.16347 12.1928 3.1313 13.4673Z" fill="#EF233C"/>
<path d="M13.1429 13.143H11.5V6.57157H6.57145V13.143H4.92859V6.57157C4.92902 6.13599 5.10225 5.71837 5.41025 5.41037C5.71825 5.10237 6.13587 4.92915 6.57145 4.92871H11.5C11.9356 4.92915 12.3532 5.10237 12.6612 5.41037C12.9692 5.71837 13.1424 6.13599 13.1429 6.57157V13.143Z" fill="#EF233C"/>
<path d="M8.21423 11.4996H9.85709V13.1424H8.21423V11.4996ZM8.21423 8.21387H9.85709V9.85672H8.21423V8.21387Z" fill="#EF233C"/>
</svg>
