<svg width="20" height="16" viewBox="0 0 20 16" fill="none" xmlns="http://www.w3.org/2000/svg">
<path d="M6 13H8V12H9C9.28334 12 9.521 11.904 9.713 11.712C9.905 11.52 10.0007 11.2827 10 11V8C10 7.71667 9.904 7.479 9.712 7.287C9.52 7.095 9.28267 6.99934 9 7H6V6H10V4H8V3H6V4H5C4.71667 4 4.479 4.096 4.287 4.288C4.095 4.48 3.99934 4.71734 4 5V8C4 8.28334 4.096 8.521 4.288 8.713C4.48 8.905 4.71734 9.00067 5 9H8V10H4V12H6V13ZM14 12.25L16 10.25H12L14 12.25ZM12 6H16L14 4L12 6ZM2 16C1.45 16 0.979002 15.804 0.587002 15.412C0.195002 15.02 -0.000664969 14.5493 1.69779e-06 14V2C1.69779e-06 1.45 0.196002 0.979002 0.588002 0.587002C0.980002 0.195002 1.45067 -0.000664969 2 1.69779e-06H18C18.55 1.69779e-06 19.021 0.196001 19.413 0.588001C19.805 0.980001 20.0007 1.45067 20 2V14C20 14.55 19.804 15.021 19.412 15.413C19.02 15.805 18.5493 16.0007 18 16H2ZM2 14H18V2H2V14Z" fill="#EF233C"/>
</svg>
