<svg width="22" height="22" viewBox="0 0 22 22" fill="none" xmlns="http://www.w3.org/2000/svg">
<path d="M20.4902 0H1.50982C1.1094 0 0.725376 0.172606 0.442233 0.479846C0.15909 0.787087 2.19897e-05 1.20379 2.19897e-05 1.6383V20.3617C-0.00153799 20.6741 0.0799331 20.9803 0.234673 21.2436C0.389413 21.507 0.610857 21.7164 0.872472 21.8467C1.0722 21.9472 1.28966 21.9995 1.50982 22C1.8655 22.0002 2.20961 21.8629 2.48041 21.6127L2.49012 21.6033L5.95619 18.3068C5.99501 18.273 6.04339 18.2548 6.09315 18.2553H20.4902C20.8906 18.2553 21.2746 18.0827 21.5578 17.7755C21.8409 17.4682 22 17.0515 22 16.617V1.6383C22 1.20379 21.8409 0.787087 21.5578 0.479846C21.2746 0.172606 20.8906 0 20.4902 0ZM20.7059 16.617C20.7059 16.6791 20.6832 16.7386 20.6427 16.7825C20.6023 16.8264 20.5474 16.8511 20.4902 16.8511H6.09315C5.73796 16.8515 5.39429 16.9878 5.12257 17.2361L5.11286 17.2454L1.64463 20.5419C1.61306 20.5693 1.57502 20.5866 1.53485 20.5917C1.49468 20.5968 1.454 20.5895 1.41745 20.5707C1.38091 20.5519 1.34997 20.5224 1.32816 20.4854C1.30636 20.4485 1.29457 20.4056 1.29414 20.3617V1.6383C1.29414 1.57623 1.31686 1.5167 1.35731 1.4728C1.39776 1.42891 1.45262 1.40426 1.50982 1.40426H20.4902C20.5474 1.40426 20.6023 1.42891 20.6427 1.4728C20.6832 1.5167 20.7059 1.57623 20.7059 1.6383V16.617ZM15.098 7.25532C15.098 7.44154 15.0299 7.62012 14.9085 7.7518C14.7872 7.88347 14.6226 7.95745 14.451 7.95745H7.54903C7.37742 7.95745 7.21284 7.88347 7.0915 7.7518C6.97015 7.62012 6.90198 7.44154 6.90198 7.25532C6.90198 7.0691 6.97015 6.89051 7.0915 6.75884C7.21284 6.62717 7.37742 6.55319 7.54903 6.55319H14.451C14.6226 6.55319 14.7872 6.62717 14.9085 6.75884C15.0299 6.89051 15.098 7.0691 15.098 7.25532ZM15.098 11C15.098 11.1862 15.0299 11.3648 14.9085 11.4965C14.7872 11.6282 14.6226 11.7021 14.451 11.7021H7.54903C7.37742 11.7021 7.21284 11.6282 7.0915 11.4965C6.97015 11.3648 6.90198 11.1862 6.90198 11C6.90198 10.8138 6.97015 10.6352 7.0915 10.5035C7.21284 10.3718 7.37742 10.2979 7.54903 10.2979H14.451C14.6226 10.2979 14.7872 10.3718 14.9085 10.5035C15.0299 10.6352 15.098 10.8138 15.098 11Z" fill="black"/>
</svg>
