<svg width="58" height="58" viewBox="0 0 58 58" fill="none" xmlns="http://www.w3.org/2000/svg">
<g clip-path="url(#clip0_318_3724)">
<mask id="mask0_318_3724" style="mask-type:luminance" maskUnits="userSpaceOnUse" x="17" y="-1" width="18" height="26">
<path d="M17.6958 -0.139454H34.6692V24.6527H17.6958V-0.139454Z" fill="white"/>
</mask>
<g mask="url(#mask0_318_3724)">
<path d="M21.4366 24.6261L17.7153 24.0079L21.4882 1.43274C21.4973 1.37831 21.5088 1.32452 21.5225 1.27116C21.5363 1.2178 21.5525 1.16507 21.5711 1.1132C21.5894 1.06132 21.6103 1.01009 21.6331 0.960124C21.6562 0.90995 21.6813 0.860839 21.7086 0.813004C21.7359 0.764955 21.7653 0.718396 21.7967 0.672899C21.828 0.627614 21.8615 0.583606 21.8966 0.541298C21.932 0.498778 21.9691 0.457958 22.0079 0.418839C22.0469 0.37972 22.0874 0.342302 22.1294 0.306585C22.1717 0.270868 22.2154 0.237277 22.2606 0.205387C22.3057 0.173709 22.3522 0.143732 22.4 0.116094C22.4477 0.0884556 22.4966 0.0627307 22.5467 0.0393445C22.5965 0.0159583 22.6475 -0.00530198 22.6995 -0.0242236C22.7513 -0.0433577 22.804 -0.0599407 22.8575 -0.0743976C22.9108 -0.088642 22.9647 -0.10076 23.0191 -0.110327C23.0734 -0.119894 23.1282 -0.127336 23.1832 -0.132013C23.2385 -0.136903 23.2937 -0.139241 23.3489 -0.139454H34.6676V3.62318H24.947L21.4366 24.6261Z" fill="#E6294F"/>
</g>
<mask id="mask1_318_3724" style="mask-type:luminance" maskUnits="userSpaceOnUse" x="3" y="20" width="29" height="39">
<path d="M3.50586 20.5163H31.8858V58.1796H3.50586V20.5163Z" fill="white"/>
</mask>
<g mask="url(#mask1_318_3724)">
<path d="M29.9515 58.1796H5.42754L3.54102 20.5544H31.838L29.9515 58.1796Z" fill="#E6294F"/>
</g>
<mask id="mask2_318_3724" style="mask-type:luminance" maskUnits="userSpaceOnUse" x="-1" y="14" width="37" height="7">
<path d="M-0.231934 14.9104H35.6514V20.5708H-0.231934V14.9104Z" fill="white"/>
</mask>
<g mask="url(#mask2_318_3724)">
<path d="M35.6107 20.5547H-0.231934L1.65459 14.911H33.7244L35.6107 20.5547Z" fill="#32ADDB"/>
</g>
<path d="M3.54102 14.9106L4.99753 10.5532C5.02866 10.4602 5.06682 10.3701 5.11202 10.2829C5.15721 10.1958 5.20902 10.1129 5.26743 10.0338C5.32563 9.95468 5.3898 9.88069 5.45952 9.8116C5.52944 9.7425 5.60427 9.67936 5.68422 9.62196C5.76395 9.56456 5.84774 9.51374 5.93557 9.46952C6.02341 9.4253 6.11401 9.3881 6.2076 9.35791C6.30119 9.32772 6.3967 9.30497 6.49392 9.28987C6.59113 9.27457 6.68877 9.26691 6.78727 9.26691H28.592C28.6903 9.26691 28.7881 9.27457 28.8853 9.28987C28.9823 9.30497 29.0778 9.32772 29.1714 9.35791C29.265 9.3881 29.3558 9.4253 29.4435 9.46952C29.5313 9.51374 29.6151 9.56456 29.6948 9.62196C29.7748 9.67936 29.8496 9.7425 29.9195 9.8116C29.9894 9.88069 30.0534 9.95468 30.1118 10.0338C30.17 10.1129 30.2218 10.1958 30.267 10.2829C30.3122 10.3701 30.3504 10.4602 30.3815 10.5532L31.838 14.9106H3.54102Z" fill="#71D6FC"/>
<path d="M30.5176 46.892L31.5552 26.1983H3.82422L4.8616 46.892H30.5176Z" fill="#BA2140"/>
<path d="M24.2921 36.545C24.2921 36.6528 24.2896 36.7606 24.2843 36.8682C24.2789 36.9758 24.271 37.0833 24.2604 37.1905C24.2497 37.2976 24.2365 37.4046 24.2207 37.5113C24.205 37.6178 24.1864 37.7239 24.1653 37.8296C24.1442 37.9355 24.1205 38.0405 24.0943 38.1451C24.0681 38.2495 24.0393 38.3534 24.008 38.4565C23.9764 38.5597 23.9425 38.6619 23.9063 38.7633C23.8698 38.8647 23.831 38.9653 23.7897 39.0648C23.7483 39.1645 23.7044 39.2629 23.6583 39.3603C23.6121 39.4577 23.5635 39.554 23.5125 39.649C23.4616 39.7441 23.4083 39.8378 23.3528 39.9301C23.2972 40.0226 23.2394 40.1136 23.1795 40.2033C23.1194 40.2928 23.0571 40.3808 22.9928 40.4675C22.9284 40.5541 22.8621 40.6389 22.7934 40.7222C22.725 40.8056 22.6544 40.887 22.5817 40.9669C22.5092 41.0469 22.4346 41.1249 22.3583 41.201C22.282 41.2771 22.2037 41.3515 22.1236 41.4238C22.0436 41.4961 21.9618 41.5665 21.8782 41.6349C21.7946 41.7034 21.7096 41.7695 21.6228 41.8337C21.536 41.8979 21.4475 41.96 21.3578 42.0198C21.2678 42.0797 21.1766 42.1373 21.0841 42.1928C20.9913 42.2481 20.8973 42.3012 20.802 42.3521C20.7067 42.4029 20.6101 42.4513 20.5125 42.4973C20.4149 42.5434 20.3161 42.5872 20.2164 42.6282C20.1164 42.6695 20.0158 42.7084 19.9139 42.7447C19.8122 42.7809 19.7096 42.8147 19.6062 42.8459C19.5028 42.8772 19.3988 42.9061 19.2939 42.9322C19.189 42.9584 19.0837 42.982 18.9777 43.003C18.8718 43.0241 18.7652 43.0424 18.6584 43.0583C18.5516 43.074 18.4443 43.0872 18.3367 43.0979C18.2292 43.1085 18.1216 43.1164 18.0135 43.1217C17.9056 43.127 17.7975 43.1295 17.6896 43.1295C17.5816 43.1295 17.4735 43.127 17.3656 43.1217C17.2577 43.1164 17.1498 43.1083 17.0424 43.0979C16.9349 43.0872 16.8277 43.074 16.7207 43.0583C16.6139 43.0424 16.5075 43.0241 16.4015 43.003C16.2954 42.982 16.1901 42.9584 16.0852 42.9322C15.9805 42.9061 15.8762 42.8772 15.7728 42.8459C15.6694 42.8147 15.5669 42.7809 15.4652 42.7447C15.3635 42.7084 15.2627 42.6695 15.1629 42.6282C15.0629 42.5872 14.9642 42.5434 14.8666 42.4973C14.7689 42.4513 14.6724 42.4029 14.5771 42.3521C14.4818 42.3012 14.3877 42.2481 14.2952 42.1928C14.2025 42.1373 14.1112 42.0797 14.0213 42.0198C13.9315 41.96 13.8433 41.8979 13.7565 41.8337C13.6695 41.7695 13.5844 41.7034 13.5009 41.6349C13.4173 41.5665 13.3356 41.4961 13.2555 41.4238C13.1755 41.3515 13.0973 41.2771 13.0208 41.201C12.9444 41.1249 12.8698 41.0469 12.7973 40.9669C12.7249 40.887 12.6543 40.8056 12.5856 40.7222C12.5172 40.6389 12.4507 40.5541 12.3863 40.4675C12.3219 40.3808 12.2597 40.2928 12.1998 40.2033C12.1396 40.1136 12.0819 40.0226 12.0262 39.9301C11.9708 39.8378 11.9175 39.7441 11.8666 39.649C11.8156 39.554 11.767 39.4577 11.7209 39.3603C11.6747 39.2629 11.631 39.1645 11.5896 39.0648C11.5483 38.9653 11.5092 38.8647 11.473 38.7633C11.4365 38.6619 11.4026 38.5597 11.3713 38.4565C11.34 38.3534 11.311 38.2495 11.2848 38.1451C11.2585 38.0405 11.2349 37.9355 11.2138 37.8296C11.1927 37.7239 11.1743 37.6178 11.1583 37.5113C11.1426 37.4046 11.1293 37.2976 11.1187 37.1905C11.1082 37.0833 11.1001 36.9758 11.0948 36.8682C11.0897 36.7606 11.0869 36.6528 11.0869 36.545C11.0869 36.4375 11.0897 36.3297 11.0948 36.2221C11.1001 36.1145 11.1082 36.0069 11.1187 35.8998C11.1293 35.7924 11.1426 35.6855 11.1583 35.579C11.1743 35.4725 11.1927 35.3664 11.2138 35.2605C11.2349 35.1548 11.2585 35.0498 11.2848 34.9452C11.311 34.8408 11.34 34.7369 11.3713 34.6337C11.4026 34.5306 11.4365 34.4284 11.473 34.327C11.5092 34.2256 11.5483 34.125 11.5896 34.0255C11.631 33.9258 11.6747 33.8273 11.7209 33.73C11.767 33.6326 11.8156 33.5363 11.8666 33.4413C11.9175 33.3462 11.9708 33.2525 12.0262 33.16C12.0819 33.0677 12.1396 32.9767 12.1998 32.887C12.2597 32.7975 12.3219 32.7093 12.3863 32.6227C12.4507 32.5362 12.5172 32.4514 12.5856 32.368C12.6543 32.2847 12.7249 32.2031 12.7973 32.1233C12.8698 32.0434 12.9444 31.9654 13.0208 31.8893C13.0973 31.8132 13.1755 31.7387 13.2555 31.6665C13.3356 31.594 13.4173 31.5236 13.5009 31.4553C13.5844 31.3869 13.6695 31.3208 13.7565 31.2566C13.8433 31.1924 13.9315 31.1303 14.0213 31.0703C14.1112 31.0106 14.2025 30.953 14.2952 30.8975C14.3877 30.8422 14.4818 30.7891 14.5771 30.7382C14.6724 30.6874 14.7689 30.639 14.8666 30.5928C14.9642 30.5469 15.0629 30.5031 15.1629 30.4619C15.2627 30.4206 15.3635 30.3819 15.4652 30.3456C15.5669 30.3094 15.6694 30.2756 15.7728 30.2444C15.8762 30.2129 15.9805 30.1842 16.0852 30.158C16.1901 30.1319 16.2954 30.1083 16.4015 30.0873C16.5075 30.0662 16.6139 30.0479 16.7207 30.032C16.8277 30.0162 16.9349 30.0031 17.0424 29.9924C17.1498 29.9818 17.2577 29.9739 17.3656 29.9686C17.4735 29.9633 17.5816 29.9608 17.6896 29.9608C17.7975 29.9608 17.9056 29.9633 18.0135 29.9686C18.1216 29.9739 18.2292 29.9818 18.3367 29.9924C18.4443 30.0031 18.5516 30.0162 18.6584 30.032C18.7652 30.0479 18.8718 30.0662 18.9777 30.0873C19.0837 30.1083 19.189 30.1319 19.2939 30.158C19.3988 30.1842 19.5028 30.2129 19.6062 30.2444C19.7096 30.2756 19.8122 30.3094 19.9139 30.3456C20.0158 30.3819 20.1164 30.4206 20.2164 30.4619C20.3161 30.5031 20.4149 30.5469 20.5125 30.5928C20.6101 30.639 20.7067 30.6874 20.802 30.7382C20.8973 30.7891 20.9913 30.8422 21.0841 30.8975C21.1766 30.953 21.2678 31.0106 21.3578 31.0703C21.4475 31.1303 21.536 31.1924 21.6228 31.2566C21.7096 31.3208 21.7946 31.3869 21.8782 31.4553C21.9618 31.5236 22.0436 31.594 22.1236 31.6665C22.2037 31.7387 22.282 31.8132 22.3583 31.8893C22.4346 31.9654 22.5092 32.0434 22.5817 32.1233C22.6544 32.2031 22.725 32.2847 22.7934 32.368C22.8621 32.4514 22.9284 32.5362 22.9928 32.6227C23.0571 32.7093 23.1194 32.7975 23.1795 32.887C23.2394 32.9767 23.2972 33.0677 23.3528 33.16C23.4083 33.2525 23.4616 33.3462 23.5125 33.4413C23.5635 33.5363 23.6121 33.6326 23.6583 33.73C23.7044 33.8273 23.7483 33.9258 23.7897 34.0255C23.831 34.125 23.8698 34.2256 23.9063 34.327C23.9425 34.4284 23.9764 34.5306 24.008 34.6337C24.0393 34.7369 24.0681 34.8408 24.0943 34.9452C24.1205 35.0498 24.1442 35.1548 24.1653 35.2605C24.1864 35.3664 24.205 35.4725 24.2207 35.579C24.2365 35.6855 24.2497 35.7924 24.2604 35.8998C24.271 36.0069 24.2789 36.1145 24.2843 36.2221C24.2896 36.3297 24.2921 36.4375 24.2921 36.545Z" fill="#F8EAD3"/>
<mask id="mask3_318_3724" style="mask-type:luminance" maskUnits="userSpaceOnUse" x="12" y="46" width="47" height="13">
<path d="M12.9475 46.8586H58.2484V58.1796H12.9475V46.8586Z" fill="white"/>
</mask>
<g mask="url(#mask3_318_3724)">
<path d="M52.5891 58.1796H18.6327L12.9734 46.892H58.2484L52.5891 58.1796Z" fill="#32ADDB"/>
</g>
<mask id="mask4_318_3724" style="mask-type:luminance" maskUnits="userSpaceOnUse" x="12" y="35" width="47" height="16">
<path d="M12.9475 35.5924H58.2484V50.6684H12.9475V35.5924Z" fill="white"/>
</mask>
<g mask="url(#mask4_318_3724)">
<path d="M52.5891 35.6045H18.6327L12.9734 46.892H31.838C31.838 46.9536 31.8395 47.015 31.8425 47.0767C31.8457 47.1381 31.8501 47.1996 31.8561 47.2608C31.8623 47.322 31.8697 47.3833 31.8789 47.4441C31.8879 47.5051 31.8985 47.5657 31.9105 47.6261C31.9226 47.6864 31.936 47.7466 31.951 47.8061C31.9661 47.8659 31.9825 47.9254 32.0004 47.9843C32.0183 48.0432 32.0377 48.1017 32.0586 48.1595C32.0793 48.2175 32.1015 48.2749 32.1251 48.3319C32.1488 48.3887 32.1738 48.445 32.2002 48.5007C32.2266 48.5564 32.2543 48.6113 32.2835 48.6657C32.3125 48.7199 32.343 48.7735 32.3748 48.8264C32.4066 48.8791 32.4396 48.9312 32.4739 48.9825C32.508 49.0335 32.5436 49.0839 32.5805 49.1334C32.6172 49.1827 32.6551 49.2314 32.6944 49.279C32.7336 49.3265 32.7739 49.3732 32.8152 49.4187C32.8568 49.4644 32.8995 49.5091 32.9429 49.5525C32.9866 49.596 33.0314 49.6386 33.0773 49.6798C33.1229 49.7213 33.1696 49.7614 33.2173 49.8006C33.2651 49.8395 33.3137 49.8775 33.3634 49.9141C33.413 49.9509 33.4633 49.9862 33.5147 50.0204C33.5661 50.0546 33.6183 50.0876 33.6712 50.1193C33.7243 50.1509 33.7778 50.1813 33.8324 50.2102C33.8867 50.2394 33.942 50.267 33.9978 50.2934C34.0537 50.3195 34.1099 50.3446 34.1671 50.3682C34.2242 50.3916 34.2818 50.4139 34.3398 50.4345C34.398 50.4554 34.4566 50.4747 34.5156 50.4926C34.5747 50.5104 34.6342 50.5268 34.6941 50.5417C34.754 50.5568 34.8143 50.5702 34.8749 50.5823C34.9354 50.5942 34.9962 50.6048 35.0574 50.6138C35.1183 50.6229 35.1797 50.6303 35.2411 50.6365C35.3025 50.6425 35.3641 50.6469 35.4258 50.6499C35.4874 50.6531 35.5492 50.6546 35.6108 50.6546C35.6726 50.6546 35.7345 50.6531 35.7961 50.6499C35.8577 50.6469 35.9193 50.6425 35.9807 50.6365C36.0421 50.6303 36.1035 50.6229 36.1645 50.6138C36.2257 50.6048 36.2864 50.5942 36.347 50.5823C36.4075 50.5702 36.4678 50.5568 36.5277 50.5417C36.5876 50.5268 36.6471 50.5104 36.7062 50.4926C36.7652 50.4747 36.8239 50.4554 36.8821 50.4345C36.9401 50.4139 36.9976 50.3916 37.0547 50.3682C37.1119 50.3446 37.1682 50.3195 37.224 50.2934C37.2799 50.267 37.3351 50.2394 37.3895 50.2102C37.4438 50.1813 37.4975 50.1509 37.5506 50.1193C37.6035 50.0876 37.6557 50.0546 37.7071 50.0204C37.7583 49.9862 37.8088 49.9509 37.8585 49.9141C37.9079 49.8775 37.9568 49.8395 38.0045 49.8006C38.0521 49.7614 38.099 49.7213 38.1446 49.6798C38.1904 49.6386 38.2352 49.596 38.2787 49.5525C38.3224 49.5091 38.365 49.4644 38.4064 49.4187C38.4479 49.3732 38.4882 49.3265 38.5275 49.279C38.5665 49.2314 38.6046 49.1827 38.6413 49.1334C38.6782 49.0839 38.7136 49.0335 38.7479 48.9825C38.7822 48.9312 38.8153 48.8791 38.847 48.8264C38.8788 48.7735 38.9093 48.7199 38.9383 48.6657C38.9675 48.6113 38.9952 48.5564 39.0216 48.5007C39.0481 48.445 39.073 48.3887 39.0967 48.3319C39.1204 48.2749 39.1425 48.2175 39.1632 48.1595C39.1841 48.1017 39.2035 48.0432 39.2214 47.9843C39.2393 47.9252 39.2557 47.8659 39.2707 47.8061C39.2858 47.7466 39.2992 47.6864 39.3114 47.6261C39.3233 47.5657 39.334 47.5051 39.3429 47.4441C39.3521 47.3833 39.3596 47.322 39.3657 47.2608C39.3717 47.1996 39.3762 47.1381 39.3794 47.0767C39.3824 47.015 39.3839 46.9536 39.3839 46.892H58.2484L52.5891 35.6045Z" fill="#71D6FC"/>
</g>
<path d="M45.0432 40.3077H37.4974C37.4664 40.3077 37.4357 40.3062 37.4048 40.3032C37.3741 40.3 37.3436 40.2956 37.3134 40.2896C37.2831 40.2836 37.253 40.276 37.2236 40.2671C37.194 40.2581 37.165 40.2479 37.1364 40.236C37.1079 40.2243 37.0799 40.2112 37.0529 40.1965C37.0256 40.182 36.9991 40.1663 36.9733 40.1491C36.9477 40.1321 36.9228 40.1138 36.8989 40.0942C36.8751 40.0747 36.8522 40.0538 36.8305 40.0321C36.8085 40.0105 36.7879 39.9875 36.7682 39.9637C36.7486 39.9399 36.7303 39.9152 36.713 39.8897C36.696 39.864 36.68 39.8376 36.6655 39.8104C36.651 39.7832 36.6378 39.7555 36.626 39.7271C36.6141 39.6986 36.6037 39.6697 36.5947 39.6401C36.5858 39.6106 36.5783 39.5808 36.5723 39.5506C36.5664 39.5204 36.5617 39.4898 36.5587 39.4592C36.5557 39.4286 36.5542 39.3977 36.5542 39.3671C36.5542 39.3363 36.5557 39.3055 36.5587 39.2749C36.5617 39.2442 36.5664 39.2136 36.5723 39.1834C36.5783 39.1532 36.5858 39.1235 36.5947 39.0939C36.6037 39.0646 36.6141 39.0355 36.626 39.007C36.6378 38.9787 36.651 38.9508 36.6655 38.9236C36.6802 38.8964 36.696 38.8701 36.713 38.8443C36.7303 38.8188 36.7486 38.7942 36.7682 38.7703C36.7879 38.7465 36.8085 38.7236 36.8305 38.7019C36.8522 38.6802 36.8751 38.6594 36.8989 38.6398C36.9228 38.6205 36.9477 38.602 36.9733 38.585C36.9991 38.5677 37.0256 38.552 37.0529 38.5375C37.0799 38.5229 37.1079 38.5097 37.1364 38.498C37.165 38.4861 37.194 38.4759 37.2236 38.467C37.253 38.458 37.2831 38.4504 37.3134 38.4444C37.3436 38.4385 37.3741 38.434 37.4048 38.4308C37.4357 38.4278 37.4664 38.4264 37.4974 38.4264H45.0432C45.0741 38.4264 45.1048 38.4278 45.1358 38.4308C45.1665 38.434 45.1969 38.4385 45.2272 38.4444C45.2575 38.4504 45.2875 38.458 45.317 38.467C45.3466 38.4759 45.3756 38.4861 45.4042 38.498C45.4327 38.5097 45.4607 38.5229 45.4879 38.5375C45.515 38.552 45.5417 38.5677 45.5673 38.585C45.593 38.602 45.6178 38.6205 45.6417 38.6398C45.6655 38.6594 45.6883 38.6802 45.7103 38.7019C45.732 38.7236 45.7527 38.7465 45.7723 38.7703C45.792 38.7942 45.8103 38.8188 45.8276 38.8443C45.8446 38.8701 45.8606 38.8964 45.8751 38.9236C45.8896 38.9508 45.9028 38.9787 45.9148 39.007C45.9265 39.0355 45.9369 39.0646 45.9459 39.0939C45.9548 39.1235 45.9623 39.1532 45.9683 39.1834C45.9744 39.2136 45.9789 39.2442 45.9819 39.2749C45.9849 39.3055 45.9864 39.3363 45.9864 39.3671C45.9864 39.3977 45.9849 39.4286 45.9819 39.4592C45.9789 39.4898 45.9744 39.5204 45.9683 39.5506C45.9623 39.5808 45.9548 39.6106 45.9459 39.6401C45.9369 39.6697 45.9265 39.6986 45.9148 39.7271C45.9028 39.7555 45.8896 39.7832 45.8751 39.8104C45.8606 39.8376 45.8446 39.864 45.8276 39.8897C45.8103 39.9152 45.792 39.9399 45.7723 39.9637C45.7527 39.9875 45.732 40.0105 45.7103 40.0321C45.6883 40.0538 45.6655 40.0747 45.6417 40.0942C45.6178 40.1138 45.593 40.1321 45.5673 40.1491C45.5417 40.1663 45.515 40.182 45.4879 40.1965C45.4607 40.2112 45.4327 40.2243 45.4042 40.236C45.3756 40.2479 45.3466 40.2581 45.317 40.2671C45.2875 40.276 45.2575 40.2836 45.2272 40.2896C45.1969 40.2956 45.1665 40.3 45.1358 40.3032C45.1048 40.3062 45.0741 40.3077 45.0432 40.3077Z" fill="#32ADDB"/>
<path d="M50.7025 40.3077H48.816C48.7853 40.3077 48.7543 40.3062 48.7236 40.3032C48.6929 40.3 48.6622 40.2956 48.632 40.2896C48.6017 40.2836 48.5719 40.276 48.5422 40.2671C48.5126 40.2581 48.4836 40.2479 48.455 40.236C48.4265 40.2243 48.3987 40.2112 48.3715 40.1965C48.3442 40.182 48.3177 40.1663 48.2919 40.1491C48.2664 40.1321 48.2416 40.1138 48.2177 40.0942C48.1939 40.0747 48.1708 40.0538 48.1491 40.0321C48.1271 40.0105 48.1065 39.9875 48.0868 39.9637C48.0672 39.9399 48.0489 39.9152 48.0318 39.8897C48.0146 39.864 47.9988 39.8376 47.9841 39.8104C47.9696 39.7832 47.9564 39.7555 47.9446 39.7271C47.9327 39.6986 47.9225 39.6697 47.9135 39.6401C47.9046 39.6106 47.8969 39.5808 47.8909 39.5506C47.885 39.5204 47.8805 39.4898 47.8773 39.4592C47.8743 39.4286 47.8728 39.3977 47.8728 39.3671C47.8728 39.3363 47.8743 39.3055 47.8773 39.2749C47.8805 39.2442 47.885 39.2136 47.8909 39.1834C47.8969 39.1532 47.9046 39.1235 47.9135 39.0939C47.9225 39.0646 47.9327 39.0355 47.9446 39.007C47.9564 38.9787 47.9696 38.9508 47.9843 38.9236C47.9988 38.8964 48.0146 38.8701 48.0318 38.8443C48.0489 38.8188 48.0672 38.7942 48.0868 38.7703C48.1065 38.7465 48.1271 38.7236 48.1491 38.7019C48.1708 38.6802 48.1939 38.6594 48.2177 38.6398C48.2416 38.6205 48.2664 38.602 48.2919 38.585C48.3177 38.5677 48.3442 38.552 48.3715 38.5375C48.3987 38.5229 48.4265 38.5097 48.455 38.498C48.4836 38.4861 48.5126 38.4759 48.5422 38.467C48.5719 38.458 48.6017 38.4504 48.632 38.4444C48.6622 38.4385 48.6929 38.434 48.7236 38.4308C48.7543 38.4278 48.7853 38.4264 48.816 38.4264H50.7025C50.7334 38.4264 50.7643 38.4278 50.795 38.4308C50.8257 38.434 50.8562 38.4385 50.8865 38.4444C50.9167 38.4504 50.9468 38.458 50.9762 38.467C51.0059 38.4759 51.0348 38.4861 51.0634 38.498C51.092 38.5097 51.1199 38.5229 51.1472 38.5375C51.1745 38.552 51.2009 38.5677 51.2265 38.585C51.2523 38.602 51.277 38.6205 51.3009 38.6398C51.3248 38.6594 51.3476 38.6802 51.3696 38.7019C51.3913 38.7236 51.412 38.7465 51.4316 38.7703C51.4512 38.7942 51.4695 38.8188 51.4868 38.8443C51.5039 38.8701 51.5199 38.8964 51.5343 38.9236C51.5488 38.9508 51.5621 38.9787 51.574 39.007C51.5857 39.0355 51.5962 39.0646 51.6051 39.0939C51.6141 39.1235 51.6215 39.1532 51.6275 39.1834C51.6337 39.2136 51.6382 39.2442 51.6412 39.2749C51.6441 39.3055 51.6458 39.3363 51.6458 39.3671C51.6458 39.3977 51.6441 39.4286 51.6412 39.4592C51.6382 39.4898 51.6337 39.5204 51.6275 39.5506C51.6215 39.5808 51.6141 39.6106 51.6051 39.6401C51.5962 39.6697 51.5857 39.6986 51.574 39.7271C51.5621 39.7555 51.5488 39.7832 51.5343 39.8104C51.5199 39.8376 51.5039 39.864 51.4868 39.8897C51.4695 39.9152 51.4512 39.9399 51.4316 39.9637C51.412 39.9875 51.3913 40.0105 51.3696 40.0321C51.3476 40.0538 51.3248 40.0747 51.3009 40.0942C51.277 40.1138 51.2523 40.1321 51.2265 40.1491C51.2009 40.1663 51.1745 40.182 51.1472 40.1965C51.1199 40.2112 51.092 40.2243 51.0634 40.236C51.0348 40.2479 51.0059 40.2581 50.9762 40.2671C50.9468 40.276 50.9167 40.2836 50.8865 40.2896C50.8562 40.2956 50.8257 40.3 50.795 40.3032C50.7643 40.3062 50.7334 40.3077 50.7025 40.3077Z" fill="#32ADDB"/>
</g>
<defs>
<clipPath id="clip0_318_3724">
<rect width="58" height="58" fill="white"/>
</clipPath>
</defs>
</svg>
