<svg width="56" height="52" viewBox="0 0 56 52" fill="none" xmlns="http://www.w3.org/2000/svg">
<g clip-path="url(#clip0_318_3686)">
<path d="M55.0468 11.5908C54.972 11.5113 54.8796 11.4407 54.7653 11.3832C54.7609 11.3832 54.7565 11.379 54.752 11.379C54.4615 11.2375 54.1358 11.2772 53.8761 11.4363C53.9245 11.3524 54.3911 10.5308 53.9774 9.6783C53.6868 9.07762 53.1366 8.84347 52.9958 8.78594C53.2731 8.37516 53.546 7.96881 53.8232 7.55803C54.1886 7.01468 54.1093 6.24622 53.5811 5.85295C53.5767 5.85295 53.5723 5.84853 53.5723 5.8441C52.9605 5.40253 52.2695 5.68517 52.2344 5.69845C52.2783 5.59686 52.3092 5.49085 52.3224 5.37598C52.3619 5.00484 52.3531 4.26735 51.7986 3.66649C51.7942 3.66206 51.7854 3.65321 51.781 3.64879C51.1956 3.0304 50.1525 3.29995 49.8751 4.10382L48.2508 8.84347C48.1849 7.68616 48.1233 6.52444 48.0615 5.36713C48.0573 5.22572 48.0132 5.09334 47.934 4.97405C47.8107 4.78857 47.5774 4.5323 47.1944 4.44398C47.19 4.44398 47.1858 4.43956 47.1814 4.43956C46.7059 4.33797 46.2658 4.72662 46.257 5.21244L46.1601 11.0828V11.0917C45.0465 11.2287 44.0254 11.931 43.4928 12.9911C43.189 13.6006 42.8854 14.2057 42.5816 14.8155C42.0227 14.3826 41.2393 13.8966 40.6669 12.8233C39.9496 11.4673 40.3016 10.6369 39.5622 10.1112C38.792 9.56786 37.6078 9.89918 36.7145 10.2746C36.2918 9.92555 35.7724 9.60308 35.2223 9.51034V9.50149C35.0198 8.66223 34.3859 7.98651 33.5673 7.7435C32.687 7.48299 31.7231 7.75678 31.098 8.44596C31.0804 8.05712 30.9879 6.89982 30.2969 6.37417C29.6103 5.85738 28.4482 5.87508 27.3214 6.50231C26.3575 7.04566 25.2218 7.20901 24.1259 7.06336C23.1664 6.93079 22.198 7.17822 21.4673 7.78333C20.0501 8.95833 20.2745 10.862 20.2922 10.9813C20.006 10.7296 19.6892 10.4954 19.1213 10.416C18.6019 10.3452 17.9506 10.4116 17.4533 10.6499C18.1178 8.55197 18.8353 6.59505 19.5615 4.82821C19.0026 4.91653 17.8537 5.18608 16.7358 6.07826C15.5077 7.06336 14.9839 8.28242 14.7637 8.94948C14.8255 6.85575 14.8915 4.76202 14.9575 2.6683C14.4866 2.89802 13.4741 3.46773 12.7215 4.64274C11.6916 6.25507 11.85 7.89819 11.9116 8.37516C10.4371 5.11971 8.62367 2.74333 7.26789 1.21508C7.36475 3.28668 7.68178 6.03419 8.58398 9.13938C8.01185 8.98912 7.33847 8.85674 6.58127 8.78152C5.43243 8.67108 4.42456 8.7286 3.62344 8.83019C4.24408 9.34699 4.98363 9.89033 5.84191 10.416C7.22838 11.2552 8.53564 11.8072 9.62714 12.1695C8.80856 11.931 7.87089 11.7101 6.82332 11.5556C5.33135 11.3347 3.99321 11.3037 2.87966 11.3568C4.03714 12.4301 5.35322 13.5521 6.84096 14.6829C4.90865 15.4602 3.56187 17.2095 3.56187 19.2413C3.56187 19.2546 3.56187 19.2679 3.56187 19.2856C2.96328 20.085 2.61115 21.048 2.61115 22.086C2.61115 22.6116 2.70359 23.1151 2.87084 23.5923H0.758047C1.56358 26.9757 1.73523 29.7498 1.74405 31.6536C1.7617 37.1883 0.423558 39.8163 0.758047 45.4041C0.91647 48.05 1.3831 50.1922 1.74405 51.5704C10.0938 51.5704 18.4479 51.5704 26.802 51.5704C35.1563 51.5704 43.5105 51.5704 51.8602 51.5704C52.2211 50.1922 52.6876 48.05 52.8462 45.4041C53.1807 39.8163 51.8425 37.1883 51.8602 31.6536C51.869 29.7498 52.0407 26.9757 52.8462 23.5923H50.0731C50.522 23.3139 51.0944 22.8987 51.6577 22.3024C51.8955 22.0506 52.1022 21.7989 52.2783 21.5559C53.1233 20.403 53.2202 18.8173 52.384 17.66C52.3399 17.5982 52.2959 17.5364 52.2432 17.4789C53.207 15.8931 54.1709 14.3073 55.1349 12.7262C55.355 12.3683 55.3418 11.8913 55.0468 11.5908Z" fill="#D6B85A"/>
<path d="M49.8929 13.4019C50.5399 12.4389 51.187 11.4805 51.8339 10.5176C51.8118 10.7252 51.1473 16.5513 51.1252 16.6C50.4209 16.2554 49.7828 16.2289 49.6331 16.2244C50.1262 15.3367 50.201 14.3031 49.8885 13.4019H49.8929Z" fill="#349370"/>
<path d="M35.2225 9.50149V9.51034C35.0023 9.46627 34.7779 9.46185 34.5489 9.51034C33.9679 9.62963 33.8316 9.99634 33.1977 10.4337C32.8016 9.47955 32.0268 8.75958 31.0981 8.44596C31.7232 7.75678 32.6871 7.48298 33.5675 7.7435C34.3861 7.9865 35.0199 8.66223 35.2225 9.50149Z" fill="#3FA07F"/>
<path d="M33.1976 10.4337C33.114 10.4954 33.0216 10.5528 32.9159 10.6147C31.9301 11.1844 30.9308 11.2772 30.2619 11.2685H30.2575C29.2275 10.5308 29.2362 9.76662 28.0831 9.51034C27.8673 9.46185 27.6562 9.43972 27.4492 9.44415C27.5725 9.30716 28.6464 8.14543 30.297 8.278C30.5743 8.30012 30.8428 8.35746 31.0981 8.44596C32.0267 8.75958 32.8016 9.47955 33.1976 10.4337Z" fill="#4AAF8F"/>
<path d="M34.8392 12.629C33.849 12.218 32.7617 12.4256 31.2564 11.8072C30.8383 11.635 30.517 11.454 30.2617 11.2685C30.9307 11.2772 31.9299 11.1844 32.9158 10.6147C33.0214 10.5528 33.1139 10.4954 33.1975 10.4337C33.8314 9.99634 33.9677 9.62963 34.5487 9.51034C34.7777 9.46185 35.0021 9.46627 35.2223 9.51034C35.7723 9.60308 36.2917 9.92555 36.7144 10.2746C37.1809 10.6544 37.5286 11.0609 37.6739 11.2331C38.2725 11.9354 38.9592 12.7392 38.761 13.5344C38.5499 14.3604 37.5153 14.6342 36.7144 14.9655C36.5602 14.4133 36.2566 13.6845 35.6139 13.1192C35.3586 12.8939 35.1033 12.7392 34.8392 12.629Z" fill="#53B79A"/>
<path d="M22.832 11.6306C22.3126 11.8249 21.7932 11.8736 21.2606 11.666C20.8293 11.4981 20.5696 11.2331 20.2922 10.9813C20.2746 10.862 20.0502 8.95833 21.4676 7.78333C22.1981 7.17822 23.1665 6.93079 24.126 7.06335C25.2219 7.20901 26.3575 7.04565 27.3215 6.50231C28.4483 5.87508 29.6103 5.85738 30.2969 6.37417C30.988 6.89982 31.0804 8.05712 31.0981 8.44596C30.8428 8.35746 30.5743 8.30012 30.2969 8.278C28.6464 8.14543 27.5725 9.30716 27.4492 9.44415C25.7326 9.4707 24.2888 11.0961 22.832 11.6306Z" fill="#89A25B"/>
<path d="M41.5782 20.085C41.2481 20.8846 40.2577 21.7768 37.3351 22.1699C37.96 21.4853 38.6731 20.4694 38.5014 19.3916C38.2109 17.5495 35.5656 16.9048 35.7461 15.8048C35.8121 15.4029 36.217 15.1731 36.7145 14.9655C37.5154 14.6342 38.55 14.3604 38.7611 13.5344C38.9592 12.7392 38.2726 11.9354 37.674 11.2331C37.5287 11.0609 37.1809 10.6544 36.7145 10.2746C37.6079 9.89918 38.792 9.56786 39.5622 10.1112C40.3018 10.6369 39.9497 11.4673 40.667 12.8233C41.2393 13.8965 42.0228 14.3826 42.5816 14.8155C42.9999 15.1379 43.2947 15.4294 43.2859 15.9108C43.2815 16.326 43.0571 16.4984 42.7533 16.8782C42.5598 17.1212 42.3352 17.4479 42.1108 17.9824C41.6706 19.0337 41.8246 19.4932 41.5782 20.085Z" fill="#89A25B"/>
<path d="M24.0468 23.5923H22.1366C22.2114 23.261 22.2553 22.912 22.2553 22.5587C22.2553 20.8625 21.3134 19.365 19.8786 18.464V18.4596C19.4031 17.3729 18.8001 16.0919 18.0475 14.674C17.5238 13.6845 17.1231 12.9955 16.8987 12.4699C16.6743 11.9487 16.6214 11.5866 16.7974 11.2464C16.9296 10.9857 17.1672 10.7914 17.4534 10.6499C17.9507 10.4115 18.602 10.3452 19.1214 10.416C19.6893 10.4954 20.0061 10.7296 20.2923 10.9813C20.5696 11.2331 20.8293 11.4981 21.2607 11.666C21.7933 11.8736 22.3126 11.8249 22.832 11.6306C24.2889 11.0961 25.7327 9.4707 27.4492 9.44415C27.6562 9.43973 27.8674 9.46185 28.0831 9.51034C29.2362 9.76662 29.2276 10.5308 30.2575 11.2685H30.2619C30.5172 11.454 30.8384 11.635 31.2565 11.8072C32.7619 12.4256 33.8492 12.218 34.8394 12.629C35.1035 12.7392 35.3588 12.8939 35.6141 13.1192C36.2568 13.6845 36.5604 14.4133 36.7146 14.9655C36.2171 15.1731 35.8122 15.4029 35.7462 15.8048C35.5657 16.9048 38.2111 17.5495 38.5015 19.3916C38.6732 20.4694 37.9601 21.4853 37.3352 22.1699H36.7673C36.8377 22.6515 36.8774 23.124 36.8951 23.5923H24.0468Z" fill="#A7D676"/>
<path d="M18.0476 14.674C18.8002 16.0919 19.4032 17.3729 19.8787 18.4596C18.9807 17.8941 17.8848 17.5628 16.7051 17.5628C16.3265 17.5628 15.9613 17.5982 15.6047 17.6644C15.948 16.0257 16.375 14.2898 16.8988 12.4699C17.1232 12.9955 17.5238 13.6845 18.0476 14.674Z" fill="#D14B62"/>
<path d="M13.1133 18.7511C12.9505 18.8792 12.7965 19.0073 12.6513 19.1486C11.6432 17.903 10.0103 17.0902 8.1616 17.0902C6.24693 17.0902 4.56107 17.9605 3.56201 19.2856C3.56201 19.2679 3.56201 19.2546 3.56201 19.2413C3.56201 17.2095 4.90879 15.4602 6.8411 14.6829C6.97324 14.7801 7.1052 14.8816 7.23734 14.9788C9.31044 16.5159 11.3043 17.7529 13.1133 18.7511Z" fill="#894687"/>
<path d="M22.2552 22.5587C22.2552 22.912 22.2112 23.261 22.1364 23.5923H16.7093C16.7269 23.124 16.7664 22.6515 16.837 22.1699H13.7117C13.7117 22.1435 13.7117 22.1125 13.7117 22.086C13.7117 20.9862 13.3201 19.9746 12.6511 19.1486C12.7963 19.0073 12.9503 18.8792 13.1132 18.7511C13.4918 18.464 13.9143 18.2166 14.3765 18.0267C14.4116 18.009 14.4469 17.9957 14.4866 17.9824C14.8387 17.8412 15.2127 17.7352 15.6045 17.6644C15.9611 17.5982 16.3263 17.5628 16.7049 17.5628C17.8846 17.5628 18.9805 17.8941 19.8785 18.4596V18.464C21.3133 19.365 22.2552 20.8625 22.2552 22.5587Z" fill="#894687"/>
<path d="M3.56205 19.2856C4.5611 17.9605 6.24696 17.0902 8.16163 17.0902C10.0103 17.0902 11.6433 17.903 12.6513 19.1486C13.3203 19.9746 13.7119 20.9862 13.7119 22.086C13.7119 22.1125 13.7119 22.1435 13.7119 22.1699H12.5677C12.4971 22.647 12.4488 23.124 12.4223 23.5923H2.87102C2.70377 23.1151 2.61133 22.6116 2.61133 22.086C2.61133 21.048 2.96346 20.085 3.56205 19.2856Z" fill="#E15C63"/>
<path d="M9.1652 10.9416C9.3148 11.3612 9.46881 11.772 9.62724 12.1695C8.53574 11.8072 7.22848 11.2552 5.842 10.416C4.98373 9.89033 4.24418 9.34699 3.62354 8.83019C4.42465 8.7286 5.43253 8.67108 6.58137 8.78152C7.33856 8.85674 8.01195 8.98912 8.58407 9.13938C8.75573 9.72679 8.94944 10.3277 9.1652 10.9416Z" fill="#4AAF8F"/>
<path d="M16.7357 6.07826C17.8537 5.18608 19.0025 4.91653 19.5614 4.82821C18.8353 6.59505 18.1178 8.55197 17.4532 10.6499C17.1671 10.7914 16.9294 10.9857 16.7973 11.2464C16.6212 11.5866 16.6742 11.9487 16.8986 12.4699C16.3748 14.2898 15.9478 16.0257 15.6045 17.6644C15.2127 17.7352 14.8387 17.8412 14.4866 17.9824V17.978C14.579 14.97 14.6713 11.9575 14.7637 8.94948C14.9839 8.28242 15.5077 7.06335 16.7357 6.07826Z" fill="#4AAF8F"/>
<path d="M14.9575 2.6683C14.8915 4.76202 14.8256 6.85575 14.7638 8.94948C14.6714 11.9575 14.5791 14.97 14.4867 17.978V17.9824C14.447 17.9957 14.4117 18.009 14.3766 18.0267C14.2137 15.8623 13.7295 12.6996 12.255 9.16593C12.1449 8.89638 12.0306 8.63586 11.9116 8.37959V8.37516C11.8501 7.89819 11.6917 6.25507 12.7216 4.64274C13.4742 3.46773 14.4867 2.89802 14.9575 2.6683Z" fill="#53B79A"/>
<path d="M9.62712 12.1695C10.7144 14.9126 11.9996 17.1124 13.1132 18.7511C11.3042 17.7529 9.31027 16.5159 7.23718 14.9788C7.10504 14.8816 6.97308 14.7801 6.84094 14.6829C5.3532 13.5521 4.03712 12.4301 2.87964 11.3568C3.99319 11.3037 5.33133 11.3347 6.8233 11.5556C7.87087 11.7101 8.80854 11.931 9.62712 12.1695Z" fill="#53B79A"/>
<path d="M12.2551 9.16593C13.7296 12.6996 14.2138 15.8623 14.3767 18.0267C13.9145 18.2166 13.4919 18.464 13.1133 18.7511C11.9998 17.1124 10.7146 14.9126 9.62731 12.1695C9.46889 11.772 9.31488 11.3612 9.16528 10.9416C8.94951 10.3277 8.75581 9.72679 8.58415 9.13938C7.68195 6.03419 7.36492 3.28668 7.26807 1.21508C8.62385 2.74333 10.4373 5.11971 11.9118 8.37516V8.37959C12.0307 8.63586 12.145 8.89638 12.2551 9.16593Z" fill="#6FCEAE"/>
<path d="M55.0468 11.5908C55.3418 11.8913 55.355 12.3683 55.1348 12.7262C54.1709 14.3073 53.2069 15.8931 52.2431 17.4789C52.2255 17.4568 52.2079 17.4393 52.1902 17.4171C51.8601 17.0327 51.4815 16.7766 51.125 16.6L53.5063 11.8426C53.5899 11.6749 53.7221 11.5335 53.8761 11.4407C53.8761 11.4407 53.8761 11.4407 53.8761 11.4363C54.1358 11.2772 54.4614 11.2375 54.752 11.379C54.7564 11.379 54.7608 11.3832 54.7652 11.3832C54.8795 11.4407 54.972 11.5113 55.0468 11.5908Z" fill="#4AAF8F"/>
<path d="M53.9773 9.6783C54.391 10.5308 53.9244 11.3524 53.8761 11.4363C53.8761 11.4407 53.8761 11.4407 53.8761 11.4407C53.7221 11.5335 53.5899 11.6749 53.5063 11.8426L51.125 16.6C51.1471 16.5513 51.8116 10.7252 51.8337 10.5176C51.8337 10.5131 51.8337 10.5131 51.8337 10.5131C52.2211 9.93882 52.6083 9.36026 52.9957 8.78594C53.1365 8.84347 53.6868 9.07762 53.9773 9.6783Z" fill="#3FA07F"/>
<path d="M53.5811 5.85295C54.1093 6.24622 54.1885 7.01468 53.8232 7.55802C53.546 7.9688 53.2731 8.37516 52.9958 8.78594C52.6084 9.36026 52.2211 9.93882 51.8337 10.5131C51.8337 10.5131 51.8337 10.5131 51.8337 10.5176C51.1868 11.4805 50.5397 12.4389 49.8928 13.4019H49.8883C49.7342 12.9338 49.4745 12.5009 49.1179 12.143C50.148 10.014 51.1824 7.88049 52.2123 5.75136C52.2211 5.73385 52.23 5.71615 52.2344 5.69845C52.2695 5.68517 52.9605 5.40253 53.5723 5.8441C53.5723 5.84853 53.5767 5.85295 53.5811 5.85295Z" fill="#53B79A"/>
<path d="M47.7272 19.5859C47.8726 19.3429 48.0134 19.1001 48.1541 18.8527C48.6649 17.9647 49.1578 17.0902 49.6331 16.2244C49.7828 16.2289 50.4209 16.2554 51.1252 16.6C51.4818 16.7766 51.8604 17.0327 52.1904 17.4171C52.2081 17.4393 52.2257 17.4568 52.2434 17.4789C52.2961 17.5364 52.34 17.5982 52.3841 17.6599C53.2204 18.8173 53.1235 20.403 52.2785 21.5559C52.1024 21.7989 51.8956 22.0506 51.6578 22.3024C51.0945 22.8987 50.5222 23.3139 50.0732 23.5923H45.3064C46.1163 22.3024 46.9219 20.9685 47.7272 19.5859Z" fill="#DD864A"/>
<path d="M48.2509 8.84347L49.8752 4.10382C50.1525 3.29995 51.1957 3.0304 51.781 3.64879C51.7854 3.65321 51.7943 3.66206 51.7987 3.66649C52.3531 4.26735 52.362 5.00484 52.3225 5.37598C52.3092 5.49085 52.2783 5.59686 52.2344 5.69845C52.23 5.71615 52.2212 5.73385 52.2124 5.75136C51.1824 7.88049 50.1481 10.014 49.118 12.143C48.986 12.0062 48.8364 11.8825 48.6736 11.7676C48.6559 11.7588 48.6427 11.7499 48.6295 11.7366C48.3301 11.5335 48.0265 11.3832 47.7271 11.2685C47.6347 11.2331 47.5422 11.2021 47.45 11.18L48.2509 8.84347Z" fill="#6FCEAE"/>
<path d="M42.7534 16.8782C43.0572 16.4984 43.2816 16.326 43.286 15.9108C43.2948 15.4294 43 15.1379 42.5817 14.8155C42.8855 14.2057 43.1891 13.6006 43.4929 12.9911C44.0255 11.931 45.0466 11.2287 46.1602 11.0917C46.5871 11.0299 47.0229 11.0565 47.45 11.18C47.5423 11.2021 47.6347 11.2331 47.7271 11.2685C48.0265 11.3832 48.3301 11.5335 48.6295 11.7366C48.6428 11.7499 48.656 11.7588 48.6734 11.7676C48.8365 11.8825 48.9861 12.0062 49.118 12.143C49.4746 12.5009 49.7343 12.9338 49.8884 13.4019C50.2009 14.3031 50.1261 15.3367 49.633 16.2244C49.1577 17.0902 48.6648 17.9647 48.1541 18.8527C48.0133 19.1001 47.8725 19.3429 47.7271 19.5859C46.9218 20.9685 46.1163 22.3024 45.3063 23.5923H41.182C41.1557 23.124 41.1072 22.647 41.0368 22.1699H37.3352C40.2578 21.7768 41.2482 20.8846 41.5782 20.085C41.8247 19.4932 41.6707 19.0337 42.1109 17.9824C42.3353 17.4479 42.5598 17.1212 42.7534 16.8782Z" fill="#F69552"/>
<path d="M48.0618 5.36713C48.1233 6.52444 48.1849 7.68616 48.2509 8.84347L47.45 11.18C47.0228 11.0565 46.5871 11.0299 46.1602 11.0917V11.0828L46.257 5.21244C46.2658 4.72662 46.706 4.33797 47.1814 4.43956C47.1859 4.43956 47.1903 4.44398 47.1945 4.44398C47.5775 4.5323 47.8107 4.78857 47.934 4.97405C48.0133 5.09334 48.0574 5.22572 48.0618 5.36713Z" fill="#53B79A"/>
<path d="M41.1821 23.5923C41.7147 32.7622 34.4302 40.1919 26.8022 40.1919C19.1744 40.1919 11.8897 32.7622 12.4223 23.5923C12.4488 23.124 12.4971 22.647 12.5677 22.1699H16.8372C16.7666 22.6515 16.7271 23.124 16.7094 23.5923C16.4145 30.9204 21.9341 36.3975 26.8022 36.3975C31.6705 36.3975 37.1899 30.9204 36.8951 23.5923C36.8775 23.124 36.8378 22.6515 36.7674 22.1699H41.0369C41.1073 22.647 41.1558 23.124 41.1821 23.5923Z" fill="#7F5D46"/>
<path d="M31.098 35.068C29.7204 35.9249 28.2326 36.3975 26.8021 36.3975C21.934 36.3975 16.4144 30.9203 16.7093 23.5923H18.9894C18.9894 23.5923 18.6988 34.423 31.098 35.068Z" fill="#C4A653"/>
<path d="M43.955 23.5923C43.955 23.5923 44.1397 40.1388 27.6384 40.1609C34.9538 39.6485 41.6971 32.4265 41.1819 23.5923H43.955Z" fill="#C4A653"/>
<path d="M51.8602 31.6536C51.8426 37.1883 53.1807 39.8163 52.8462 45.4041C52.6876 48.05 52.2212 50.1922 51.8602 51.5704C43.5105 51.5704 35.1564 51.5704 26.802 51.5704C18.4479 51.5704 10.0938 51.5704 1.74407 51.5704C1.38312 50.1922 0.916488 48.05 0.758066 45.4041C0.661211 43.7873 0.70532 42.4226 0.815223 41.1593C0.876975 41.3447 2.86645 47.1047 25.3805 47.5817C48.6118 48.0719 47.2033 40.1919 47.2033 40.1919C47.2033 40.1919 46.4374 34.1625 48.6118 29.4979C50.7906 24.8291 50.0731 23.5923 50.0731 23.5923H52.8462C52.0407 26.9757 51.869 29.7498 51.8602 31.6536Z" fill="#C4A653"/>
<mask id="mask0_318_3686" style="mask-type:luminance" maskUnits="userSpaceOnUse" x="0" y="0" width="56" height="53">
<path d="M0.235352 0.733496H55.7531V52.0121H0.235352V0.733496Z" fill="white"/>
</mask>
<g mask="url(#mask0_318_3686)">
<path d="M55.36 11.2794C55.2451 11.1619 55.1122 11.0651 54.9432 10.9796C54.8147 10.9173 54.6796 10.885 54.544 10.8673C54.6175 10.4783 54.6179 9.98878 54.3745 9.48692C54.1782 9.08149 53.8899 8.8112 53.6315 8.63273L54.1871 7.80674C54.6941 7.05266 54.5399 6.01778 53.8278 5.48808C53.4652 5.22406 53.0875 5.15732 52.7723 5.16082C52.782 4.67758 52.6808 3.9731 52.1289 3.37591C52.1248 3.37112 52.1029 3.34771 52.0985 3.34273C51.7266 2.95002 51.1842 2.78629 50.6472 2.90411C50.0877 3.02598 49.6434 3.4209 49.4588 3.95945L48.5662 6.56334L48.5011 5.34279C48.4892 5.12026 48.4201 4.90823 48.3008 4.72939C48.1266 4.46869 47.8105 4.13295 47.274 4.00886C46.9311 3.9329 46.5736 4.01808 46.2928 4.24117C45.9965 4.47662 45.8232 4.82821 45.8169 5.20599L45.7273 10.7106C44.6302 10.9606 43.6492 11.6955 43.1004 12.7927L42.4239 14.1449C41.9542 13.7883 41.4511 13.3586 41.0562 12.6152C40.7586 12.0538 40.6633 11.5939 40.5791 11.1889C40.4673 10.6487 40.3613 10.139 39.8164 9.75242C39.1182 9.25738 38.0989 9.26402 36.7837 9.7692C36.3351 9.43401 35.9293 9.24134 35.5662 9.1368C35.2673 8.26693 34.5715 7.58273 33.6903 7.32221C32.9301 7.09728 32.1119 7.21435 31.4384 7.61112C31.3213 7.0416 31.0757 6.41271 30.5595 6.02313C29.7099 5.38299 28.3552 5.42097 27.1076 6.11937C26.2733 6.58712 25.2349 6.76652 24.186 6.62418C23.0873 6.47576 21.9944 6.77407 21.1863 7.44316C20.1964 8.26306 19.916 9.39123 19.8491 10.166C19.6603 10.0834 19.4433 10.0166 19.1792 9.9803C18.8438 9.93366 18.4837 9.94103 18.1329 9.99542C18.6986 8.27357 19.313 6.59376 19.9702 4.99691C20.0308 4.84905 20.0071 4.67942 19.9081 4.55387C19.809 4.42849 19.6493 4.36525 19.4925 4.39236C18.7157 4.51957 17.5595 4.85513 16.4621 5.73459C15.9651 6.13264 15.5757 6.56813 15.2649 7.00196L15.3987 2.68323C15.4035 2.52873 15.3274 2.38289 15.198 2.299C15.0694 2.21456 14.9052 2.20497 14.7667 2.27153C14.0734 2.60856 13.0922 3.25257 12.3528 4.40637C11.873 5.1551 11.6315 5.90734 11.5161 6.58233C10.4404 4.55129 9.13035 2.6541 7.59611 0.92303C7.47188 0.783091 7.27431 0.73663 7.10081 0.807244C6.92787 0.87749 6.81834 1.05025 6.82716 1.2372C6.94331 3.71295 7.32356 6.16085 7.96185 8.54386C7.51893 8.45463 7.07086 8.38751 6.62334 8.34382C5.60793 8.24407 4.57965 8.26122 3.56516 8.39599C3.3913 8.41886 3.24776 8.54257 3.19924 8.71182C3.15091 8.88052 3.20678 9.06213 3.34186 9.17423C4.05587 9.76699 4.82078 10.3122 5.61528 10.7958C5.7329 10.8669 5.85126 10.9372 5.97017 11.0065C4.93877 10.9 3.89652 10.8686 2.86126 10.9151C2.68391 10.923 2.52861 11.0369 2.46741 11.2043C2.40621 11.3714 2.45106 11.5594 2.58173 11.6806C3.67727 12.6983 4.82703 13.6736 6.00748 14.594C4.2606 15.5561 3.15752 17.2753 3.12536 19.1565C2.52549 20.0029 2.1728 21.0074 2.1728 22.086C2.1728 22.4461 2.21599 22.8025 2.29263 23.1522H0.759131C0.624417 23.1522 0.497238 23.2145 0.413615 23.3205C0.330361 23.4266 0.299669 23.5654 0.330912 23.6968C0.965154 26.3608 1.29211 29.0394 1.30185 31.6575C1.31104 34.162 1.03591 36.0807 0.770158 37.9361C0.44394 40.2112 0.135365 42.3606 0.320253 45.4341C0.446145 47.5339 0.781553 49.6371 1.31673 51.684C1.36691 51.8764 1.54169 52.0121 1.74201 52.0121H51.8622C52.0623 52.0121 52.2371 51.8764 52.2877 51.6827C52.823 49.6352 53.1584 47.5323 53.2843 45.4328C53.4687 42.3593 53.1606 40.2103 52.8344 37.9346C52.5685 36.0794 52.293 34.1607 52.3027 31.6562C52.3128 29.0372 52.6394 26.3592 53.2737 23.6956C53.3049 23.5639 53.2746 23.4256 53.191 23.3192C53.1073 23.2132 52.9802 23.1509 52.8454 23.1509H51.4047C51.6032 22.9774 51.7966 22.7971 51.9778 22.605C52.2125 22.3563 52.433 22.0913 52.6332 21.8183C53.6135 20.4818 53.664 18.7374 52.7732 17.4542L55.5118 12.9553C55.8468 12.4037 55.7853 11.7145 55.36 11.2794ZM53.5832 9.87355C53.8473 10.4182 53.6254 10.9619 53.5352 11.1448C53.3648 11.2742 53.2174 11.4394 53.1143 11.6439L51.8635 14.1408C51.9611 13.2937 52.0901 12.1673 52.2601 10.6721L53.1389 9.36505C53.2961 9.4742 53.467 9.63276 53.5832 9.87355ZM50.2802 15.8561C50.5654 15.0677 50.5887 14.2351 50.377 13.4718L51.1921 12.2597C51.0254 13.7142 50.8528 15.2054 50.76 15.9801C50.5891 15.9254 50.4268 15.8843 50.2802 15.8561ZM53.3203 6.2099C53.6434 6.45013 53.7056 6.94536 53.4582 7.31281L49.9611 12.5114C49.8665 12.3569 49.7608 12.2084 49.6428 12.0679L52.5492 6.06498C52.7252 6.02663 53.0351 6.00285 53.3203 6.2099ZM50.2925 4.24652C50.3761 4.00223 50.579 3.82339 50.8358 3.76734C51.0743 3.71332 51.3013 3.78264 51.4757 3.96683C51.9074 4.43476 51.9162 5.01959 51.8833 5.32694C51.8749 5.40548 51.8519 5.48329 51.8159 5.55833L48.9685 11.4398C48.9531 11.4287 48.9391 11.416 48.9237 11.4053L48.8757 11.3723C48.6028 11.1872 48.31 11.036 48.008 10.9119L48.663 9.00074C48.663 9.00074 48.663 9.00018 48.663 8.99981L50.2925 4.24652ZM46.8399 4.93423C46.8825 4.9003 46.9711 4.84462 47.0961 4.87412C47.3337 4.92888 47.4852 5.09334 47.5706 5.22056C47.6022 5.26776 47.6199 5.32473 47.6234 5.39018L47.8051 8.78779L47.1621 10.6632C46.9781 10.6332 46.7938 10.6195 46.6098 10.6173L46.6978 5.22056C46.6995 5.11012 46.7528 5.00318 46.8399 4.93423ZM47.5719 11.6819C47.8553 11.7888 48.1279 11.9306 48.3796 12.1019L48.4204 12.1303C49.6424 12.9822 49.9984 14.6506 49.249 16.0111C48.7726 16.8747 48.281 17.7479 47.7726 18.6292C46.8963 20.1495 45.9838 21.6682 45.0603 23.1505H41.5871C41.5585 22.8025 41.5224 22.4544 41.4717 22.1063C41.4401 21.8894 41.2549 21.7287 41.036 21.7287H40.5298C41.2512 21.3439 41.7342 20.8559 41.9823 20.2568C42.1096 19.9508 42.1466 19.6853 42.1861 19.4043C42.2346 19.0593 42.2852 18.7024 42.5164 18.153C42.6395 17.8602 42.7623 17.638 42.8799 17.4568L44.9328 18.6242C45.0013 18.6631 45.0757 18.6817 45.1493 18.6817C45.3029 18.6817 45.4516 18.6008 45.5326 18.4577C45.6525 18.2457 45.5784 17.9758 45.3667 17.8558L43.4261 16.7519C43.5915 16.532 43.7209 16.2867 43.7275 15.9171C43.7369 15.3728 43.4794 15.012 43.1311 14.6993L43.8868 13.1889C44.5722 11.8214 46.1898 11.1607 47.5719 11.6819ZM12.9527 22.612H16.3397C16.3062 22.9293 16.2873 23.2459 16.2746 23.5617C16.2737 23.5724 16.2684 23.5816 16.2684 23.5927C16.2684 23.6006 16.2724 23.6072 16.2728 23.6152C16.1478 27.1158 17.2989 30.5037 19.5392 33.0923C21.5693 35.4376 24.2842 36.8374 26.8018 36.8374C29.3195 36.8374 32.0344 35.4373 34.0645 33.0923C36.3048 30.5042 37.4558 27.1158 37.3309 23.6152C37.3312 23.6072 37.3353 23.6006 37.3353 23.5927C37.3353 23.5816 37.3299 23.5728 37.329 23.5617C37.3167 23.2459 37.2974 22.9293 37.264 22.612H40.6513C41.1826 27.0063 39.8485 31.4172 36.9611 34.768C34.2343 37.9329 30.5312 39.7479 26.8015 39.7479C23.0719 39.7479 19.3688 37.9329 16.6422 34.768C13.7557 31.4172 12.4214 27.0067 12.9527 22.612ZM16.7041 18.0064C19.5216 18.0064 21.8139 20.0489 21.8139 22.5591C21.8139 22.7578 21.7946 22.9553 21.7659 23.1515H17.1796C17.2016 22.8458 17.2307 22.5392 17.2737 22.2326C17.2919 22.1063 17.254 21.9778 17.1704 21.8815C17.0868 21.7847 16.9657 21.729 16.8379 21.729H14.1337C14.0677 20.8107 13.7513 19.9561 13.2427 19.2175C14.1826 18.4457 15.4211 18.0064 16.7041 18.0064ZM17.198 14.0216C17.3384 14.2804 17.4935 14.5655 17.6607 14.8813C18.1189 15.7465 18.549 16.6343 18.963 17.527C18.2654 17.2682 17.5036 17.1225 16.7041 17.1225C16.5237 17.1225 16.3454 17.1326 16.1677 17.1468C16.4229 15.989 16.706 14.8308 17.0167 13.686C17.0757 13.7959 17.1333 13.9028 17.198 14.0216ZM24.0447 24.0344H26.0369C26.0376 24.0344 26.0386 24.0348 26.0395 24.0348C26.0408 24.0348 26.0421 24.0344 26.0433 24.0344H28.046C28.0505 24.0344 28.0549 24.0348 28.0593 24.0348C28.0602 24.0348 28.0608 24.0344 28.0615 24.0344H36.4594C36.4812 27.1737 35.4103 30.1901 33.4003 32.5126C31.5352 34.6677 29.0686 35.9541 26.8022 35.9541C24.5359 35.9541 22.0692 34.6677 20.2043 32.5126C18.1937 30.1901 17.1228 27.1737 17.1452 24.0344H24.0447ZM39.3089 10.4733C39.5602 10.6518 39.616 10.8767 39.7182 11.3683C39.8098 11.8087 39.9233 12.3569 40.2799 13.03C40.8226 14.0531 41.5572 14.6003 42.0937 14.9996C42.6457 15.4104 42.8534 15.5946 42.8481 15.902C42.8451 16.0756 42.7847 16.1542 42.5766 16.402C42.4076 16.6029 42.1936 16.8601 41.9705 17.2634C41.9172 17.0478 41.8547 16.8295 41.7724 16.6079C41.5778 16.0858 41.3107 15.5902 40.9784 15.1348C40.8349 14.9383 40.5598 14.8949 40.3635 15.0393C40.1676 15.1833 40.1249 15.4598 40.2683 15.6564C40.5528 16.0465 40.7816 16.4709 40.9479 16.9171C41.3881 18.0986 41.3076 19.2061 41.1562 19.9441C40.8349 20.6761 39.9031 21.2128 38.3753 21.5436C38.8612 20.7723 39.05 20.028 38.9379 19.3213C38.7552 18.1697 37.8298 17.4488 37.0864 16.8694C36.6204 16.5067 36.1388 16.1313 36.1811 15.8763C36.2228 15.6263 36.7655 15.4156 37.245 15.2301C38.0065 14.9355 38.9537 14.5684 39.1873 13.6417C39.444 12.624 38.6486 11.6939 38.0099 10.946C37.8519 10.7604 37.697 10.5917 37.5455 10.4388C38.334 10.1999 38.9364 10.2091 39.3089 10.4733ZM37.341 11.5215C37.8739 12.1452 38.4782 12.8525 38.3334 13.4258C38.2151 13.8962 37.5935 14.1484 36.9787 14.387C36.7299 13.7424 36.3748 13.2028 35.906 12.7888C35.6983 12.6056 35.4888 12.4655 35.2784 12.3534V11.2442C35.2784 10.9999 35.0812 10.8024 34.8382 10.8024C34.5952 10.8024 34.398 10.9999 34.398 11.2442V12.0331C34.0942 11.9638 33.7862 11.9234 33.471 11.8828C32.9494 11.8157 32.4086 11.7385 31.7971 11.5338C32.2748 11.4151 32.7215 11.237 33.1356 10.9958C33.5684 10.7445 33.8281 10.5069 34.0367 10.3157C34.2703 10.1018 34.3879 9.99413 34.6406 9.94103C35.0679 9.85106 35.9879 9.93716 37.341 11.5215ZM32.6247 10.2648C31.9798 10.6239 31.232 10.8113 30.3983 10.8227C30.1033 10.59 29.9063 10.3537 29.717 10.1213C29.4182 9.75519 29.1096 9.37833 28.4849 9.16372C28.9181 8.89859 29.5264 8.65614 30.2592 8.71846C31.2509 8.79829 32.1268 9.38146 32.6247 10.2648ZM33.4416 8.16885C33.92 8.31026 34.3184 8.63494 34.5684 9.05937C34.5322 9.06508 34.4945 9.06914 34.4605 9.07614C33.9727 9.17829 33.7162 9.41373 33.4438 9.66245C33.4129 9.69066 33.3795 9.72015 33.347 9.74984C32.9957 9.15745 32.5058 8.67919 31.9324 8.34603C32.3891 8.09289 32.9336 8.01914 33.4416 8.16885ZM21.7466 8.12386C22.3664 7.61057 23.2123 7.38361 24.068 7.49921C25.3049 7.66754 26.5368 7.45072 27.5364 6.89023C28.466 6.3703 29.4684 6.3054 30.0304 6.72946C30.3623 6.97983 30.5189 7.46934 30.5929 7.87791C30.5053 7.86463 30.4194 7.84472 30.3301 7.83772C28.7509 7.71087 27.6482 8.61909 27.2486 9.01475C26.138 9.10048 25.1557 9.74062 24.2674 10.3232C23.8879 10.5723 23.5275 10.8072 23.1789 10.9914C23.1609 10.6809 23.1859 10.3173 23.3088 9.92997C23.4161 9.58999 23.5847 9.27361 23.8096 8.98838C23.9607 8.79664 23.9285 8.51879 23.7374 8.36779C23.5468 8.21623 23.2704 8.24794 23.119 8.43969C22.8277 8.80936 22.609 9.22106 22.4693 9.66281C22.2721 10.2865 22.2669 10.862 22.3245 11.3153C22.0183 11.3775 21.717 11.373 21.4182 11.2565C21.1251 11.142 20.9328 10.9698 20.7127 10.7702C20.6862 10.3218 20.7013 8.98912 21.7466 8.12386ZM19.059 10.8537C19.5067 10.916 19.7461 11.0895 20.0023 11.3166C20.0027 11.317 20.0033 11.317 20.0033 11.3174C20.0396 11.3502 20.0771 11.3837 20.115 11.4182C20.3668 11.6461 20.6524 11.905 21.1001 12.079C22.4162 12.593 23.6027 11.8144 24.7499 11.0626C25.8287 10.354 26.8476 9.68623 27.9889 9.93974C28.529 10.0594 28.72 10.2936 29.0361 10.6815C29.416 11.147 29.889 11.7265 31.0877 12.218C31.9693 12.5794 32.7074 12.6749 33.3589 12.7592C33.8632 12.8241 34.2791 12.8784 34.664 13.037C34.6656 13.0379 34.6675 13.0389 34.6691 13.0398C34.8946 13.1334 35.1098 13.2627 35.325 13.4528C35.6921 13.7765 35.972 14.2098 36.1697 14.7336C35.7387 14.9572 35.3932 15.2497 35.3131 15.7323C35.1846 16.5067 35.8461 17.0222 36.5468 17.5681C37.2 18.077 37.9405 18.6539 38.0689 19.4609C38.175 20.1296 37.8576 20.8925 37.1359 21.7296H36.7665C36.6389 21.7296 36.5178 21.7853 36.4342 21.8819C36.3506 21.9783 36.3127 22.1068 36.3307 22.2331C36.3739 22.5397 36.4026 22.8461 36.425 23.1518H28.5263L29.0289 14.7342C29.099 13.5617 28.6329 12.4448 27.7472 11.6669C27.7421 11.662 27.7288 11.6509 27.7231 11.6461C27.536 11.4958 27.2707 11.5287 27.117 11.7128C26.9634 11.897 26.9906 12.1762 27.171 12.3344C27.8472 12.9279 28.2047 13.7835 28.1508 14.6811L27.6452 23.1515H26.3986C26.186 22.1382 26.0275 21.1059 25.9334 20.0771C25.8397 19.0523 25.8048 18.0099 25.8291 16.9798C25.8347 16.7359 25.6429 16.5336 25.3995 16.5279C25.1689 16.5244 24.9544 16.7152 24.9493 16.9595C24.9237 18.0232 24.9597 19.0995 25.057 20.1584C25.1487 21.1593 25.2996 22.1632 25.4999 23.1515H24.4742C24.4448 21.631 24.2538 20.1169 23.8885 18.6441C23.5597 17.3194 23.0943 16.0213 22.5055 14.7867C22.4007 14.5662 22.1375 14.474 21.9187 14.5787C21.6996 14.6838 21.6066 14.9478 21.7119 15.1678C22.2752 16.3494 22.7203 17.5906 23.0346 18.858C23.3827 20.2609 23.5648 21.7034 23.5944 23.1518H22.6591C22.6825 22.9557 22.6955 22.7578 22.6955 22.5595C22.6955 20.7587 21.7215 19.1641 20.2308 18.1742C19.6805 16.9223 19.0794 15.6759 18.4392 14.4674C18.2707 14.1484 18.1139 13.8608 17.9722 13.5997C17.2825 12.3303 17.0096 11.8015 17.191 11.4474C17.4323 10.9707 18.3518 10.7556 19.059 10.8537ZM17.0114 6.42321C17.6324 5.92596 18.276 5.62949 18.8355 5.45323C18.2099 7.02851 17.6245 8.67292 17.0881 10.3549C16.7984 10.5281 16.5545 10.7525 16.4058 11.0441C16.1765 11.4933 16.216 11.93 16.4353 12.4929C15.9831 14.0724 15.5805 15.6842 15.234 17.293C15.1372 17.315 15.039 17.3349 14.944 17.3609L15.2019 9.03079C15.452 8.29256 15.9651 7.26155 17.0114 6.42321ZM13.0937 4.88297C13.5127 4.22882 14.0245 3.76678 14.4947 3.44616L14.1751 13.7544C13.8075 12.1306 13.3048 10.5391 12.6609 8.99502C12.5601 8.75331 12.4513 8.51565 12.3444 8.27763C12.2701 7.68708 12.2128 6.25673 13.0937 4.88297ZM7.79552 2.52246C9.46282 4.5924 10.8232 6.87824 11.8483 9.33592C12.9685 12.022 13.6579 14.852 13.9069 17.7523C13.6743 17.8646 13.4475 17.9887 13.2313 18.1292C11.7202 15.8406 10.4905 13.3763 9.58026 10.7936C9.37423 10.2097 9.18457 9.62004 9.01163 9.02636C9.00979 9.01917 9.00758 9.01309 9.00593 9.00645C8.39098 6.89189 7.98611 4.72128 7.79552 2.52246ZM4.77869 9.17423C5.3657 9.1486 5.95473 9.16501 6.53843 9.22161C7.10743 9.27766 7.67753 9.37354 8.2355 9.50684C8.39448 10.0375 8.56613 10.5648 8.75065 11.0882C8.79072 11.2012 8.83115 11.3144 8.87213 11.4271C7.90028 11.0445 6.96169 10.5793 6.07217 10.0382C5.6298 9.76975 5.19717 9.48084 4.77869 9.17423ZM6.75879 11.9933C7.61413 12.1196 8.46707 12.3021 9.29778 12.5361C9.98734 14.243 10.8136 15.8937 11.7678 17.4706C10.2981 16.5924 8.86772 15.6379 7.49871 14.6215C6.29841 13.7301 5.12586 12.7765 4.00165 11.7772C4.92517 11.787 5.84869 11.8591 6.75879 11.9933ZM6.78709 15.1883C6.84995 15.2355 6.91207 15.2849 6.97492 15.3317C7.60788 15.8022 8.25811 16.2536 8.91514 16.6962C8.66832 16.668 8.41818 16.6485 8.16291 16.6485C6.63786 16.6485 5.24826 17.1728 4.18966 18.0276C4.56826 16.8146 5.50133 15.7747 6.78709 15.1883ZM3.05369 22.0847C3.05369 19.5745 5.34604 17.532 8.16346 17.532C10.8462 17.532 13.0477 19.3849 13.253 21.7287H12.5677C12.3488 21.7287 12.1635 21.8894 12.1319 22.1063C12.0812 22.4544 12.0452 22.8025 12.0165 23.1505H3.19575C3.10202 22.8034 3.05369 22.4461 3.05369 22.0847ZM51.9629 38.0605C52.2829 40.2903 52.5848 42.396 52.4056 45.3788C52.2895 47.3088 51.9923 49.2412 51.5205 51.1286H2.08349C1.61208 49.2416 1.31453 47.3092 1.19838 45.3788C1.01919 42.396 1.32115 40.2903 1.64112 38.0605C1.91183 36.174 2.19173 34.2225 2.18218 31.6527C2.1728 29.145 1.88022 26.5848 1.31232 24.0344H2.86788C2.8688 24.0344 2.86972 24.0348 2.87045 24.0348C2.87137 24.0348 2.87229 24.0344 2.87321 24.0344H11.9676C11.8502 28.1574 13.2617 32.1951 15.9771 35.3458C18.8715 38.7045 22.817 40.6314 26.8022 40.6314C30.7874 40.6314 34.7331 38.7051 37.6275 35.3462C40.3424 32.1955 41.7544 28.1574 41.6368 24.0348H52.2917C51.724 26.5848 51.4316 29.145 51.422 31.653C51.4123 34.2225 51.6922 36.174 51.9629 38.0605ZM51.9232 21.2945C51.7442 21.5388 51.5474 21.7755 51.3375 21.998C50.9219 22.4385 50.4518 22.8246 49.9422 23.1509H46.0939C46.7087 22.1559 47.3135 21.1492 47.909 20.1353L49.3335 20.7154C49.3875 20.7375 49.4434 20.7476 49.4985 20.7476C49.6724 20.7476 49.8374 20.6438 49.9065 20.472C49.9981 20.2458 49.8893 19.9884 49.6639 19.8964L48.3611 19.3659C48.4179 19.2679 48.4778 19.1698 48.534 19.0717C48.9966 18.2691 49.4421 17.4754 49.8782 16.6874C50.3439 16.7409 51.1943 16.9435 51.8604 17.7086C51.9203 17.7776 51.9756 17.8473 52.0263 17.9181C52.7195 18.8786 52.6773 20.267 51.9232 21.2945ZM54.7596 12.4946L52.1601 16.7646C52.0112 16.6339 51.8591 16.5196 51.7058 16.4215L53.9005 12.041C54.029 11.7857 54.3301 11.6638 54.5686 11.779C54.6311 11.8109 54.6844 11.8497 54.732 11.8987C54.8715 12.0414 54.8829 12.292 54.7596 12.4946Z" fill="#3A322B"/>
</g>
<path d="M30.083 22.5768C30.1394 22.6011 30.1979 22.612 30.2556 22.612C30.4269 22.612 30.5897 22.5113 30.6605 22.3435C30.9933 21.56 31.2593 20.7423 31.4506 19.9144C31.6452 19.0735 31.7658 18.2099 31.8099 17.3478C31.8222 17.1039 31.6355 16.8968 31.3925 16.8839C31.1615 16.8681 30.9431 17.0589 30.9308 17.3026C30.8895 18.1128 30.7759 18.9242 30.5932 19.714C30.4133 20.4923 30.1632 21.2604 29.8507 21.9973C29.7555 22.222 29.8595 22.4813 30.083 22.5768Z" fill="#3A322B"/>
<path d="M33.2122 22.4809C33.3504 22.4809 33.4864 22.416 33.5722 22.2936C33.9205 21.7989 34.2311 21.2727 34.4961 20.7303C34.7703 20.1704 34.9997 19.5846 35.1788 18.9891C35.2487 18.7555 35.1171 18.509 34.8842 18.4387C34.6519 18.3676 34.4064 18.5007 34.3358 18.7339C34.1708 19.2837 33.9591 19.8248 33.706 20.3416C33.4614 20.8426 33.1743 21.328 32.853 21.7853C32.713 21.9844 32.7601 22.26 32.9587 22.4009C33.0361 22.4544 33.1245 22.4809 33.2122 22.4809Z" fill="#3A322B"/>
</g>
<defs>
<clipPath id="clip0_318_3686">
<rect width="56" height="52" fill="white"/>
</clipPath>
</defs>
</svg>
