<svg width="43" height="45" viewBox="0 0 43 45" fill="none" xmlns="http://www.w3.org/2000/svg">
<g filter="url(#filter0_d_304_3414)">
<circle cx="21.5" cy="19.5" r="17.5" fill="white"/>
</g>
<path d="M18.286 19.9216C18.286 17.9111 19.9164 16.2808 21.9281 16.2808C23.9399 16.2808 25.5711 17.9111 25.5711 19.9216C25.5711 21.9321 23.9399 23.5624 21.9281 23.5624C19.9164 23.5624 18.286 21.9321 18.286 19.9216ZM16.3167 19.9216C16.3167 23.0189 18.8289 25.5297 21.9281 25.5297C25.0274 25.5297 27.5396 23.0189 27.5396 19.9216C27.5396 16.8242 25.0274 14.3135 21.9281 14.3135C18.8289 14.3135 16.3167 16.8242 16.3167 19.9216ZM26.4504 14.0911C26.4503 14.3503 26.5271 14.6037 26.6711 14.8193C26.8151 15.0349 27.0198 15.203 27.2594 15.3023C27.499 15.4016 27.7627 15.4276 28.0171 15.3772C28.2715 15.3267 28.5052 15.202 28.6887 15.0187C28.8721 14.8355 28.9971 14.602 29.0478 14.3478C29.0985 14.0936 29.0727 13.8301 28.9735 13.5906C28.8743 13.3511 28.7063 13.1463 28.4908 13.0022C28.2752 12.8581 28.0216 12.7812 27.7623 12.7811H27.7618C27.4141 12.7812 27.0807 12.9193 26.8348 13.1649C26.589 13.4105 26.4507 13.7437 26.4504 14.0911ZM17.5132 28.8115C16.4477 28.763 15.8686 28.5856 15.4838 28.4358C14.9736 28.2373 14.6095 28.0008 14.2268 27.6189C13.844 27.2369 13.6071 26.8734 13.4093 26.3635C13.2593 25.979 13.0819 25.4001 13.0334 24.3353C12.9804 23.1841 12.9699 22.8383 12.9699 19.9217C12.9699 17.0051 12.9813 16.6602 13.0334 15.508C13.0819 14.4432 13.2607 13.8654 13.4093 13.4799C13.608 12.97 13.8446 12.6061 14.2268 12.2236C14.609 11.8411 14.9727 11.6043 15.4838 11.4067C15.8684 11.2567 16.4477 11.0794 17.5132 11.031C18.6651 10.978 19.0111 10.9675 21.9281 10.9675C24.8452 10.9675 25.1915 10.9789 26.3444 11.031C27.4099 11.0795 27.988 11.2581 28.3738 11.4067C28.884 11.6043 29.2481 11.8416 29.6308 12.2236C30.0136 12.6056 30.2496 12.97 30.4482 13.4799C30.5983 13.8643 30.7757 14.4432 30.8242 15.508C30.8771 16.6602 30.8877 17.0051 30.8877 19.9217C30.8877 22.8383 30.8771 23.1831 30.8242 24.3353C30.7756 25.4001 30.5973 25.9789 30.4482 26.3635C30.2496 26.8734 30.013 27.2372 29.6308 27.6189C29.2486 28.0005 28.884 28.2373 28.3738 28.4358C27.9891 28.5857 27.4099 28.7631 26.3444 28.8115C25.1925 28.8644 24.8465 28.875 21.9281 28.875C19.0098 28.875 18.6647 28.8644 17.5132 28.8115ZM17.4227 9.06614C16.2593 9.11909 15.4644 9.30345 14.7701 9.57343C14.0511 9.85223 13.4425 10.2263 12.8343 10.8332C12.226 11.4401 11.8527 12.0493 11.5738 12.7679C11.3036 13.4621 11.1192 14.2562 11.0662 15.4188C11.0123 16.5833 11 16.9556 11 19.9216C11 22.8875 11.0123 23.2598 11.0662 24.4243C11.1192 25.5871 11.3036 26.381 11.5738 27.0753C11.8527 27.7934 12.2261 28.4034 12.8343 29.01C13.4424 29.6166 14.0511 29.9901 14.7701 30.2697C15.4657 30.5397 16.2593 30.7241 17.4227 30.777C18.5885 30.83 18.9604 30.8432 21.9281 30.8432C24.8959 30.8432 25.2684 30.8308 26.4336 30.777C27.597 30.7241 28.3915 30.5397 29.0862 30.2697C29.8047 29.9901 30.4138 29.6169 31.022 29.01C31.6302 28.4031 32.0027 27.7934 32.2825 27.0753C32.5526 26.381 32.738 25.587 32.7901 24.4243C32.8431 23.259 32.8554 22.8875 32.8554 19.9216C32.8554 16.9556 32.8431 16.5833 32.7901 15.4188C32.7371 14.2561 32.5526 13.4617 32.2825 12.7679C32.0027 12.0497 31.6293 11.441 31.022 10.8332C30.4148 10.2253 29.8047 9.85223 29.087 9.57343C28.3915 9.30345 27.597 9.11822 26.4345 9.06614C25.2693 9.01319 24.8967 9 21.929 9C18.9613 9 18.5885 9.01232 17.4227 9.06614Z" fill="url(#paint0_radial_304_3414)"/>
<path d="M18.286 19.9216C18.286 17.9111 19.9164 16.2808 21.9281 16.2808C23.9399 16.2808 25.5711 17.9111 25.5711 19.9216C25.5711 21.9321 23.9399 23.5624 21.9281 23.5624C19.9164 23.5624 18.286 21.9321 18.286 19.9216ZM16.3167 19.9216C16.3167 23.0189 18.8289 25.5297 21.9281 25.5297C25.0274 25.5297 27.5396 23.0189 27.5396 19.9216C27.5396 16.8242 25.0274 14.3135 21.9281 14.3135C18.8289 14.3135 16.3167 16.8242 16.3167 19.9216ZM26.4504 14.0911C26.4503 14.3503 26.5271 14.6037 26.6711 14.8193C26.8151 15.0349 27.0198 15.203 27.2594 15.3023C27.499 15.4016 27.7627 15.4276 28.0171 15.3772C28.2715 15.3267 28.5052 15.202 28.6887 15.0187C28.8721 14.8355 28.9971 14.602 29.0478 14.3478C29.0985 14.0936 29.0727 13.8301 28.9735 13.5906C28.8743 13.3511 28.7063 13.1463 28.4908 13.0022C28.2752 12.8581 28.0216 12.7812 27.7623 12.7811H27.7618C27.4141 12.7812 27.0807 12.9193 26.8348 13.1649C26.589 13.4105 26.4507 13.7437 26.4504 14.0911ZM17.5132 28.8115C16.4477 28.763 15.8686 28.5856 15.4838 28.4358C14.9736 28.2373 14.6095 28.0008 14.2268 27.6189C13.844 27.2369 13.6071 26.8734 13.4093 26.3635C13.2593 25.979 13.0819 25.4001 13.0334 24.3353C12.9804 23.1841 12.9699 22.8383 12.9699 19.9217C12.9699 17.0051 12.9813 16.6602 13.0334 15.508C13.0819 14.4432 13.2607 13.8654 13.4093 13.4799C13.608 12.97 13.8446 12.6061 14.2268 12.2236C14.609 11.8411 14.9727 11.6043 15.4838 11.4067C15.8684 11.2567 16.4477 11.0794 17.5132 11.031C18.6651 10.978 19.0111 10.9675 21.9281 10.9675C24.8452 10.9675 25.1915 10.9789 26.3444 11.031C27.4099 11.0795 27.988 11.2581 28.3738 11.4067C28.884 11.6043 29.2481 11.8416 29.6308 12.2236C30.0136 12.6056 30.2496 12.97 30.4482 13.4799C30.5983 13.8643 30.7757 14.4432 30.8242 15.508C30.8771 16.6602 30.8877 17.0051 30.8877 19.9217C30.8877 22.8383 30.8771 23.1831 30.8242 24.3353C30.7756 25.4001 30.5973 25.9789 30.4482 26.3635C30.2496 26.8734 30.013 27.2372 29.6308 27.6189C29.2486 28.0005 28.884 28.2373 28.3738 28.4358C27.9891 28.5857 27.4099 28.7631 26.3444 28.8115C25.1925 28.8644 24.8465 28.875 21.9281 28.875C19.0098 28.875 18.6647 28.8644 17.5132 28.8115ZM17.4227 9.06614C16.2593 9.11909 15.4644 9.30345 14.7701 9.57343C14.0511 9.85223 13.4425 10.2263 12.8343 10.8332C12.226 11.4401 11.8527 12.0493 11.5738 12.7679C11.3036 13.4621 11.1192 14.2562 11.0662 15.4188C11.0123 16.5833 11 16.9556 11 19.9216C11 22.8875 11.0123 23.2598 11.0662 24.4243C11.1192 25.5871 11.3036 26.381 11.5738 27.0753C11.8527 27.7934 12.2261 28.4034 12.8343 29.01C13.4424 29.6166 14.0511 29.9901 14.7701 30.2697C15.4657 30.5397 16.2593 30.7241 17.4227 30.777C18.5885 30.83 18.9604 30.8432 21.9281 30.8432C24.8959 30.8432 25.2684 30.8308 26.4336 30.777C27.597 30.7241 28.3915 30.5397 29.0862 30.2697C29.8047 29.9901 30.4138 29.6169 31.022 29.01C31.6302 28.4031 32.0027 27.7934 32.2825 27.0753C32.5526 26.381 32.738 25.587 32.7901 24.4243C32.8431 23.259 32.8554 22.8875 32.8554 19.9216C32.8554 16.9556 32.8431 16.5833 32.7901 15.4188C32.7371 14.2561 32.5526 13.4617 32.2825 12.7679C32.0027 12.0497 31.6293 11.441 31.022 10.8332C30.4148 10.2253 29.8047 9.85223 29.087 9.57343C28.3915 9.30345 27.597 9.11822 26.4345 9.06614C25.2693 9.01319 24.8967 9 21.929 9C18.9613 9 18.5885 9.01232 17.4227 9.06614Z" fill="url(#paint1_radial_304_3414)"/>
<defs>
<filter id="filter0_d_304_3414" x="0" y="2" width="43" height="43" filterUnits="userSpaceOnUse" color-interpolation-filters="sRGB">
<feFlood flood-opacity="0" result="BackgroundImageFix"/>
<feColorMatrix in="SourceAlpha" type="matrix" values="0 0 0 0 0 0 0 0 0 0 0 0 0 0 0 0 0 0 127 0" result="hardAlpha"/>
<feOffset dy="4"/>
<feGaussianBlur stdDeviation="2"/>
<feComposite in2="hardAlpha" operator="out"/>
<feColorMatrix type="matrix" values="0 0 0 0 0 0 0 0 0 0 0 0 0 0 0 0 0 0 0.25 0"/>
<feBlend mode="normal" in2="BackgroundImageFix" result="effect1_dropShadow_304_3414"/>
<feBlend mode="normal" in="SourceGraphic" in2="effect1_dropShadow_304_3414" result="shape"/>
</filter>
<radialGradient id="paint0_radial_304_3414" cx="0" cy="0" r="1" gradientUnits="userSpaceOnUse" gradientTransform="translate(13.9037 30.9464) scale(28.5315 28.5144)">
<stop offset="0.09" stop-color="#FA8F21"/>
<stop offset="0.78" stop-color="#D82D7E"/>
</radialGradient>
<radialGradient id="paint1_radial_304_3414" cx="0" cy="0" r="1" gradientUnits="userSpaceOnUse" gradientTransform="translate(24.2549 31.9249) scale(22.4868 22.4733)">
<stop offset="0.64" stop-color="#8C3AAA" stop-opacity="0"/>
<stop offset="1" stop-color="#8C3AAA"/>
</radialGradient>
</defs>
</svg>
