<svg width="22" height="22" viewBox="0 0 22 22" fill="none" xmlns="http://www.w3.org/2000/svg">
<path d="M0.935265 0C0.687218 0 0.449329 0.0965773 0.273933 0.268486C0.0985368 0.440394 0 0.673552 0 0.916667C0 1.15978 0.0985368 1.39294 0.273933 1.56485C0.449329 1.73676 0.687218 1.83333 0.935265 1.83333H1.39542C1.5985 1.83368 1.79595 1.8988 1.95794 2.01886C2.11992 2.13893 2.23763 2.3074 2.29327 2.49883L5.25993 12.6738C5.42772 13.248 5.7817 13.7531 6.26834 14.1126C6.75498 14.4722 7.34782 14.6667 7.95724 14.6667H16.5037C17.0646 14.6668 17.6126 14.5021 18.077 14.1939C18.5415 13.8858 18.9011 13.4482 19.1093 12.9378L21.8665 6.18017C21.9798 5.9021 22.022 5.60105 21.9892 5.30334C21.9564 5.00563 21.8498 4.72031 21.6785 4.47234C21.5072 4.22437 21.2766 4.02128 21.0068 3.88083C20.737 3.74039 20.4362 3.66686 20.1307 3.66667H4.57906L4.09085 1.99467C3.92349 1.42042 3.56994 0.915175 3.08365 0.55531C2.59735 0.195446 2.00475 0.000521342 1.39542 0H0.935265ZM7.05938 12.1678L5.11403 5.5H20.1288L17.3716 12.2577C17.3021 12.4276 17.1823 12.5732 17.0276 12.6758C16.873 12.7784 16.6905 12.8333 16.5037 12.8333H7.95724C7.75415 12.833 7.5567 12.7679 7.39472 12.6478C7.23274 12.5277 7.11503 12.3593 7.05938 12.1678ZM8.41739 22C8.78585 22 9.15071 21.9289 9.49112 21.7907C9.83153 21.6525 10.1408 21.4499 10.4014 21.1945C10.6619 20.9392 10.8686 20.636 11.0096 20.3024C11.1506 19.9687 11.2232 19.6111 11.2232 19.25C11.2232 18.8889 11.1506 18.5313 11.0096 18.1976C10.8686 17.864 10.6619 17.5608 10.4014 17.3055C10.1408 17.0501 9.83153 16.8475 9.49112 16.7093C9.15071 16.5711 8.78585 16.5 8.41739 16.5C7.67324 16.5 6.95958 16.7897 6.43339 17.3055C5.9072 17.8212 5.61159 18.5207 5.61159 19.25C5.61159 19.9793 5.9072 20.6788 6.43339 21.1945C6.95958 21.7103 7.67324 22 8.41739 22ZM8.41739 20.1667C8.16934 20.1667 7.93145 20.0701 7.75606 19.8982C7.58066 19.7263 7.48212 19.4931 7.48212 19.25C7.48212 19.0069 7.58066 18.7737 7.75606 18.6018C7.93145 18.4299 8.16934 18.3333 8.41739 18.3333C8.66544 18.3333 8.90332 18.4299 9.07872 18.6018C9.25412 18.7737 9.35265 19.0069 9.35265 19.25C9.35265 19.4931 9.25412 19.7263 9.07872 19.8982C8.90332 20.0701 8.66544 20.1667 8.41739 20.1667ZM15.8995 22C16.268 22 16.6328 21.9289 16.9732 21.7907C17.3137 21.6525 17.623 21.4499 17.8835 21.1945C18.1441 20.9392 18.3507 20.636 18.4917 20.3024C18.6327 19.9687 18.7053 19.6111 18.7053 19.25C18.7053 18.8889 18.6327 18.5313 18.4917 18.1976C18.3507 17.864 18.1441 17.5608 17.8835 17.3055C17.623 17.0501 17.3137 16.8475 16.9732 16.7093C16.6328 16.5711 16.268 16.5 15.8995 16.5C15.1554 16.5 14.4417 16.7897 13.9155 17.3055C13.3893 17.8212 13.0937 18.5207 13.0937 19.25C13.0937 19.9793 13.3893 20.6788 13.9155 21.1945C14.4417 21.7103 15.1554 22 15.8995 22ZM15.8995 20.1667C15.6515 20.1667 15.4136 20.0701 15.2382 19.8982C15.0628 19.7263 14.9642 19.4931 14.9642 19.25C14.9642 19.0069 15.0628 18.7737 15.2382 18.6018C15.4136 18.4299 15.6515 18.3333 15.8995 18.3333C16.1476 18.3333 16.3854 18.4299 16.5608 18.6018C16.7362 18.7737 16.8348 19.0069 16.8348 19.25C16.8348 19.4931 16.7362 19.7263 16.5608 19.8982C16.3854 20.0701 16.1476 20.1667 15.8995 20.1667Z" fill="black"/>
</svg>
