<svg width="10" height="13" viewBox="0 0 10 13" fill="none" xmlns="http://www.w3.org/2000/svg">
<path d="M5 6.5C5.34375 6.5 5.63812 6.3726 5.88313 6.1178C6.12813 5.863 6.25042 5.55707 6.25 5.2C6.25 4.8425 6.1275 4.53635 5.8825 4.28155C5.6375 4.02675 5.34333 3.89957 5 3.9C4.65625 3.9 4.36188 4.0274 4.11687 4.2822C3.87188 4.537 3.74958 4.84293 3.75 5.2C3.75 5.5575 3.8725 5.86365 4.1175 6.11845C4.3625 6.37325 4.65667 6.50043 5 6.5ZM5 13C3.32292 11.5158 2.07042 10.1374 1.2425 8.8647C0.414583 7.592 0.000416667 6.41377 0 5.33C0 3.705 0.502708 2.41042 1.50813 1.44625C2.51354 0.482083 3.6775 0 5 0C6.32292 0 7.48708 0.482083 8.4925 1.44625C9.49792 2.41042 10.0004 3.705 10 5.33C10 6.41333 9.58583 7.59157 8.7575 8.8647C7.92917 10.1378 6.67667 11.5163 5 13Z" fill="#00A99D"/>
</svg>
