<svg width="16" height="20" viewBox="0 0 16 20" fill="none" xmlns="http://www.w3.org/2000/svg">
<path d="M13.3294 13.8462V14.2686L13.6322 14.5631L14.9927 15.8861C14.9951 15.8884 14.997 15.8904 14.9985 15.8921C14.9981 15.893 14.9977 15.8941 14.9972 15.8953C14.9929 15.9055 14.9864 15.9122 14.9819 15.9153C14.98 15.9165 14.9775 15.918 14.9732 15.9193C14.9692 15.9205 14.9592 15.9231 14.9411 15.9231H1.05096C1.03281 15.9231 1.02331 15.9205 1.02006 15.9195C1.01657 15.9184 1.015 15.9174 1.01412 15.9168C1.01169 15.9152 1.0064 15.9102 1.00258 15.9011C1.00174 15.8991 1.00117 15.8974 1.00079 15.896C1.00269 15.8936 1.00559 15.8903 1.00986 15.8861L2.37039 14.5631L2.67322 14.2686V13.8462V8.71795C2.67322 5.92811 4.15867 3.78297 6.64381 3.21037L7.41928 3.03169V2.2359V1.53846C7.41928 1.2656 7.6517 1 8.0013 1C8.3509 1 8.58332 1.2656 8.58332 1.53846V2.2359V3.03106L9.35805 3.21019C11.834 3.78267 13.3294 5.93923 13.3294 8.71795V13.8462ZM8.34372 18.9487C8.23679 18.9819 8.12193 19 8.0013 19C7.88336 19 7.76813 18.9822 7.65921 18.9487H8.34372Z" stroke="black" stroke-width="2"/>
</svg>
