<svg width="50" height="48" viewBox="0 0 50 48" fill="none" xmlns="http://www.w3.org/2000/svg">
<path d="M41.6506 47.6921C38.698 46.5224 37.3431 43.3733 36.7435 40.397C36.6431 39.9002 36.4658 39.3933 36.5979 38.9055C36.73 38.4177 37.2065 37.9921 37.6965 38.0948C38.1041 38.1806 38.3649 38.5679 38.6528 38.8716C39.0378 39.2765 39.5295 39.5642 40.071 39.7015C40.4233 39.7907 40.8354 39.7975 41.1041 39.5536C41.4744 39.2149 41.3852 38.6187 41.2656 38.1287L40.5983 35.3918C40.4786 34.9029 40.3589 34.4027 40.4007 33.9003C40.4424 33.3978 40.6773 32.8841 41.1131 32.6458C41.549 32.4076 42.188 32.5329 42.4003 32.9936C42.4895 33.1833 42.4974 33.4001 42.5595 33.5999C42.6216 33.7998 42.7695 34.003 42.9761 34.0143C43.1828 34.0256 43.3487 33.8393 43.4616 33.6609C43.85 33.0467 44.042 32.3274 44.2125 31.6172C44.383 30.907 44.541 30.1833 44.8719 29.5352C45.2027 28.8871 45.7368 28.3079 46.4289 28.1012C47.121 27.8946 47.9724 28.1509 48.3133 28.7979C48.6543 29.4449 48.4183 30.2443 48.1124 30.907C47.658 31.8905 47.064 32.8032 46.3487 33.6169C46.2211 33.7625 46.0811 33.9206 46.0653 34.117C46.036 34.4682 46.4232 34.72 46.771 34.7505C47.1651 34.7855 47.5535 34.6534 47.9464 34.6082C48.3393 34.563 48.7932 34.633 49.0235 34.9593C49.3431 35.411 49.0484 36.0376 48.7176 36.4791C48.055 37.3639 47.2449 38.1278 46.3228 38.7373C45.9942 38.9541 45.6453 39.1607 45.4104 39.4825C45.1756 39.8043 45.109 40.2875 45.3664 40.5912C45.6238 40.895 46.1014 40.8984 46.4628 40.7392C46.8241 40.58 47.1131 40.2943 47.4417 40.073C48.0548 39.6586 48.9355 39.4983 49.5057 39.9781C49.8794 40.2943 50.0318 40.8205 49.9957 41.3116C49.9596 41.8028 49.7631 42.2634 49.544 42.6993C48.7605 44.2269 47.6201 45.5818 46.1861 46.4851C44.7522 47.3884 43.3386 47.8874 41.6506 47.6887" fill="#F5F5F5"/>
<path d="M41.9727 45.6595C42.0814 43.9347 42.2891 42.2175 42.5948 40.5165C42.6701 40.0649 42.7476 39.6181 42.8274 39.1763C42.9042 38.7371 42.9809 38.3012 43.0826 37.8789C43.2782 37.0694 43.5186 36.2714 43.8029 35.4887C44.0682 34.7401 44.3483 34.0389 44.6147 33.3852C44.8812 32.7314 45.1431 32.1274 45.4051 31.5865C45.813 30.7309 46.2888 29.9094 46.8277 29.1296C47.0174 28.8541 47.1721 28.6441 47.2794 28.5041C47.3313 28.4379 47.372 28.3848 47.4013 28.3449C47.4143 28.3259 47.4295 28.3085 47.4465 28.293C47.4357 28.3135 47.4233 28.3332 47.4092 28.3517L47.2963 28.5154C47.1947 28.6599 47.0445 28.8722 46.8594 29.1499C46.3345 29.9363 45.8688 30.7605 45.4661 31.6159C45.2098 32.1567 44.9523 32.7608 44.6881 33.4145C44.4239 34.0683 44.1484 34.7694 43.8853 35.5191C43.6046 36.3005 43.3668 37.0965 43.1729 37.9038C43.0724 38.3238 42.9967 38.7563 42.92 39.1966C42.8432 39.6369 42.7664 40.0841 42.6885 40.5357C42.383 42.2331 42.1735 43.9464 42.0607 45.6674" fill="#E0E0E0"/>
<path d="M43.1067 37.8698C43.0666 37.8075 43.0336 37.7408 43.0085 37.6711C42.9509 37.5424 42.873 37.3527 42.7827 37.1167C42.5975 36.6447 42.3638 35.9876 42.1052 35.256C41.8467 34.5243 41.6084 33.8717 41.4176 33.4043C41.3216 33.1705 41.2426 32.982 41.1862 32.8521C41.1525 32.7865 41.1267 32.7172 41.1094 32.6455C41.1539 32.7048 41.1917 32.7688 41.2223 32.8363C41.2889 32.9617 41.377 33.1468 41.4808 33.3783C41.6886 33.8412 41.9415 34.495 42.1967 35.2244C42.4519 35.9537 42.6709 36.5962 42.8437 37.093L43.0435 37.6575C43.0719 37.7259 43.0931 37.7971 43.1067 37.8698Z" fill="#E0E0E0"/>
<path d="M49.1311 35.1943C49.0526 35.2323 48.9705 35.2626 48.8861 35.2847C48.728 35.3366 48.4988 35.4122 48.2177 35.5105C47.6531 35.7092 46.8887 36.0118 46.0566 36.3833C45.2245 36.7547 44.486 37.124 43.9599 37.4062C43.6957 37.5462 43.4845 37.6648 43.3389 37.745C43.2654 37.7916 43.188 37.8317 43.1074 37.8646C43.1732 37.8079 43.2443 37.7576 43.3197 37.7145C43.4608 37.623 43.6674 37.4954 43.9283 37.3486C44.4477 37.0506 45.1838 36.6712 46.0182 36.2975C46.7295 35.9768 47.4568 35.693 48.1974 35.4473C48.4808 35.3535 48.7145 35.288 48.8748 35.2463C48.9583 35.2204 49.0442 35.203 49.1311 35.1943Z" fill="#E0E0E0"/>
<path d="M42.022 45.525C41.9991 45.5053 41.9786 45.4829 41.961 45.4584L41.7995 45.2563C41.6595 45.079 41.4608 44.8182 41.226 44.4941C40.7506 43.8438 40.1228 42.9247 39.4431 41.9029C38.7634 40.8811 38.1435 39.9563 37.6829 39.2969L37.1341 38.5179C37.0743 38.4332 37.0212 38.3632 36.9862 38.3056C36.9512 38.248 36.9365 38.23 36.9399 38.2277C36.9433 38.2254 36.9625 38.248 37.0009 38.2943L37.1624 38.4964C37.3024 38.6726 37.5011 38.9334 37.7359 39.2586C38.2113 39.9089 38.8391 40.8269 39.5199 41.8498C40.2007 42.8728 40.8184 43.7964 41.279 44.4546L41.8278 45.2337L41.9757 45.4471C42.0084 45.4957 42.0254 45.5227 42.022 45.525Z" fill="#E0E0E0"/>
<path d="M49.7583 40.8398C49.7356 40.8612 49.7102 40.8794 49.6827 40.894L49.4569 41.0329L48.6292 41.5365C47.9292 41.9622 46.9706 42.5606 45.9126 43.2234C44.8547 43.8861 43.8882 44.4766 43.1802 44.8876C42.8268 45.0931 42.5378 45.2557 42.3368 45.3652L42.1042 45.4894C42.0778 45.5056 42.0493 45.5181 42.0195 45.5267C42.0422 45.5054 42.0677 45.4871 42.0952 45.4725L42.321 45.3336L43.1486 44.8301C43.8487 44.4044 44.8073 43.806 45.8663 43.1432C46.9254 42.4804 47.8897 41.891 48.5976 41.48C48.951 41.2745 49.2389 41.1108 49.441 41.0013L49.6736 40.8782C49.6999 40.8615 49.7284 40.8486 49.7583 40.8398Z" fill="#E0E0E0"/>
<path d="M3.66644 13.3058L2.1582 21.0723L13.681 23.31L15.1892 15.5435L3.66644 13.3058Z" fill="#EBEBEB"/>
<path d="M15.2079 15.6435C15.1683 15.6753 15.1256 15.7029 15.0803 15.7259L14.7055 15.945L13.3133 16.7353L8.69194 19.3074L8.65468 19.3277L8.62645 19.295L8.55757 19.2148L5.09578 15.1207L4.05589 13.8731L3.777 13.5344C3.74229 13.4962 3.71163 13.4546 3.68555 13.4102C3.72436 13.4448 3.76024 13.4825 3.79281 13.5231L4.0875 13.8528L5.15336 15.079L8.63887 19.1505L8.70774 19.2306L8.64113 19.2182L13.2772 16.6744L14.6851 15.9156L15.0702 15.7146C15.1137 15.6866 15.1599 15.6628 15.2079 15.6435Z" fill="#E0E0E0"/>
<path d="M2.17603 21.1727C2.15684 21.149 3.23061 20.2537 4.57309 19.1709C5.91558 18.0881 7.0187 17.2288 7.03677 17.2514C7.05484 17.274 5.9822 18.1705 4.63971 19.2533C3.29722 20.3361 2.1941 21.1931 2.17603 21.1727Z" fill="#E0E0E0"/>
<path d="M10.8875 17.8985C10.9135 17.885 11.565 19.1089 12.3407 20.6298C13.1164 22.1507 13.7261 23.3972 13.6956 23.4108C13.6651 23.4243 13.0181 22.2015 12.2413 20.6784C11.4645 19.1552 10.8616 17.9121 10.8875 17.8985Z" fill="#E0E0E0"/>
<path d="M19.8345 11.7482L12.5507 12.5104L11.9512 7.44979L19.2349 6.68652L19.8345 11.7482Z" fill="#F5F5F5"/>
<path d="M19.2656 6.74121C19.2485 6.7682 19.2284 6.7932 19.2057 6.81573L19.0251 7.0201L18.3476 7.76417L16.0951 10.2053L16.077 10.2256L16.0533 10.2098L15.9969 10.1736C14.8881 9.442 13.8832 8.78148 13.1493 8.29823L12.2901 7.72239L12.0642 7.56319C12.0364 7.54621 12.0103 7.52654 11.9863 7.50448C12.016 7.51761 12.0443 7.53348 12.071 7.5519L12.3092 7.70094C12.5215 7.8353 12.8173 8.02499 13.1798 8.25758L16.0375 10.1161L16.094 10.1522H16.0522C16.9374 9.20602 17.7357 8.34565 18.3194 7.72578L19.0104 6.99751C19.0894 6.91622 19.1527 6.85073 19.2012 6.80218C19.2211 6.78022 19.2426 6.75983 19.2656 6.74121Z" fill="#E0E0E0"/>
<path d="M12.5805 12.5692C12.5647 12.559 13.0321 11.8071 13.6204 10.8914C14.2086 9.97568 14.6998 9.24177 14.7156 9.25306C14.7314 9.26435 14.2639 10.0141 13.6757 10.9309C13.0874 11.8477 12.5951 12.5794 12.5805 12.5692Z" fill="#E0E0E0"/>
<path d="M17.1291 8.93573C17.1427 8.92331 17.7648 9.55447 18.5202 10.3471C19.2755 11.1397 19.8751 11.7935 19.8638 11.8059C19.8525 11.8183 19.2281 11.1871 18.4727 10.3945C17.7174 9.60189 17.1156 8.94928 17.1291 8.93573Z" fill="#E0E0E0"/>
<path d="M9.74005 5.61384L5.71484 2.82611L7.61623 0L11.6414 2.7866L9.74005 5.61384Z" fill="#F5F5F5"/>
<path d="M11.6326 2.82956C11.6121 2.83602 11.5909 2.84019 11.5694 2.84198L11.3887 2.86683L10.7226 2.94925L8.51634 3.20442H8.49827V3.18749C8.49827 3.17281 8.49037 3.15813 8.48585 3.14345L7.85356 0.954145C7.77679 0.676389 7.71356 0.45057 7.66952 0.287981L7.62097 0.107327C7.61417 0.0864188 7.60963 0.0648433 7.60742 0.0429688C7.61673 0.0625888 7.62428 0.0829916 7.63 0.10394C7.64355 0.149103 7.66275 0.208945 7.68533 0.283465C7.73388 0.443796 7.79824 0.668485 7.88405 0.943983C8.0489 1.50853 8.27471 2.2797 8.52311 3.13216L8.53553 3.17507L8.51295 3.15926L10.7192 2.9165L11.3876 2.84876L11.5694 2.83295C11.5904 2.83031 11.6115 2.82918 11.6326 2.82956Z" fill="#E0E0E0"/>
<path d="M5.70508 2.86957C5.70508 2.85828 6.26962 2.67989 6.96289 2.47326C7.65615 2.26664 8.22972 2.10744 8.23311 2.11873C8.2365 2.13002 7.66857 2.30955 6.97418 2.51617C6.27979 2.72279 5.70847 2.88199 5.70508 2.86957Z" fill="#E0E0E0"/>
<path d="M9.59545 3.01465C9.60787 3.01465 9.64738 3.60516 9.68577 4.33568C9.72416 5.06621 9.74336 5.66011 9.73094 5.66124C9.71852 5.66237 9.67787 5.07072 9.64061 4.3402C9.60335 3.60968 9.58303 3.01465 9.59545 3.01465Z" fill="#E0E0E0"/>
<path d="M42.0954 9.32297C42.097 8.63245 41.9393 7.95087 41.6345 7.33126C41.3297 6.71164 40.886 6.17072 40.338 5.75058C39.79 5.33043 39.1525 5.0424 38.475 4.9089C37.7975 4.7754 37.0983 4.80002 36.4319 4.98085C35.7655 5.16169 35.1498 5.49386 34.6327 5.95151C34.1156 6.40917 33.7111 6.97996 33.4506 7.61948C33.1902 8.259 33.0808 8.94999 33.131 9.63869C33.1812 10.3274 33.3897 10.9952 33.7401 11.5902L33.7525 11.6071C33.9242 11.8973 34.1398 12.1051 34.3577 12.4099L36.9626 15.8615C37.0383 15.9614 37.1361 16.0424 37.2483 16.0982C37.3606 16.154 37.4842 16.183 37.6095 16.183C37.7349 16.183 37.8585 16.154 37.9707 16.0982C38.083 16.0424 38.1808 15.9614 38.2565 15.8615L40.8195 12.4664C41.0526 12.1908 41.2701 11.9024 41.471 11.6026L41.4789 11.5958C41.884 10.907 42.0969 10.1221 42.0954 9.32297ZM37.6073 11.2774C37.2165 11.2774 36.8344 11.1615 36.5095 10.9444C36.1846 10.7273 35.9313 10.4187 35.7818 10.0577C35.6322 9.69662 35.5931 9.29933 35.6693 8.91604C35.7456 8.53275 35.9337 8.18068 36.2101 7.90434C36.4864 7.62801 36.8385 7.43982 37.2218 7.36358C37.6051 7.28734 38.0024 7.32647 38.3634 7.47602C38.7245 7.62557 39.0331 7.87883 39.2502 8.20376C39.4673 8.5287 39.5832 8.91072 39.5832 9.30152C39.5832 9.82556 39.375 10.3281 39.0044 10.6987C38.6339 11.0693 38.1313 11.2774 37.6073 11.2774Z" fill="#F5F5F5"/>
<path d="M45.529 17.0255C45.5314 16.6522 45.4475 16.2833 45.2837 15.9478C45.1199 15.6122 44.8808 15.3191 44.5849 15.0914C44.289 14.8636 43.9445 14.7074 43.5782 14.6349C43.2119 14.5624 42.8339 14.5757 42.4736 14.6736C42.1132 14.7715 41.7805 14.9514 41.5012 15.1992C41.222 15.4471 41.0039 15.7562 40.864 16.1024C40.724 16.4485 40.666 16.8224 40.6946 17.1946C40.7231 17.5669 40.8374 17.9276 41.0284 18.2483L41.0352 18.2574C41.1278 18.4132 41.2441 18.5261 41.3615 18.6898L42.7672 20.5517C42.8078 20.6057 42.8605 20.6495 42.9209 20.6797C42.9814 20.7099 43.048 20.7256 43.1156 20.7256C43.1831 20.7256 43.2498 20.7099 43.3102 20.6797C43.3707 20.6495 43.4233 20.6057 43.4639 20.5517L44.8459 18.7203C44.972 18.572 45.0896 18.4167 45.1982 18.2551V18.2483C45.4158 17.8777 45.5301 17.4554 45.529 17.0255ZM43.1082 18.079C42.8977 18.0788 42.6919 18.0161 42.517 17.899C42.342 17.7819 42.2058 17.6155 42.1253 17.4209C42.0449 17.2264 42.024 17.0123 42.0652 16.8058C42.1064 16.5994 42.2079 16.4098 42.3569 16.261C42.5058 16.1122 42.6955 16.0109 42.902 15.9699C43.1086 15.9289 43.3226 15.9501 43.5171 16.0307C43.7116 16.1113 43.8778 16.2478 43.9947 16.4228C44.1117 16.5979 44.1741 16.8037 44.1741 17.0143C44.1741 17.1542 44.1465 17.2927 44.0929 17.422C44.0393 17.5512 43.9608 17.6686 43.8618 17.7675C43.7628 17.8664 43.6453 17.9448 43.516 17.9983C43.3867 18.0517 43.2481 18.0791 43.1082 18.079Z" fill="#EBEBEB"/>
<path d="M49.9896 47.7003C49.9896 47.7172 38.798 47.7296 24.9959 47.7296C11.1939 47.7296 0 47.7172 0 47.7003C0 47.6833 11.1893 47.6709 24.9959 47.6709C38.8025 47.6709 49.9896 47.6844 49.9896 47.7003Z" fill="#263238"/>
<path d="M18.1469 8.76548L18.8898 19.2886C18.9487 20.1167 19.3192 20.8917 19.9269 21.4575C20.5345 22.0232 21.334 22.3375 22.1642 22.3371C22.6136 22.3372 23.0582 22.245 23.4704 22.0662C23.8827 21.8873 24.2538 21.6257 24.5608 21.2975C24.8678 20.9694 25.1041 20.5816 25.2551 20.1584C25.4061 19.7351 25.4685 19.2853 25.4385 18.837C25.373 17.8355 25.3132 17.0157 25.3132 17.0157C25.3132 17.0157 27.8616 16.6194 27.8932 14.0722C27.9112 12.6044 27.6572 9.26228 27.4415 6.70489C27.3703 5.87095 26.9886 5.09415 26.372 4.52816C25.7554 3.96217 24.9488 3.64823 24.1118 3.64844H22.5684C21.9389 3.68515 21.3231 3.84779 20.7576 4.12673C20.1921 4.40567 19.6883 4.79523 19.276 5.27236C18.8637 5.74949 18.5514 6.30448 18.3574 6.90448C18.1635 7.50449 18.0919 8.13731 18.1469 8.76548Z" fill="#B78876"/>
<path d="M25.3148 16.984C25.3148 16.984 23.7047 17.1149 21.9941 16.04C21.9941 16.04 22.7789 17.8737 25.3204 17.6445L25.3148 16.984Z" fill="#AA6550"/>
<path d="M26.644 9.78865C26.6449 9.88354 26.6087 9.97504 26.5431 10.0436C26.4775 10.1122 26.3877 10.1524 26.2928 10.1556C26.2466 10.1593 26.2001 10.1537 26.1561 10.1391C26.112 10.1246 26.0714 10.1014 26.0364 10.0709C26.0015 10.0403 25.973 10.0032 25.9527 9.96147C25.9324 9.9198 25.9206 9.87447 25.918 9.82816C25.917 9.73335 25.953 9.64188 26.0184 9.57317C26.0837 9.50446 26.1733 9.46389 26.268 9.46008C26.3144 9.4564 26.361 9.46203 26.4052 9.47664C26.4494 9.49125 26.4902 9.51455 26.5252 9.54516C26.5602 9.57578 26.5888 9.61309 26.6092 9.6549C26.6296 9.69672 26.6414 9.74219 26.644 9.78865Z" fill="#263238"/>
<path d="M26.998 9.26448C26.9528 9.3119 26.6773 9.10867 26.2866 9.1098C25.896 9.11093 25.6092 9.30626 25.5652 9.25884C25.5448 9.23738 25.5911 9.14593 25.7153 9.06012C25.8848 8.94297 26.0863 8.88105 26.2923 8.88285C26.4952 8.88202 26.693 8.94612 26.8568 9.06576C26.9799 9.15835 27.0206 9.24416 26.998 9.26448Z" fill="#263238"/>
<path d="M22.8256 9.78856C22.8266 9.88345 22.7904 9.97495 22.7248 10.0435C22.6591 10.1121 22.5693 10.1523 22.4745 10.1555C22.4283 10.1592 22.3818 10.1536 22.3377 10.139C22.2937 10.1245 22.253 10.1013 22.2181 10.0708C22.1831 10.0403 22.1547 10.0031 22.1343 9.96139C22.114 9.91971 22.1022 9.87438 22.0996 9.82808C22.0987 9.73307 22.1348 9.64145 22.2004 9.5727C22.266 9.50396 22.3558 9.46352 22.4508 9.45999C22.4971 9.45647 22.5436 9.46221 22.5876 9.4769C22.6317 9.49158 22.6723 9.5149 22.7072 9.5455C22.7422 9.5761 22.7706 9.61336 22.7909 9.6551C22.8113 9.69683 22.8231 9.74221 22.8256 9.78856Z" fill="#263238"/>
<path d="M23.1496 9.33686C23.1044 9.38429 22.8278 9.17992 22.4371 9.18105C22.0464 9.18218 21.7596 9.37864 21.7156 9.33009C21.6953 9.30864 21.7405 9.22396 21.8658 9.1325C22.0356 9.01594 22.2368 8.95373 22.4427 8.9541C22.6454 8.95482 22.8427 9.01876 23.0073 9.13702C23.1304 9.23073 23.171 9.31654 23.1496 9.33686Z" fill="#263238"/>
<path d="M24.5706 12.2413C24.5706 12.2188 24.8122 12.177 25.2062 12.1284C25.3056 12.1171 25.4004 12.0979 25.4174 12.0291C25.426 11.926 25.4028 11.8227 25.3508 11.7333C25.2574 11.4916 25.1588 11.238 25.0549 10.9722C24.6451 9.88832 24.347 8.99747 24.391 8.98166C24.4351 8.96585 24.8032 9.83074 25.2141 10.9135C25.3127 11.1815 25.4072 11.4371 25.4975 11.6802C25.5348 11.7931 25.6003 11.9218 25.5484 12.072C25.5342 12.1073 25.512 12.1388 25.4836 12.164C25.4552 12.1893 25.4213 12.2076 25.3846 12.2176C25.3295 12.2333 25.2725 12.2413 25.2153 12.2413C24.8178 12.2617 24.5717 12.2639 24.5706 12.2413Z" fill="#263238"/>
<path d="M23.4196 12.5118C23.4828 12.5118 23.4839 12.9329 23.8475 13.2344C24.2111 13.5358 24.6627 13.4895 24.6661 13.5483C24.6729 13.5754 24.5656 13.6307 24.3748 13.6363C24.1258 13.6398 23.8835 13.5555 23.6906 13.3981C23.5053 13.2468 23.3863 13.0293 23.3586 12.7918C23.3428 12.6111 23.3902 12.5095 23.4196 12.5118Z" fill="#263238"/>
<path d="M23.2515 7.80423C23.2131 7.91714 22.8224 7.86068 22.3629 7.91714C21.9033 7.97359 21.5319 8.09779 21.4709 8.00182C21.4438 7.95665 21.5081 7.85616 21.6583 7.75342C21.858 7.62727 22.0837 7.54819 22.3185 7.52217C22.5532 7.49615 22.7908 7.52388 23.0132 7.60325C23.1882 7.67099 23.2684 7.7568 23.2515 7.80423Z" fill="#263238"/>
<path d="M26.8543 8.1323C26.7854 8.2215 26.5155 8.1323 26.1915 8.1244C25.8674 8.11649 25.5931 8.18424 25.5298 8.09165C25.5016 8.04649 25.5445 7.95729 25.6653 7.87261C25.8264 7.77169 26.014 7.72101 26.204 7.72704C26.394 7.73308 26.5779 7.79554 26.7323 7.90648C26.8464 7.99681 26.8847 8.09504 26.8543 8.1323Z" fill="#263238"/>
<path d="M19.0095 10.6769C18.9654 10.6577 17.2594 10.1598 17.3158 11.9009C17.3723 13.6419 19.1077 13.2276 19.1099 13.1768C19.1122 13.1259 19.0095 10.6769 19.0095 10.6769Z" fill="#B78876"/>
<path d="M18.5512 12.5352C18.5433 12.5352 18.5218 12.5578 18.471 12.5826C18.4001 12.6154 18.3193 12.6199 18.2452 12.595C18.0589 12.5329 17.8952 12.2461 17.876 11.9322C17.8673 11.7831 17.8916 11.6339 17.9471 11.4953C17.9623 11.4398 17.9908 11.3889 18.0301 11.347C18.0695 11.305 18.1185 11.2734 18.1729 11.2548C18.2076 11.2445 18.2447 11.2467 18.2779 11.2609C18.3111 11.2751 18.3383 11.3005 18.3547 11.3327C18.3796 11.3801 18.3694 11.4151 18.3784 11.4185C18.3875 11.4219 18.4157 11.388 18.3988 11.3158C18.3876 11.2731 18.3621 11.2357 18.3265 11.2096C18.3023 11.1922 18.2748 11.1797 18.2458 11.1729C18.2167 11.1661 18.1866 11.1652 18.1571 11.1701C18.0862 11.1867 18.0206 11.2211 17.9667 11.2701C17.9127 11.3191 17.8722 11.3811 17.8489 11.4501C17.7802 11.6035 17.7496 11.7712 17.7597 11.939C17.7823 12.2902 17.972 12.6165 18.226 12.6774C18.2733 12.6896 18.3227 12.6909 18.3706 12.6813C18.4185 12.6718 18.4636 12.6515 18.5026 12.6221C18.5489 12.5781 18.558 12.5386 18.5512 12.5352Z" fill="#AA6550"/>
<path d="M18.0369 10.6189C18.3022 10.5546 18.7618 10.7996 18.8747 11.048C18.9876 11.2964 19.0124 11.5786 19.1253 11.8282C19.2382 12.0777 19.4934 12.3013 19.7599 12.238C19.8499 12.2099 19.9309 12.1584 19.9945 12.0888C20.0582 12.0191 20.1023 11.9339 20.1223 11.8417C20.1607 11.6557 20.1626 11.464 20.128 11.2772C20.0252 10.4642 19.8547 9.65806 19.822 8.83834C19.7892 8.01862 19.9055 7.16842 20.3357 6.46725C20.7659 5.76609 21.5551 5.25574 22.3681 5.32235C22.9089 5.36526 23.4057 5.64753 23.9432 5.72318C24.2634 5.76553 24.589 5.73437 24.8954 5.63205C25.2018 5.52973 25.4808 5.35894 25.7113 5.13267C25.77 5.07508 26.041 4.89556 26.041 4.89556C26.041 4.85378 26.0015 4.49021 25.8581 4.35698C24.7911 3.37128 22.8694 3.09579 21.4603 3.45371C20.0512 3.81163 18.7301 4.80862 18.1238 6.12288C17.5175 7.43714 17.6982 9.28433 18.0324 10.6167" fill="#263238"/>
<path d="M27.4639 6.31758C27.4639 6.31758 20.7819 4.17231 17.8914 9.94874C17.8914 9.94874 17.459 8.50237 17.459 7.72669C17.459 7.20844 17.7684 4.12376 20.9434 3.15274C20.9434 3.15274 25.7251 1.32813 27.4639 6.31758Z" fill="#EF233C"/>
<path d="M21.7208 6.46216C21.8395 6.65356 22.0011 6.81478 22.1927 6.9331C22.3844 7.05142 22.6009 7.1236 22.8252 7.14396C23.0495 7.16433 23.2755 7.13231 23.4853 7.05043C23.6951 6.96856 23.8831 6.83907 24.0343 6.67217C24.1008 6.83829 24.2175 6.97945 24.3683 7.07586C24.519 7.17227 24.6961 7.21909 24.8748 7.20975C25.0534 7.20041 25.2247 7.13539 25.3645 7.02379C25.5044 6.9122 25.6058 6.75963 25.6546 6.58749C25.8357 6.78939 26.0573 6.95096 26.3049 7.0617C26.559 7.15542 26.8808 7.11929 27.0467 6.90702C27.2127 6.69475 27.1676 6.35941 27.0004 6.14037C26.8179 5.93325 26.5844 5.77754 26.323 5.68873C25.5308 5.34037 24.6604 5.20867 23.8006 5.3071C22.9481 5.42001 22.1228 5.83551 21.5898 6.51071" fill="#263238"/>
<g opacity="0.4">
<path d="M27.4645 6.31758C26.9086 5.73179 26.1464 5.38553 25.3395 5.35221C23.3681 5.26527 19.6794 6.37404 17.8875 9.94874C17.8875 9.94874 17.4551 8.50237 17.4551 7.72669C17.4551 7.20844 17.7644 4.12376 20.9395 3.15274C20.944 3.15274 25.7257 1.32813 27.4645 6.31758Z" fill="black"/>
</g>
<path d="M18.1719 9.2724C19.1621 7.75603 20.5283 6.50274 22.065 5.5464C23.6017 4.59006 26.141 3.63823 27.8911 3.17531C28.4172 3.0353 28.9649 2.91336 29.5012 3.00594C30.0375 3.09853 30.5614 3.45758 30.6935 3.98261C30.8606 4.64313 29.6886 5.66156 29.1387 6.06126C28.5889 6.46096 27.4654 7.04922 27.4654 7.04922C27.4654 7.04922 27.4812 5.82528 25.5211 5.5735C22.8565 5.22461 18.1719 9.2724 18.1719 9.2724Z" fill="#EF233C"/>
<path d="M23.6521 4.27864C23.6521 4.27864 24.6141 3.7457 25.5817 3.6215C25.4201 3.49591 25.2438 3.3905 25.0567 3.30762C24.5315 3.39443 24.0237 3.56523 23.5527 3.81345L23.6521 4.27864Z" fill="#E0E0E0"/>
<path d="M29.0751 19.2124L26.9558 18.745L26.0932 18.5293L25.3751 17.416C25.3751 17.416 25.0364 19.4066 23.7503 20.4781C23.5762 20.6206 23.3721 20.7218 23.1533 20.7742C22.9345 20.8266 22.7067 20.8288 22.4869 20.7807C22.1967 20.7197 21.8557 20.6452 21.6028 20.5775C21.5486 20.5628 21.4899 20.5436 21.4267 20.521C20.4969 20.1758 19.7223 19.5077 19.2441 18.6388C18.9596 18.133 18.7191 17.6136 18.8015 17.416L17.7955 19.4992L11.8678 22.2293L8.50195 30.4514L15.0247 32.3799L15.2279 39.1544L13.9995 47.6948L32.4522 47.7073L31.7974 28.7058" fill="#EF233C"/>
<path d="M24.3042 26.5679C24.2666 26.5709 24.2289 26.5709 24.1913 26.5679L23.8628 26.56L22.6896 26.5183H22.667V26.4991C22.6479 25.9898 22.6241 25.3869 22.5982 24.7422C22.5677 23.813 22.5406 22.9729 22.5191 22.3553C22.5124 22.055 22.5067 21.8099 22.5022 21.6315C22.5022 21.5514 22.5022 21.4859 22.5022 21.4351C22.4993 21.4122 22.4993 21.3891 22.5022 21.3662C22.5074 21.3884 22.51 21.4111 22.5101 21.434C22.5101 21.4859 22.518 21.5469 22.5225 21.6304C22.5316 21.8088 22.544 22.0538 22.5587 22.353C22.5835 22.9706 22.6174 23.8107 22.6546 24.7388C22.6772 25.3846 22.6975 25.9876 22.7156 26.4968L22.6908 26.4731L23.8639 26.5352L24.1913 26.5566C24.2293 26.5563 24.2671 26.5601 24.3042 26.5679Z" fill="#263238"/>
<path d="M23.3012 23.8235C23.3271 23.8054 23.3577 23.7952 23.3893 23.7942C23.4626 23.7894 23.5357 23.8059 23.5998 23.8418C23.6639 23.8776 23.7163 23.9313 23.7506 23.9963C23.7828 24.0596 23.7942 24.1315 23.7833 24.2018C23.7713 24.2814 23.7364 24.3557 23.6829 24.4159C23.6293 24.476 23.5595 24.5193 23.4818 24.5405C23.4032 24.557 23.3216 24.5515 23.2459 24.5246C23.1702 24.4977 23.1034 24.4505 23.0528 24.3881C23.0118 24.3378 22.9831 24.2787 22.969 24.2153C22.9549 24.152 22.9557 24.0863 22.9715 24.0234C22.989 23.9377 23.0314 23.8592 23.0934 23.7976C23.1363 23.7558 23.168 23.7422 23.1691 23.7456C23.1702 23.749 23.1465 23.7693 23.1104 23.8134C23.0603 23.8752 23.0266 23.9485 23.0121 24.0268C23.0007 24.0831 23.002 24.1412 23.0161 24.1969C23.0302 24.2526 23.0566 24.3045 23.0934 24.3486C23.1386 24.4018 23.1971 24.442 23.263 24.465C23.3289 24.4881 23.3998 24.4931 23.4683 24.4795C23.5349 24.4607 23.5949 24.4234 23.641 24.3718C23.6872 24.3202 23.7178 24.2565 23.7291 24.1882C23.7385 24.1322 23.7322 24.0747 23.7108 24.0221C23.6895 23.9695 23.654 23.9238 23.6083 23.8901C23.5463 23.8407 23.4697 23.8133 23.3904 23.8122C23.3317 23.8167 23.3012 23.828 23.3012 23.8235Z" fill="#263238"/>
<path d="M23.1012 21.4376C23.1273 21.4147 23.1594 21.3998 23.1938 21.3947C23.2875 21.3749 23.3853 21.3893 23.4693 21.4354C23.5289 21.4658 23.5798 21.5109 23.6172 21.5664C23.6606 21.6314 23.6823 21.7084 23.6793 21.7865C23.6757 21.8756 23.6454 21.9615 23.5922 22.033C23.539 22.1045 23.4655 22.1583 23.3812 22.1874C23.295 22.2094 23.2043 22.2055 23.1203 22.1762C23.0364 22.1469 22.9629 22.0934 22.9092 22.0225C22.8616 21.9613 22.8329 21.8875 22.8268 21.8102C22.8233 21.7436 22.8341 21.677 22.8584 21.6149C22.8935 21.5265 22.9555 21.4515 23.0357 21.4004C23.0636 21.3795 23.0969 21.367 23.1317 21.3643C23.1317 21.3643 23.0989 21.3812 23.0493 21.4196C22.9794 21.4733 22.9268 21.5463 22.898 21.6296C22.8753 21.6892 22.8684 21.7537 22.8779 21.8168C22.8874 21.8799 22.913 21.9394 22.9522 21.9898C22.9998 22.0506 23.0641 22.0964 23.1373 22.1214C23.2104 22.1465 23.2893 22.1498 23.3643 22.1309C23.437 22.1051 23.5005 22.0585 23.5469 21.9968C23.5932 21.9352 23.6204 21.8613 23.6251 21.7843C23.6281 21.721 23.6133 21.6581 23.5823 21.6029C23.5514 21.5476 23.5056 21.5021 23.4501 21.4715C23.3742 21.4268 23.2859 21.4078 23.1983 21.4173C23.1362 21.4252 23.1035 21.4422 23.1012 21.4376Z" fill="#263238"/>
<path d="M22.5 30.5502C22.5 30.5502 22.509 30.5445 22.5282 30.5377L22.6129 30.505C22.6886 30.479 22.7958 30.4316 22.9324 30.3684C23.314 30.176 23.6642 29.9271 23.9712 29.63C24.4226 29.1855 24.8215 28.6907 25.1601 28.1554C25.5837 27.5046 25.9704 26.8306 26.3186 26.1365C26.9447 24.8715 27.4941 23.57 27.9637 22.2389C28.1477 21.7286 28.2911 21.3142 28.3916 21.0285L28.5045 20.6988C28.5169 20.665 28.5282 20.6367 28.5361 20.6142C28.5393 20.6044 28.5435 20.5949 28.5485 20.5859C28.5477 20.5964 28.5454 20.6066 28.5418 20.6164C28.535 20.639 28.526 20.6672 28.5158 20.7034C28.4898 20.7835 28.4548 20.8942 28.4108 21.0421C28.3171 21.33 28.1793 21.7466 27.9987 22.2581C27.5412 23.5928 26.9973 24.8963 26.3705 26.1603C26.0215 26.8563 25.6324 27.5315 25.2053 28.1825C24.8627 28.7207 24.4579 29.2167 23.9994 29.6604C23.6875 29.9571 23.3309 30.2028 22.9426 30.3887C22.8364 30.4375 22.7274 30.4801 22.6163 30.5163L22.5294 30.5434C22.52 30.5471 22.5101 30.5494 22.5 30.5502Z" fill="#263238"/>
<path d="M26.3877 28.2955C26.4362 28.2955 27.5597 28.2188 27.5597 28.2188C27.5597 28.2188 27.0956 29.0385 26.6123 29.3478H25.6289L26.3877 28.2955Z" fill="#FAFAFA"/>
<path d="M22.3027 33.0336C22.322 33.0151 22.3432 32.9988 22.366 32.985L22.5557 32.854C22.7194 32.7411 22.9553 32.5718 23.2388 32.3538C23.8033 31.9214 24.5553 31.2756 25.3592 30.5371C25.7611 30.1679 26.1495 29.8202 26.4815 29.486C26.7794 29.1929 27.056 28.879 27.3091 28.5465C27.479 28.3223 27.6301 28.0844 27.7608 27.8352C27.8104 27.7483 27.8409 27.6771 27.8646 27.6297C27.8754 27.6047 27.8886 27.5809 27.9042 27.5586C27.8969 27.5846 27.8875 27.6099 27.8759 27.6342C27.8556 27.6828 27.8274 27.7562 27.7811 27.8454C27.657 28.1002 27.51 28.3432 27.3419 28.5714C27.0921 28.9095 26.8169 29.228 26.5188 29.5243C26.1857 29.8631 25.7995 30.212 25.3976 30.58C24.5937 31.3185 23.8406 31.962 23.2636 32.3866C22.9757 32.6 22.7352 32.7626 22.5681 32.8721C22.4834 32.9263 22.4168 32.9658 22.3716 32.994C22.3502 33.0098 22.3271 33.023 22.3027 33.0336Z" fill="#263238"/>
<path d="M19.1387 45.5815C19.1387 45.5815 19.1387 45.5713 19.1522 45.5544C19.1658 45.5374 19.1804 45.5103 19.1985 45.4798C19.2403 45.4155 19.3035 45.3206 19.3882 45.201C19.5576 44.9638 19.8195 44.6296 20.165 44.2367C20.8605 43.4565 21.8349 42.3918 22.9076 41.213L25.6727 38.1995L26.5139 37.2962L26.7397 37.0512L26.8007 36.9891L26.8233 36.9688C26.8233 36.9688 26.8176 36.9778 26.8052 36.9925L26.7487 37.0591L26.5229 37.312L25.6953 38.2322L22.9516 41.2491L20.1966 44.2615C19.8477 44.65 19.5813 44.9785 19.4063 45.2111C19.3193 45.324 19.2527 45.42 19.2087 45.4832L19.1579 45.5544C19.1522 45.5639 19.1458 45.573 19.1387 45.5815Z" fill="#263238"/>
<path d="M28.9277 19.1602C29.0248 19.3058 31.2062 19.5486 31.7403 20.0815C32.2744 20.6144 37.6116 24.6882 37.6116 24.6882L33.8077 29.8075L31.353 29.2666L28.9277 19.1602Z" fill="#EF233C"/>
<path opacity="0.4" d="M36.9657 24.1914L32.7012 29.5636L33.8088 29.8075L37.6082 24.6826L36.9657 24.1914Z" fill="black"/>
<path d="M30.09 24.4893C30.0709 24.431 30.0561 24.3714 30.0459 24.3109C30.0335 24.2533 30.0188 24.1822 30.0087 24.0986C29.9985 24.0151 29.9816 23.9202 29.9759 23.8141C29.9703 23.7079 29.959 23.5883 29.959 23.4674C29.959 23.3466 29.959 23.21 29.9691 23.07C29.9911 22.7655 30.0383 22.4634 30.1103 22.1667C30.1871 21.8715 30.2887 21.5834 30.414 21.3052C30.4738 21.1788 30.5269 21.0568 30.5913 20.9484C30.6556 20.84 30.711 20.7396 30.7685 20.6504C30.8261 20.5612 30.8814 20.4844 30.9311 20.4155C30.9722 20.3564 31.0163 20.2995 31.0632 20.245C31.1002 20.196 31.1414 20.1503 31.1863 20.1084C31.1555 20.1612 31.1204 20.2115 31.0813 20.2586C31.0463 20.306 31.0034 20.3636 30.9582 20.4347C30.9131 20.5058 30.8555 20.5815 30.8035 20.6729C30.7516 20.7644 30.6906 20.8615 30.6342 20.9722C30.5777 21.0828 30.5213 21.198 30.4637 21.3267C30.3448 21.6037 30.2474 21.8894 30.1724 22.1814C30.1021 22.4743 30.0541 22.7721 30.029 23.0723C30.0211 23.2111 30.0109 23.3432 30.0143 23.4663C30.0177 23.5894 30.0143 23.7046 30.0233 23.805C30.0324 23.9055 30.0391 24.0049 30.0471 24.0884C30.055 24.172 30.0651 24.2431 30.0742 24.3007C30.0855 24.3629 30.0908 24.4261 30.09 24.4893Z" fill="#263238"/>
<path d="M31.7968 28.6985C31.6219 28.3595 31.4648 28.0117 31.326 27.6564C31.1687 27.3092 31.0293 26.9542 30.9082 26.5928C31.0831 26.9316 31.2406 27.279 31.3802 27.6338C31.5377 27.9811 31.6768 28.3365 31.7968 28.6985Z" fill="#263238"/>
<path d="M15.0237 24.9798C15.0146 24.9798 14.9232 24.8161 14.7504 24.562C14.525 24.2311 14.2671 23.9236 13.9804 23.6441C13.6923 23.3667 13.3776 23.1182 13.041 22.9023C12.7813 22.7374 12.6108 22.6516 12.6153 22.6426C12.6586 22.6545 12.7003 22.6716 12.7395 22.6934C12.85 22.7459 12.9578 22.8039 13.0624 22.8673C13.4098 23.0743 13.7318 23.3209 14.0222 23.6023C14.3115 23.8845 14.5676 24.199 14.7854 24.5395C14.8679 24.6704 14.93 24.7788 14.9683 24.8567C14.9918 24.8953 15.0104 24.9367 15.0237 24.9798Z" fill="#263238"/>
<path opacity="0.4" d="M8.50195 30.4478L8.76503 29.8076L15.9799 31.7722L15.6943 32.575L8.50195 30.4478Z" fill="black"/>
<path d="M27.7619 27.918H30.509V29.0471L26.9941 29.0245C26.9941 29.0245 27.5372 28.3707 27.7619 27.918Z" fill="#FAFAFA"/>
<g opacity="0.2">
<path d="M17.9648 19.7476C18.0642 20.6283 18.1726 21.5373 18.6084 22.3096C19.0443 23.0819 19.8967 23.6904 20.774 23.5606C21.3589 23.4736 21.8546 23.083 22.2531 22.6449C22.6517 22.2068 22.9859 21.7111 23.4206 21.3103C23.6835 21.5934 23.9774 21.846 24.2968 22.0634C24.6195 22.282 25.0069 22.3843 25.3954 22.3536C25.7782 22.3073 25.9893 22.1549 26.1101 21.789C25.7014 21.9155 25.4767 21.8963 25.0691 21.8184C24.619 21.7321 24.1964 21.5385 23.8372 21.2539C23.5979 21.0653 23.5109 20.7819 23.2072 20.8022C22.9261 20.818 22.7059 21.0405 22.5207 21.2539C22.2218 21.5961 21.8939 21.9119 21.5407 22.1978C21.2019 22.4654 20.8745 22.6494 20.4432 22.637C19.733 22.6212 19.1515 22.0634 18.7597 21.4706C18.3981 20.9241 18.1309 20.3207 17.9694 19.6855" fill="black"/>
</g>
<path d="M26.2802 18.6484C26.2866 18.669 26.2908 18.6902 26.2926 18.7117C26.2926 18.7534 26.3061 18.8144 26.314 18.8934C26.331 19.0515 26.3479 19.2807 26.3547 19.5709C26.3699 20.3131 26.2991 21.0546 26.1435 21.7805V21.7986V21.8167H26.1266C25.7252 21.9108 25.3063 21.8995 24.9106 21.7839C24.587 21.6974 24.2812 21.5545 24.0073 21.3616C23.8219 21.2357 23.6557 21.0835 23.5139 20.91C23.4757 20.8631 23.4403 20.8141 23.4077 20.7632C23.3951 20.7459 23.3841 20.7273 23.375 20.7079C23.5592 20.9488 23.7802 21.1591 24.0299 21.3312C24.3023 21.5152 24.6039 21.6518 24.9219 21.7354C25.3091 21.8447 25.7177 21.8545 26.1097 21.7636L26.0882 21.7851V21.767C26.242 21.0448 26.3177 20.3082 26.314 19.5698C26.314 19.2864 26.3016 19.0572 26.2926 18.898C26.2926 18.8246 26.2847 18.7647 26.2813 18.7162C26.2776 18.6938 26.2773 18.671 26.2802 18.6484Z" fill="#263238"/>
<path d="M22.8493 20.8767C22.8404 20.9008 22.8282 20.9236 22.8132 20.9445C22.7754 21.0071 22.7339 21.0674 22.689 21.1251C22.5204 21.3355 22.3346 21.5316 22.1335 21.7111C22.0082 21.8241 21.867 21.9494 21.7146 22.0781C21.6378 22.1425 21.5611 22.2102 21.4752 22.278C21.3869 22.3446 21.2937 22.4047 21.1964 22.4575C20.9874 22.5727 20.7566 22.6431 20.5189 22.6641C20.2595 22.6861 19.9996 22.6286 19.7737 22.4993C19.5538 22.3682 19.3566 22.2024 19.19 22.0081C19.0319 21.8321 18.8849 21.6466 18.7496 21.4526C18.5216 21.1234 18.329 20.771 18.1749 20.4014C18.0717 20.1529 17.9871 19.897 17.922 19.6359C17.8983 19.5433 17.8836 19.471 17.8746 19.4214C17.8683 19.3966 17.8645 19.3712 17.8633 19.3457C17.8736 19.3692 17.8812 19.3938 17.8859 19.4191C17.8994 19.4676 17.9175 19.5388 17.9434 19.6302C18.0175 19.8874 18.1077 20.1397 18.2133 20.3856C18.3715 20.7496 18.5663 21.0965 18.7948 21.421C18.9294 21.6123 19.0758 21.7952 19.2329 21.9686C19.3941 22.1578 19.5847 22.3198 19.7974 22.4484C20.0135 22.5718 20.2619 22.6269 20.5099 22.6065C20.7408 22.5866 20.9651 22.5198 21.1693 22.4101C21.2651 22.3593 21.3568 22.3011 21.4436 22.2362C21.5261 22.1729 21.6051 22.1041 21.6819 22.0408C21.8354 21.9133 21.9777 21.7936 22.1041 21.6807C22.306 21.5066 22.4946 21.3179 22.6687 21.1161C22.7285 21.0439 22.7726 20.984 22.8019 20.9434C22.8158 20.9198 22.8316 20.8975 22.8493 20.8767Z" fill="#263238"/>
<path d="M20.416 33.8501L21.2865 32.581C21.2865 32.581 21.885 30.5012 21.8037 30.2099C21.7224 29.9186 21.4582 28.8347 21.5203 28.8212C21.5824 28.8076 22.2339 28.566 22.5873 29.4354C22.8074 29.9773 22.8797 30.6909 22.9034 31.1516C22.906 31.2085 22.9209 31.2642 22.9471 31.3148C22.9733 31.3654 23.0101 31.4097 23.0551 31.4447C23.1 31.4797 23.1521 31.5045 23.2076 31.5175C23.263 31.5304 23.3207 31.5312 23.3765 31.5197C23.9783 31.3955 24.9798 31.2069 25.218 31.2645C25.5635 31.3469 25.8729 31.7873 25.9023 31.9352C25.9316 32.0831 25.6945 32.4162 25.6945 32.4162C25.6945 32.4162 25.9881 32.5664 26.0784 32.7933C26.0908 32.8238 26.101 32.8543 26.11 32.8836C26.1376 32.9746 26.1409 33.0712 26.1197 33.1639C26.0986 33.2565 26.0536 33.3421 25.9892 33.412L25.8966 33.5137C25.8966 33.5137 26.2636 33.6141 26.3087 33.8242C26.3332 33.9775 26.329 34.1341 26.2963 34.286L25.9519 34.6416C26.0479 34.7312 26.1108 34.8505 26.1303 34.9803C26.1484 35.1745 25.6324 35.6578 25.6324 35.6578L23.4183 36.4482L22.5398 36.674L20.416 33.8501Z" fill="#B78876"/>
<path d="M25.7019 32.4179C25.4489 32.486 25.1926 32.5414 24.9341 32.5838C24.6801 32.6459 24.4231 32.6949 24.1641 32.7306C24.2334 32.6967 24.3066 32.6713 24.382 32.655C24.5186 32.6166 24.7094 32.5692 24.9228 32.5263C25.1362 32.4834 25.3293 32.4517 25.4715 32.4337C25.5473 32.4181 25.6247 32.4128 25.7019 32.4179Z" fill="#AA6550"/>
<path d="M25.9038 33.5137C25.7156 33.6019 25.5194 33.6719 25.3178 33.7226C25.1221 33.7928 24.9202 33.8442 24.7148 33.8761C24.903 33.7879 25.0993 33.7179 25.3008 33.6672C25.4965 33.597 25.6984 33.5456 25.9038 33.5137Z" fill="#AA6550"/>
<path d="M26.0355 34.5938C25.8372 34.7125 25.6291 34.8141 25.4134 34.8975C25.2056 34.9992 24.9896 35.0831 24.7676 35.1481C24.9659 35.0294 25.1741 34.9277 25.3897 34.8444C25.5975 34.7427 25.8135 34.6588 26.0355 34.5938Z" fill="#AA6550"/>
<path d="M15.315 41.6926L23.458 36.2301L21.4031 32.5041L13.9714 36.3261L14.8148 32.311L9.77117 30.8184L8.50884 37.6945C8.31464 40.7521 10.767 43.2203 13.723 42.4175C14.2896 42.2643 14.8274 42.0194 15.315 41.6926Z" fill="#B78876"/>
<path d="M12.8965 38.4872C12.8818 38.4547 12.8723 38.42 12.8682 38.3845C12.8515 38.2894 12.8421 38.1931 12.84 38.0966C12.8358 37.7753 12.9077 37.4576 13.05 37.1696C13.1943 36.8823 13.4053 36.6337 13.6654 36.4447C13.7429 36.3872 13.8252 36.3366 13.9115 36.2934C13.9425 36.2753 13.976 36.262 14.0109 36.2539C14.0109 36.2641 13.8788 36.3284 13.6902 36.4797C13.4433 36.6725 13.2426 36.9181 13.1027 37.1984C12.9629 37.4787 12.8874 37.7867 12.8818 38.1C12.8762 38.3371 12.9134 38.4861 12.8965 38.4872Z" fill="#AA6550"/>
<path d="M33.8086 29.8073C33.8594 29.7373 39.6076 33.2398 39.6076 33.2398L41.4503 41.6346L44.1025 42.6078C44.1025 42.6078 44.9301 33.2657 44.3001 31.8115C43.6701 30.3572 37.2828 25.125 37.2828 25.125L33.8086 29.8073Z" fill="#B78876"/>
<path d="M40.8629 32.5967C40.7349 32.7892 40.5646 32.9498 40.365 33.0664C40.1758 33.1996 39.9588 33.2884 39.7305 33.3261C39.9368 33.2336 40.138 33.1304 40.3334 33.0167C40.5176 32.8867 40.6944 32.7465 40.8629 32.5967Z" fill="#AA6550"/>
<path d="M26.8945 29.8253L27.345 37.8825L36.5313 37.2615L36.2536 31.2638L34.9156 29.4629L26.8945 29.8253Z" fill="#263238"/>
<path d="M24.8066 38.0621C24.8337 38.2168 25.6139 45.5141 25.6139 45.5141L39.2861 44.5645L41.5996 44.254L40.5326 37.4592L38.8988 37.0674L24.8066 38.0621Z" fill="#EF233C"/>
<path opacity="0.4" d="M38.8988 37.0664L24.8066 38.0623C24.8337 38.217 25.6139 45.5143 25.6139 45.5143L39.8484 44.5241L38.8988 37.0664Z" fill="black"/>
<path d="M35.1538 37.3541L27.345 37.8825L26.8945 29.8253L34.9156 29.4629L35.1538 37.3541Z" fill="#455A64"/>
<path d="M29.8066 29.695L29.9715 32.1779L30.3893 31.9385L30.6207 32.1779L30.9086 31.9385L31.3535 32.1779V29.625L29.8066 29.695Z" fill="#263238"/>
<path d="M33.0712 37.524L32.5371 31.4766L37.7569 32.915L38.2605 37.0893L33.0712 37.524Z" fill="#EF233C"/>
<path d="M37.7532 32.9162C37.7439 32.9316 37.7329 32.946 37.7205 32.9591L37.62 33.0776L37.2361 33.5157L35.9026 35.0117L35.8823 35.0343L35.8608 35.0129L35.1563 34.2677L33.2967 32.3031L32.7378 31.7024L32.5876 31.5375C32.569 31.5193 32.5527 31.4988 32.5391 31.4766C32.5597 31.4922 32.579 31.5096 32.5966 31.5285L32.7547 31.6866L33.326 32.2737L35.1981 34.227L35.9071 34.9734H35.8654L37.2203 33.4909L37.6166 33.0641L37.7238 32.9512C37.7324 32.9385 37.7423 32.9268 37.7532 32.9162Z" fill="#263238"/>
<path d="M34.8296 34.0362C34.8443 34.0441 34.4717 34.7577 33.9986 35.6305C33.5255 36.5033 33.1303 37.2044 33.1157 37.1965C33.101 37.1886 33.4736 36.475 33.9467 35.6022C34.4198 34.7295 34.8172 34.0283 34.8296 34.0362Z" fill="#263238"/>
<path d="M38.1376 37.0894C38.1241 37.0973 37.7628 36.5192 37.3303 35.7988C36.8979 35.0785 36.558 34.4857 36.5727 34.4767C36.5874 34.4676 36.9476 35.0469 37.38 35.7683C37.8125 36.4898 38.1523 37.0815 38.1376 37.0894Z" fill="#263238"/>
<path d="M35.8742 37.2879L35.5332 33.4365L38.8572 34.3533L39.1779 37.0112L35.8742 37.2879Z" fill="#EF233C"/>
<path opacity="0.4" d="M35.8742 37.2879L35.5332 33.4365L38.8572 34.3533L39.1779 37.0112L35.8742 37.2879Z" fill="white"/>
<path d="M38.8581 34.3533C38.8343 34.3911 38.8067 34.4263 38.7756 34.4583C38.7135 34.5317 38.6323 34.6255 38.534 34.7395L37.6872 35.6947L37.6669 35.7184L37.6454 35.6958L37.1938 35.2216C36.7297 34.735 36.312 34.2912 36.0116 33.9683L35.6594 33.5833C35.6138 33.5381 35.5722 33.489 35.5352 33.4365C35.5853 33.4763 35.6321 33.5201 35.6752 33.5675L36.0421 33.939C36.3504 34.2551 36.7726 34.6943 37.2367 35.181L37.6883 35.6563H37.6409L38.5024 34.7147L38.7576 34.4448C38.7881 34.4112 38.8218 34.3806 38.8581 34.3533Z" fill="#263238"/>
<path d="M36.9942 35.0674C37.0077 35.0753 36.7751 35.5314 36.4737 36.0836C36.3007 36.4241 36.11 36.7554 35.9023 37.076C36.0576 36.7285 36.231 36.3893 36.4217 36.0599C36.5948 35.7191 36.7859 35.3878 36.9942 35.0674Z" fill="#263238"/>
<path d="M39.1005 37.011C38.9096 36.7496 38.7347 36.477 38.5766 36.1946C38.4012 35.9222 38.2432 35.639 38.1035 35.3467C38.468 35.8815 38.8009 36.4372 39.1005 37.011Z" fill="#263238"/>
<path d="M37.9922 34.1904V34.4998L38.4777 34.5563L38.5037 34.3203L37.9922 34.1904Z" fill="white"/>
<path d="M36.2773 32.6201V33.0718L37.1942 33.2231L37.245 32.8775L36.2773 32.6201Z" fill="white"/>
<path d="M32.701 39.7758L32.6558 37.5244L30.8301 37.6475L31.0254 39.935L32.701 39.7758Z" fill="#EF233C"/>
<path d="M38.6532 40.9582L35.5879 41.249L35.8451 43.9602L38.9104 43.6694L38.6532 40.9582Z" fill="#FAFAFA"/>
<path d="M38.9064 43.673C38.9027 43.6559 38.9 43.6385 38.8985 43.621C38.8985 43.5838 38.8884 43.5352 38.8816 43.4743C38.868 43.3433 38.8477 43.157 38.8229 42.9233C38.7743 42.4468 38.71 41.7738 38.6241 40.9643L38.6512 40.9869L35.588 41.2816C35.5812 41.2883 35.6377 41.2217 35.614 41.25V41.2703V41.294V41.3391L35.623 41.4317L35.64 41.6146C35.6524 41.7355 35.6637 41.8551 35.675 41.9748C35.6964 42.2131 35.719 42.4457 35.7404 42.6737C35.7822 43.1254 35.8229 43.5601 35.859 43.9586L35.8308 43.9361L38.0427 43.7396L38.6704 43.6865L38.8387 43.6741C38.8586 43.6726 38.8786 43.6726 38.8985 43.6741C38.8811 43.6782 38.8633 43.6808 38.8454 43.682L38.6829 43.7012L38.0619 43.7667L35.8364 43.9925H35.8105V43.9665C35.7709 43.5668 35.7292 43.1355 35.6851 42.6816C35.664 42.4558 35.6418 42.2229 35.6185 41.9827C35.6072 41.863 35.5959 41.7434 35.5846 41.6214C35.579 41.5616 35.5733 41.5006 35.5666 41.4396L35.5587 41.3471V41.3019V41.2782V41.2579C35.535 41.2861 35.5903 41.2183 35.5858 41.2251L38.6501 40.9395H38.675V40.9643C38.7472 41.7806 38.8071 42.4603 38.85 42.9413C38.8692 43.1728 38.8838 43.3568 38.8951 43.4878C38.8951 43.5477 38.903 43.5951 38.9053 43.6312C38.9067 43.6451 38.9071 43.659 38.9064 43.673Z" fill="#263238"/>
<path d="M38.411 41.6117C38.411 41.6286 37.877 41.6975 37.2142 41.7675C36.8153 41.82 36.4139 41.8524 36.0117 41.8646C36.0117 41.8488 36.5458 41.7788 37.2086 41.7088C37.8713 41.6388 38.4099 41.5959 38.411 41.6117Z" fill="#263238"/>
<path d="M38.3917 42.0723C38.2852 42.1106 38.1751 42.1382 38.0631 42.1547C37.8576 42.1953 37.5719 42.2428 37.2547 42.28C36.9374 42.3173 36.6472 42.3376 36.4383 42.3444C36.3257 42.3545 36.2123 42.3545 36.0996 42.3444C36.2113 42.3223 36.3246 42.3095 36.4383 42.306C36.6461 42.2868 36.9329 42.2608 37.249 42.2236C37.5652 42.1863 37.8508 42.1457 38.0575 42.1107C38.1678 42.0896 38.2795 42.0767 38.3917 42.0723Z" fill="#263238"/>
<path d="M38.5217 43.0791C38.4147 43.1171 38.3043 43.1447 38.192 43.1615C37.9865 43.2022 37.7009 43.2496 37.3836 43.2869C37.0663 43.3241 36.7773 43.3444 36.5672 43.3512C36.4546 43.3621 36.3412 43.3621 36.2285 43.3512C36.3402 43.3291 36.4535 43.3163 36.5672 43.3128C36.775 43.2948 37.0629 43.2677 37.3791 43.2304C37.6952 43.1931 37.9809 43.1525 38.1875 43.1175C38.2978 43.0963 38.4095 43.0835 38.5217 43.0791Z" fill="#263238"/>
<path d="M38.3669 42.5635C37.9983 42.6468 37.6256 42.7101 37.2502 42.7532C36.8764 42.8166 36.4995 42.8604 36.1211 42.8841C36.4899 42.8021 36.8626 42.7388 37.2378 42.6945C37.6117 42.6316 37.9885 42.5879 38.3669 42.5635Z" fill="#263238"/>
<path d="M41.0741 46.7618C41.0741 46.7618 43.5976 45.0919 43.7918 44.2383C43.986 43.3847 44.1023 42.6079 44.1023 42.6079L41.4061 41.4912L41.6737 42.4622C41.6737 42.4622 40.7072 43.0369 40.6078 43.7336C40.5423 44.1976 39.2924 44.9925 39.2924 44.9925C39.1884 44.8669 39.0561 44.7677 38.9064 44.7031C38.7566 44.6385 38.5937 44.6104 38.4309 44.6211L37.3809 44.6956L38.0911 46.2955L41.0741 46.7618Z" fill="#B78876"/>
<path d="M42.0588 44.4736C42.0221 44.4961 41.9821 44.5124 41.9402 44.5222C41.8612 44.5482 41.7437 44.5741 41.6015 44.6193C41.4409 44.6764 41.2923 44.7629 41.1634 44.8745C41.0009 45.013 40.8191 45.1271 40.6237 45.2132C40.2622 45.3672 39.8608 45.4008 39.4788 45.3092C39.4117 45.2962 39.3472 45.2722 39.288 45.238C39.2637 45.2243 39.244 45.2037 39.2316 45.1787C39.2191 45.1538 39.2144 45.1257 39.218 45.098C39.2199 45.0808 39.226 45.0644 39.2359 45.0502C39.2457 45.036 39.259 45.0245 39.2744 45.0167C39.297 45.0088 39.3094 45.0167 39.3094 45.0167C39.3094 45.0167 39.297 45.0167 39.2801 45.0291C39.2682 45.0377 39.2585 45.0489 39.2517 45.0618C39.2448 45.0747 39.241 45.0891 39.2406 45.1037C39.2384 45.1269 39.2436 45.1503 39.2553 45.1705C39.2671 45.1908 39.2848 45.2068 39.306 45.2166C39.3637 45.2449 39.4254 45.2643 39.489 45.2742C39.8625 45.3502 40.2504 45.3109 40.6011 45.1612C40.7921 45.0762 40.97 44.9645 41.1295 44.8293C41.2648 44.717 41.4204 44.6319 41.5879 44.5786C41.7325 44.538 41.8499 44.5188 41.9267 44.4985C41.97 44.4867 42.0141 44.4784 42.0588 44.4736Z" fill="#AA6550"/>
<path d="M40.3105 45.7687C40.3105 45.7777 40.1806 45.7032 39.9661 45.614C39.6864 45.4997 39.3917 45.4263 39.0911 45.3961C39.003 45.3871 38.9161 45.3848 38.8325 45.3825H38.8167L38.8077 45.369C38.677 45.1644 38.5194 44.9783 38.3391 44.8157C38.2025 44.6927 38.1133 44.6294 38.1133 44.6227C38.1133 44.6159 38.1404 44.6317 38.1833 44.6588C38.2442 44.6982 38.303 44.7408 38.3594 44.7864C38.5519 44.9433 38.7184 45.1297 38.8528 45.3385L38.8291 45.325C38.9149 45.325 39.003 45.325 39.0933 45.3385C39.4 45.3681 39.6995 45.4486 39.9797 45.5767C40.064 45.6152 40.1459 45.6589 40.2247 45.7077C40.2563 45.7234 40.2852 45.744 40.3105 45.7687Z" fill="#AA6550"/>
<path d="M40.9925 45.3105C40.9925 45.3264 40.822 45.3907 40.6232 45.5036C40.4245 45.6165 40.2789 45.7351 40.2676 45.7215C40.4539 45.5043 40.7103 45.3589 40.9925 45.3105Z" fill="#AA6550"/>
<path d="M42.3606 42.3067C42.3606 42.3248 42.1844 42.3067 41.9834 42.3575C41.7825 42.4084 41.6447 42.5122 41.6289 42.4975C41.7223 42.4027 41.8396 42.3348 41.9684 42.3012C42.0972 42.2676 42.2327 42.2695 42.3606 42.3067Z" fill="#AA6550"/>
<path d="M5.54978 41.344C5.88174 41.7392 6.44289 41.5483 6.68565 41.2672C6.9284 40.9861 7.00744 40.6044 7.07857 40.2397C7.2389 39.4065 7.39923 38.5337 7.15083 37.7219C7.08675 37.4748 6.95588 37.2502 6.77259 37.0726C6.67982 36.9856 6.5658 36.9244 6.44195 36.8953C6.31809 36.8661 6.18876 36.8701 6.06691 36.9067C5.78463 37.0083 5.62995 37.3075 5.52494 37.5841C5.21365 38.4123 5.09099 39.2995 5.16589 40.181C5.20089 40.592 5.28783 41.0177 5.54978 41.3361" fill="#EF233C"/>
<g opacity="0.2">
<path d="M5.54978 41.344C5.88174 41.7392 6.44289 41.5483 6.68565 41.2672C6.9284 40.9861 7.00744 40.6044 7.07857 40.2397C7.2389 39.4065 7.39923 38.5337 7.15083 37.7219C7.08675 37.4748 6.95588 37.2502 6.77259 37.0726C6.67982 36.9856 6.5658 36.9244 6.44195 36.8953C6.31809 36.8661 6.18876 36.8701 6.06691 36.9067C5.78463 37.0083 5.62995 37.3075 5.52494 37.5841C5.21365 38.4123 5.09099 39.2995 5.16589 40.181C5.20089 40.592 5.28783 41.0177 5.54978 41.3361" fill="black"/>
</g>
<path d="M6.84369 43.3803C7.30436 43.0878 7.87004 43.0043 8.41313 43.0415C8.70556 43.0641 9.01268 43.1228 9.22833 43.3215C9.44399 43.5203 9.51399 43.8974 9.30624 44.1029C9.16993 44.2141 8.99893 44.2741 8.82299 44.2722C8.40297 44.305 7.93101 44.2722 7.61938 44.5556C7.44098 44.716 7.33485 44.9666 7.11242 45.0581C7.0005 45.0946 6.87975 45.0937 6.76835 45.0556C6.65696 45.0176 6.56096 44.9443 6.4948 44.8469C6.36666 44.646 6.32096 44.4033 6.36722 44.1695C6.38087 44.0102 6.43093 43.8562 6.51355 43.7194C6.59616 43.5825 6.70912 43.4665 6.84369 43.3803Z" fill="#EF233C"/>
<path d="M4.79164 42.0212C5.07843 41.6125 5.08972 41.0524 4.90455 40.5884C4.71938 40.1243 4.36033 39.7495 3.96063 39.4514C3.48751 39.101 2.95056 38.8464 2.37991 38.7017C2.15833 38.6349 1.925 38.6164 1.69568 38.6475C1.58309 38.6661 1.47664 38.7116 1.38527 38.7799C1.2939 38.8483 1.2203 38.9376 1.17065 39.0404C1.0408 39.3543 1.22372 39.7054 1.4134 39.9877C1.74714 40.4854 2.11897 40.9566 2.52556 41.3968C2.85412 41.7502 3.22559 42.0946 3.68965 42.2267C4.15371 42.3588 4.61776 42.2956 4.8289 41.9636" fill="#EF233C"/>
<path d="M6.09726 47.7015C6.10699 47.6373 6.11002 47.5722 6.10629 47.5073C6.10629 47.3673 6.10629 47.1912 6.10629 46.9812C6.10923 46.7212 6.12581 46.4615 6.15597 46.2032C6.19663 45.8887 6.26271 45.5779 6.35357 45.274C6.44149 44.9706 6.57228 44.6812 6.74197 44.4148C6.88006 44.1976 7.06482 44.014 7.28281 43.8773C7.43052 43.7865 7.59173 43.7198 7.76041 43.6797C7.82443 43.6706 7.88752 43.6558 7.94897 43.6357C7.88393 43.6326 7.81875 43.6372 7.75477 43.6492C7.57841 43.6792 7.40871 43.7399 7.25345 43.8288C7.02331 43.9642 6.82744 44.1508 6.681 44.3741C6.50422 44.6453 6.36804 44.9408 6.27679 45.2514C6.18504 45.5599 6.12006 45.8757 6.08258 46.1953C6.0562 46.456 6.04527 46.7181 6.04984 46.9801C6.04984 47.2059 6.06339 47.3843 6.07129 47.5085C6.07252 47.5736 6.08124 47.6384 6.09726 47.7015Z" fill="#263238"/>
<path d="M6.09689 47.2967C6.09988 47.2671 6.09988 47.2372 6.09689 47.2075C6.09689 47.1409 6.08334 47.0563 6.0743 46.9535C6.05398 46.7333 6.02575 46.4138 6.00204 46.0186C5.95123 45.2283 5.92188 44.1353 5.94559 42.9283C5.9693 41.7213 6.04947 40.6295 6.14092 39.8436C6.16125 39.646 6.1827 39.4688 6.20528 39.3129C6.22786 39.1571 6.24367 39.0228 6.26173 38.9144C6.2798 38.806 6.28883 38.7281 6.29899 38.6615C6.30493 38.6321 6.30758 38.6022 6.3069 38.5723C6.295 38.6 6.28702 38.6293 6.28319 38.6592C6.26964 38.7247 6.2527 38.8071 6.23125 38.9087C6.2098 39.0104 6.18609 39.1515 6.16125 39.3073C6.13641 39.4631 6.10931 39.6393 6.08447 39.8368C5.95654 40.8623 5.88379 41.8939 5.86655 42.9272C5.84284 44.1364 5.8801 45.2328 5.94559 46.0231C5.97607 46.4183 6.01333 46.7378 6.04382 46.9569C6.0585 47.0596 6.07205 47.1432 6.08108 47.2098C6.08335 47.2393 6.08865 47.2684 6.09689 47.2967Z" fill="#263238"/>
<path d="M5.91269 45.1922C5.91164 45.1033 5.90333 45.0145 5.88785 44.9269C5.86188 44.7575 5.81671 44.5137 5.74219 44.2156C5.65219 43.8676 5.54288 43.525 5.41476 43.1892C5.26043 42.7767 5.07706 42.3756 4.86602 41.989C4.49529 41.2756 3.99792 40.6355 3.3982 40.1C3.29369 40.0091 3.18398 39.9242 3.06964 39.846C3.01996 39.811 2.97592 39.776 2.93076 39.7489L2.80656 39.6778C2.73093 39.6312 2.65206 39.59 2.57058 39.5547C2.55929 39.5728 2.90931 39.7376 3.36094 40.1429C3.94219 40.6847 4.42675 41.3216 4.79376 42.0263C5.0041 42.4086 5.18929 42.8042 5.34814 43.2107C5.49718 43.5855 5.60557 43.9322 5.68687 44.2269C5.76816 44.5216 5.82123 44.7621 5.85623 44.9292C5.86783 45.0182 5.88671 45.1062 5.91269 45.1922Z" fill="#263238"/>
</svg>
