<svg width="13" height="12" viewBox="0 0 13 12" fill="none" xmlns="http://www.w3.org/2000/svg">
<path d="M11.6294 3.89063L8.03248 3.3824L6.43082 0.2544C6.38708 0.168757 6.31496 0.0993548 6.22577 0.0570794C6.0021 -0.0492895 5.72983 0.0384447 5.61742 0.252792L4.00232 3.37444L0.403285 3.86844C0.30406 3.88182 0.213271 3.92646 0.143688 3.99422C0.0595652 4.07674 0.0130682 4.18789 0.0144142 4.30325C0.0157602 4.41861 0.0648391 4.52873 0.150867 4.60943L2.7488 7.0468L2.1264 10.48C2.1118 10.5599 2.12085 10.6421 2.15252 10.7173C2.18418 10.7925 2.23719 10.8576 2.30555 10.9054C2.3739 10.9532 2.45485 10.9817 2.53923 10.9876C2.62361 10.9936 2.70804 10.9767 2.78293 10.939L6.0046 9.32387L9.21929 10.9517C9.30705 10.9967 9.40905 11.0119 9.50686 10.9957C9.75352 10.9555 9.9198 10.7317 9.8778 10.4954L9.27018 7.05969L11.8786 4.63261C11.9496 4.56621 11.9965 4.47938 12.0109 4.38435C12.0497 4.14677 11.8773 3.92643 11.6294 3.89063Z" fill="#EDB902"/>
</svg>
