<svg width="43" height="45" viewBox="0 0 43 45" fill="none" xmlns="http://www.w3.org/2000/svg">
<g filter="url(#filter0_d_607_4075)">
<circle cx="21.5" cy="19.5" r="17.5" fill="white"/>
</g>
<path d="M32.3268 14.0218C31.6663 14.3061 30.972 14.504 30.2609 14.6107C30.5934 14.5537 31.0825 13.9554 31.2772 13.7132C31.573 13.3478 31.7985 12.9307 31.9421 12.4831C31.9421 12.4499 31.9753 12.4024 31.9421 12.3786C31.9254 12.3695 31.9066 12.3647 31.8875 12.3647C31.8684 12.3647 31.8496 12.3695 31.8329 12.3786C31.0608 12.7968 30.239 13.1159 29.3871 13.3285C29.3574 13.3375 29.3258 13.3384 29.2957 13.3308C29.2655 13.3233 29.238 13.3077 29.2161 13.2857C29.1498 13.2068 29.0784 13.1322 29.0024 13.0625C28.6549 12.7512 28.2607 12.4964 27.8341 12.3074C27.2583 12.0712 26.6363 11.9689 26.0152 12.0082C25.4125 12.0463 24.8241 12.2079 24.2865 12.4831C23.7572 12.7733 23.2919 13.1674 22.9188 13.6419C22.5263 14.1303 22.2429 14.6971 22.0877 15.3041C21.9597 15.8815 21.9452 16.4783 22.0449 17.0613C22.0449 17.161 22.0449 17.1753 21.9595 17.161C18.5733 16.6624 15.7951 15.4608 13.525 12.8821C13.4253 12.7681 13.3731 12.7681 13.2923 12.8821C12.3045 14.3828 12.7842 16.7573 14.0189 17.9304C14.1852 18.0871 14.3561 18.2391 14.5366 18.3815C13.9705 18.3413 13.4181 18.1879 12.9124 17.9304C12.8174 17.8686 12.7652 17.9019 12.7604 18.0159C12.747 18.1739 12.747 18.3327 12.7604 18.4908C12.8595 19.2481 13.158 19.9654 13.6252 20.5696C14.0925 21.1737 14.7118 21.6429 15.4199 21.9291C15.5925 22.0031 15.7724 22.0588 15.9566 22.0953C15.4325 22.1985 14.8949 22.2146 14.3656 22.1428C14.2516 22.1191 14.2089 22.1808 14.2516 22.2901C14.9498 24.1897 16.4647 24.7691 17.576 25.092C17.728 25.1158 17.88 25.1158 18.0509 25.1538C18.0509 25.1538 18.0509 25.1538 18.0224 25.1823C17.6948 25.7807 16.3697 26.1843 15.7619 26.3933C14.6523 26.7918 13.4693 26.9442 12.295 26.8397C12.1098 26.8112 12.067 26.816 12.0196 26.8397C11.9721 26.8635 12.0196 26.9157 12.0718 26.9632C12.3093 27.1199 12.5467 27.2576 12.7937 27.3906C13.5288 27.7916 14.3061 28.1101 15.1112 28.3404C19.281 29.4897 23.9731 28.6444 27.1028 25.5337C29.5628 23.0927 30.4271 19.7255 30.4271 16.3537C30.4271 16.2254 30.5839 16.1494 30.6741 16.083C31.2965 15.598 31.8452 15.0253 32.303 14.3828C32.3823 14.287 32.423 14.165 32.417 14.0408C32.417 13.9696 32.417 13.9839 32.3268 14.0218Z" fill="#33CCFF"/>
<defs>
<filter id="filter0_d_607_4075" x="0" y="2" width="43" height="43" filterUnits="userSpaceOnUse" color-interpolation-filters="sRGB">
<feFlood flood-opacity="0" result="BackgroundImageFix"/>
<feColorMatrix in="SourceAlpha" type="matrix" values="0 0 0 0 0 0 0 0 0 0 0 0 0 0 0 0 0 0 127 0" result="hardAlpha"/>
<feOffset dy="4"/>
<feGaussianBlur stdDeviation="2"/>
<feComposite in2="hardAlpha" operator="out"/>
<feColorMatrix type="matrix" values="0 0 0 0 0 0 0 0 0 0 0 0 0 0 0 0 0 0 0.25 0"/>
<feBlend mode="normal" in2="BackgroundImageFix" result="effect1_dropShadow_607_4075"/>
<feBlend mode="normal" in="SourceGraphic" in2="effect1_dropShadow_607_4075" result="shape"/>
</filter>
</defs>
</svg>
