<svg width="11" height="21" viewBox="0 0 11 21" fill="none" xmlns="http://www.w3.org/2000/svg">
<path d="M0.375 19.6548C0.125 19.397 0 19.0917 0 18.739C0 18.3864 0.125 18.0814 0.375 17.8243L7.7 10.2702L0.35 2.69038C0.116667 2.44975 0 2.14896 0 1.78802C0 1.42707 0.125 1.11769 0.375 0.859872C0.625 0.602054 0.921 0.473145 1.263 0.473145C1.605 0.473145 1.90067 0.602054 2.15 0.859872L10.55 9.54834C10.65 9.65147 10.721 9.76319 10.763 9.88351C10.805 10.0038 10.8257 10.1327 10.825 10.2702C10.825 10.4077 10.804 10.5366 10.762 10.657C10.72 10.7773 10.6493 10.889 10.55 10.9921L2.125 19.6806C1.89167 19.9212 1.604 20.0415 1.262 20.0415C0.92 20.0415 0.624333 19.9126 0.375 19.6548Z" fill="black" fill-opacity="0.47"/>
</svg>
