<svg width="23" height="5" viewBox="0 0 23 5" fill="none" xmlns="http://www.w3.org/2000/svg">
<path d="M5.11111 2.5C5.11111 3.16304 4.84187 3.79893 4.36261 4.26777C3.88335 4.73661 3.23333 5 2.55556 5C1.87778 5 1.22776 4.73661 0.748505 4.26777C0.269245 3.79893 0 3.16304 0 2.5C0 1.83696 0.269245 1.20107 0.748505 0.732234C1.22776 0.263393 1.87778 0 2.55556 0C3.23333 0 3.88335 0.263393 4.36261 0.732234C4.84187 1.20107 5.11111 1.83696 5.11111 2.5ZM14.0556 2.5C14.0556 3.16304 13.7863 3.79893 13.3071 4.26777C12.8278 4.73661 12.1778 5 11.5 5C10.8222 5 10.1722 4.73661 9.69295 4.26777C9.21369 3.79893 8.94444 3.16304 8.94444 2.5C8.94444 1.83696 9.21369 1.20107 9.69295 0.732234C10.1722 0.263393 10.8222 0 11.5 0C12.1778 0 12.8278 0.263393 13.3071 0.732234C13.7863 1.20107 14.0556 1.83696 14.0556 2.5ZM23 2.5C23 3.16304 22.7308 3.79893 22.2515 4.26777C21.7722 4.73661 21.1222 5 20.4444 5C19.7667 5 19.1167 4.73661 18.6374 4.26777C18.1581 3.79893 17.8889 3.16304 17.8889 2.5C17.8889 1.83696 18.1581 1.20107 18.6374 0.732234C19.1167 0.263393 19.7667 0 20.4444 0C21.1222 0 21.7722 0.263393 22.2515 0.732234C22.7308 1.20107 23 1.83696 23 2.5Z" fill="#EF233C"/>
</svg>
