<svg width="790" height="983" viewBox="0 0 790 983" fill="none" xmlns="http://www.w3.org/2000/svg">
<path d="M583.374 474.481H284.637V490.366H583.374" stroke="#F4999A" stroke-linecap="round" stroke-linejoin="round"/>
<path d="M298.637 491.929V610.57" stroke="#F4999A" stroke-linecap="round" stroke-linejoin="round"/>
<path d="M574.844 443.889C579.442 438.917 517.591 438.842 504.597 439.332C491.603 439.821 499.061 446.676 499.061 446.676C499.061 446.676 485.671 456.713 495.106 458.606L492.79 468.022" stroke="#F4999A" stroke-linecap="round" stroke-linejoin="round"/>
<path d="M512.574 445.546C512.574 445.546 567.16 447.599 575.092 449.962C583.024 452.325 574.843 459.124 574.843 459.124C574.843 459.124 581.905 465.8 581.114 468.003" stroke="#F4999A" stroke-linecap="round" stroke-linejoin="round"/>
<path d="M501.32 459.547C501.32 459.547 555.409 465.649 566.459 460.913" stroke="#F4999A" stroke-linecap="round" stroke-linejoin="round"/>
<path d="M480.767 443.927C485.366 438.955 423.503 438.88 410.521 439.369C397.538 439.859 404.984 446.714 404.984 446.714C404.984 446.714 391.583 456.751 401.018 458.644L398.758 468.06" stroke="#F4999A" stroke-linecap="round" stroke-linejoin="round"/>
<path d="M418.497 445.583C418.497 445.583 473.083 447.636 481.004 450C488.925 452.363 480.767 459.161 480.767 459.161C480.767 459.161 487.817 465.837 487.038 468.04" stroke="#F4999A" stroke-linecap="round" stroke-linejoin="round"/>
<path d="M407.244 459.585C407.244 459.585 461.333 465.678 472.372 460.951" stroke="#F4999A" stroke-linecap="round" stroke-linejoin="round"/>
<path d="M390.08 445.838C394.667 440.866 332.816 440.8 319.822 441.29C306.828 441.78 314.297 448.625 314.297 448.625C314.297 448.625 300.896 458.672 310.331 460.564L308.071 469.98" stroke="#F4999A" stroke-linecap="round" stroke-linejoin="round"/>
<path d="M327.812 447.505C327.812 447.505 382.386 449.548 390.318 451.912C398.25 454.275 390.081 461.083 390.081 461.083C390.081 461.083 397.132 467.759 396.352 469.952" stroke="#F4999A" stroke-linecap="round" stroke-linejoin="round"/>
<path d="M316.546 461.506C316.546 461.506 370.646 467.598 381.685 462.872" stroke="#F4999A" stroke-linecap="round" stroke-linejoin="round"/>
<path d="M589.362 374.042H510.856V394.512H589.362V374.042Z" stroke="#F4999A" stroke-linecap="round" stroke-linejoin="round"/>
<path d="M545.928 433.682V394.512" stroke="#F4999A" stroke-linecap="round" stroke-linejoin="round"/>
<path d="M554.719 395.021V434.859" stroke="#F4999A" stroke-linecap="round" stroke-linejoin="round"/>
<path d="M323.992 517.493V586.521H436.091V515.262H346.997" stroke="#F4999A" stroke-linecap="round" stroke-linejoin="round"/>
<path d="M566.46 528.416V587.34H452.802V516.495H554.72" stroke="#F4999A" stroke-linecap="round" stroke-linejoin="round"/>
<path d="M222.808 350.954H158.641V429.643H222.808V350.954Z" stroke="#F4999A" stroke-linecap="round" stroke-linejoin="round"/>
<path d="M185.409 429.643V616.878" stroke="#F4999A" stroke-linecap="round" stroke-linejoin="round"/>
<path d="M195.656 436.733V621.878" stroke="#F4999A" stroke-linecap="round" stroke-linejoin="round"/>
<path d="M258.932 380.887C246.797 381.584 243.633 393.872 235.599 419.201C227.566 444.529 230.989 439.633 224.436 446.723C219.555 452.015 205.657 492.588 205.657 492.588C205.657 492.588 216.685 492.08 217.521 490.366C225.566 473.766 238.594 459.472 237.78 453.305C236.967 447.138 253.045 422.553 253.045 422.553L258.932 380.887Z" fill="#F4999A"/>
<mask id="mask0_481_4328" style="mask-type:luminance" maskUnits="userSpaceOnUse" x="205" y="380" width="54" height="113">
<path d="M258.932 380.887C246.797 381.584 243.633 393.872 235.599 419.201C227.566 444.529 230.989 439.633 224.436 446.723C219.555 452.015 205.657 492.588 205.657 492.588C205.657 492.588 216.685 492.08 217.521 490.366C225.566 473.766 238.594 459.472 237.78 453.305C236.967 447.138 253.045 422.553 253.045 422.553L258.932 380.887Z" fill="white"/>
</mask>
<g mask="url(#mask0_481_4328)">
<path opacity="0.4" d="M257.589 390.388L253.069 422.553C253.069 422.553 246.459 432.647 241.928 441.516C237.612 431.997 237.781 419.041 239.341 407.478C244.561 391.367 248.267 382.818 256.775 381.113L257.589 390.388Z" fill="#EF233C"/>
</g>
<path d="M258.932 380.887C246.797 381.584 243.633 393.872 235.599 419.201C227.566 444.529 230.989 439.633 224.436 446.723C219.555 452.015 205.657 492.588 205.657 492.588C205.657 492.588 216.685 492.08 217.521 490.366C225.566 473.766 238.594 459.472 237.78 453.305C236.967 447.138 253.045 422.553 253.045 422.553L258.932 380.887Z" stroke="#263238" stroke-linecap="round" stroke-linejoin="round"/>
<path d="M235.6 468.003C235.6 468.003 242.379 515.516 266.91 541.014C291.44 566.512 297.248 597.933 297.248 597.933L311.937 594.402C311.937 594.402 305.067 578.527 303.824 564.601C302.31 547.718 297.779 538.773 289.135 530.816C278.898 521.401 282.356 469.877 282.356 469.877L235.6 468.003Z" fill="#F4999A"/>
<mask id="mask1_481_4328" style="mask-type:luminance" maskUnits="userSpaceOnUse" x="235" y="468" width="77" height="130">
<path d="M235.6 468.003C235.6 468.003 242.379 515.516 266.91 541.014C291.44 566.513 297.248 597.934 297.248 597.934L311.937 594.403C311.937 594.403 305.067 578.527 303.824 564.601C302.31 547.719 297.779 538.773 289.135 530.817C278.898 521.401 282.356 469.877 282.356 469.877L235.6 468.003Z" fill="white"/>
</mask>
<g mask="url(#mask1_481_4328)">
<path opacity="0.4" d="M304.072 567.266C296.268 566.431 288.765 564.223 282.062 560.788C277.831 553.785 272.754 547.159 266.91 541.014C242.458 515.516 235.6 468.003 235.6 468.003L282.31 469.887C282.31 469.887 278.808 521.439 289.09 530.826C297.779 538.783 302.31 547.728 303.779 564.611C303.858 565.486 303.959 566.371 304.072 567.266Z" fill="#EF233C"/>
</g>
<path d="M235.6 468.003C235.6 468.003 242.379 515.516 266.91 541.014C291.44 566.512 297.248 597.933 297.248 597.933L311.937 594.402C311.937 594.402 305.067 578.527 303.824 564.601C302.31 547.718 297.779 538.773 289.135 530.816C278.898 521.401 282.356 469.877 282.356 469.877L235.6 468.003Z" stroke="#263238" stroke-linecap="round" stroke-linejoin="round"/>
<path d="M258.593 490.413C256.333 491.637 250.367 526.9 253.938 536.833C253.938 536.833 253.034 552.972 249.768 579.996C248.843 587.652 247.451 595.263 245.599 602.801C245.599 602.801 257.486 608.799 258.593 606.116C266.909 586.126 280.762 569.742 276.728 546.88C274.694 535.355 288.027 515.76 289.021 494.377C290.016 472.993 258.593 490.413 258.593 490.413Z" fill="#F4999A"/>
<mask id="mask2_481_4328" style="mask-type:luminance" maskUnits="userSpaceOnUse" x="245" y="483" width="45" height="124">
<path d="M258.593 490.413C256.333 491.637 250.367 526.9 253.938 536.833C253.938 536.833 253.034 552.972 249.768 579.996C248.843 587.652 247.451 595.263 245.599 602.801C245.599 602.801 257.486 608.799 258.593 606.116C266.909 586.126 280.762 569.742 276.728 546.88C274.694 535.355 288.027 515.76 289.021 494.377C290.016 472.993 258.593 490.413 258.593 490.413Z" fill="white"/>
</mask>
<g mask="url(#mask2_481_4328)">
<path opacity="0.4" d="M289.022 494.33C288.501 502.047 286.904 509.688 284.265 517.098C280.104 515.546 275.845 514.182 271.508 513.011C265.846 511.461 259.85 510.944 253.927 511.495C255.237 500.818 257.418 490.997 258.593 490.366C258.593 490.413 289.914 472.947 289.022 494.33Z" fill="#EF233C"/>
</g>
<path d="M258.593 490.413C256.333 491.637 250.367 526.9 253.938 536.833C253.938 536.833 253.034 552.972 249.768 579.996C248.843 587.652 247.451 595.263 245.599 602.801C245.599 602.801 257.486 608.799 258.593 606.116C266.909 586.126 280.762 569.742 276.728 546.88C274.694 535.355 288.027 515.76 289.021 494.377C290.016 472.993 258.593 490.413 258.593 490.413Z" stroke="#263238" stroke-linecap="round" stroke-linejoin="round"/>
<path d="M316.602 349.353C312.727 355.878 313.359 371.707 308.23 374.315V372.271C305.88 374.314 302.863 375.738 299.552 376.367C294.094 377.366 277.383 376.923 273.044 369.098C273.226 370.527 273.712 371.917 274.479 373.204C274.479 373.204 269.214 372.027 267.7 367.771L267.564 370.595C267.564 370.595 265.304 370.944 262.762 363.505C260.22 356.067 267.169 351.359 267.7 347.828C268.231 344.297 274.479 337.065 286.999 335.389C299.518 333.713 316.602 349.353 316.602 349.353Z" fill="#263238"/>
<path d="M376.114 480.846L370.747 494.255L334.986 497.042L322.06 455.461L320.444 450.264L350.183 445.829L350.341 446.045L376.114 480.846Z" fill="#EF233C"/>
<mask id="mask3_481_4328" style="mask-type:luminance" maskUnits="userSpaceOnUse" x="320" y="445" width="57" height="53">
<path d="M376.114 480.846L370.747 494.255L334.986 497.042L322.06 455.461L320.444 450.264L350.183 445.829L350.341 446.045L376.114 480.846Z" fill="white"/>
</mask>
<g mask="url(#mask3_481_4328)">
<path opacity="0.4" d="M350.341 446.045L346.398 450.075L345.505 455.951L322.06 455.461L320.444 450.264L350.183 445.829L350.341 446.045Z" fill="black"/>
</g>
<path d="M376.114 480.846L370.747 494.255L334.986 497.042L322.06 455.461L320.444 450.264L350.183 445.829L350.341 446.045L376.114 480.846Z" stroke="#263238" stroke-linecap="round" stroke-linejoin="round"/>
<path d="M348.94 447.486L346.398 450.085L345.505 455.96L323.947 455.508" stroke="#263238" stroke-linecap="round" stroke-linejoin="round"/>
<path d="M346.997 459.124L368.002 491.929L366.963 481.75L372.771 480.997" stroke="#263238" stroke-linecap="round" stroke-linejoin="round"/>
<path d="M358.669 469.641L350.929 457.909" stroke="#263238" stroke-linecap="round" stroke-linejoin="round"/>
<path d="M364.579 478.521C363.166 476.383 361.742 474.255 360.33 472.127" stroke="#263238" stroke-linecap="round" stroke-linejoin="round"/>
<path d="M337.98 448.813C337.98 448.813 322.862 434.105 313.947 436.572C305.032 439.039 323.337 451.563 323.337 451.563" stroke="#263238" stroke-linecap="round" stroke-linejoin="round"/>
<path d="M334.184 457.203C334.184 457.203 320.049 435.8 313.145 436.252C306.241 436.704 318.614 456.704 318.614 456.704" stroke="#263238" stroke-linecap="round" stroke-linejoin="round"/>
<path d="M258.932 380.887C258.932 380.887 268.864 384.832 278.084 386.132C287.304 387.431 304.784 384.832 310.208 388.552C315.631 392.271 312.886 407.553 307.326 417.609C301.767 427.665 284.265 439.219 284.265 439.219C284.265 439.219 293.304 460.819 298.649 479.114C303.993 497.409 304.456 504.81 304.456 504.81C304.456 504.81 271.373 516.363 232.933 504.81C232.933 504.81 233.193 467.664 240.085 443.72C242.763 434.407 246.865 431.63 243.215 426.055C237.182 416.743 232.933 406.47 244.56 396.791C251.836 390.717 247.26 386.433 252.831 383.006C254.566 381.809 256.691 381.071 258.932 380.887Z" fill="#EF233C"/>
<mask id="mask4_481_4328" style="mask-type:luminance" maskUnits="userSpaceOnUse" x="232" y="380" width="82" height="130">
<path d="M258.932 380.887C258.932 380.887 268.864 384.832 278.084 386.132C287.304 387.431 304.784 384.832 310.208 388.552C315.631 392.271 312.886 407.553 307.326 417.609C301.767 427.665 284.265 439.219 284.265 439.219C284.265 439.219 293.304 460.819 298.649 479.114C303.993 497.409 304.456 504.81 304.456 504.81C304.456 504.81 271.373 516.363 232.933 504.81C232.933 504.81 233.193 467.664 240.085 443.72C242.763 434.407 246.865 431.63 243.215 426.055C237.182 416.743 232.933 406.47 244.56 396.791C251.836 390.717 247.26 386.433 252.831 383.006C254.566 381.809 256.691 381.071 258.932 380.887Z" fill="white"/>
</mask>
<g mask="url(#mask4_481_4328)">
<path opacity="0.15" d="M284.264 439.219C284.264 439.219 293.303 460.819 298.648 479.114C303.992 497.409 304.456 504.81 304.456 504.81C296.155 507.364 287.47 508.949 278.649 509.518C279.473 504.998 281.428 493.21 280.185 489.744C278.637 485.488 283.812 468.926 283.643 466.996C283.473 465.065 274.389 470.206 274.389 470.206C274.389 470.206 270.999 469.67 275.688 465.8C280.377 461.93 278.31 438.352 278.31 438.352C275.36 438.913 272.267 438.547 269.621 437.326C265.259 435.273 261.711 426.846 261.711 426.846C261.711 426.846 271.88 431.177 279.62 429.605C287.36 428.033 295.97 413.598 295.97 413.598H298.614C296.445 411.15 297.721 405.67 297.721 405.67L312.941 399.907C312.225 406.018 310.317 411.991 307.292 417.59C301.766 427.665 284.264 439.219 284.264 439.219Z" fill="black"/>
</g>
<path d="M258.932 380.887C258.932 380.887 268.864 384.832 278.084 386.132C287.304 387.431 304.784 384.832 310.208 388.552C315.631 392.271 312.886 407.553 307.326 417.609C301.767 427.665 284.265 439.219 284.265 439.219C284.265 439.219 293.304 460.819 298.649 479.114C303.993 497.409 304.456 504.81 304.456 504.81C304.456 504.81 271.373 516.363 232.933 504.81C232.933 504.81 233.193 467.664 240.085 443.72C242.763 434.407 246.865 431.63 243.215 426.055C237.182 416.743 232.933 406.47 244.56 396.791C251.836 390.717 247.26 386.433 252.831 383.006C254.566 381.809 256.691 381.071 258.932 380.887Z" stroke="#263238" stroke-linecap="round" stroke-linejoin="round"/>
<path d="M306.015 387.252C306.015 387.252 276.343 397.61 264.897 395.444C256.457 393.843 258.931 380.887 258.931 380.887C258.931 380.887 272.671 379.946 276.106 377.695C283.835 372.545 276.106 358.694 276.106 358.694L299.303 363.298C297.794 366.299 296.485 369.367 295.382 372.488C294.713 374.306 294.248 376.172 293.992 378.062C293.847 379.008 293.932 379.969 294.241 380.887C295.563 384.013 306.015 387.252 306.015 387.252Z" fill="#F4999A" stroke="#263238" stroke-linecap="round" stroke-linejoin="round"/>
<path d="M310.253 388.551C306.095 388.306 298.242 395.265 297.824 405.688C297.406 416.112 306.095 412.769 306.095 412.769L318.738 439.218C318.738 439.218 327.778 446.365 331.8 445.395C335.823 444.425 317.032 388.965 310.253 388.551Z" fill="#F4999A"/>
<mask id="mask5_481_4328" style="mask-type:luminance" maskUnits="userSpaceOnUse" x="297" y="388" width="36" height="58">
<path d="M310.253 388.551C306.095 388.306 298.242 395.265 297.824 405.688C297.406 416.112 306.095 412.769 306.095 412.769L318.738 439.218C318.738 439.218 327.778 446.365 331.8 445.395C335.823 444.425 317.032 388.965 310.253 388.551Z" fill="white"/>
</mask>
<g mask="url(#mask5_481_4328)">
<path opacity="0.4" d="M306.016 412.769C305.206 413.07 304.332 413.233 303.446 413.25C302.559 413.266 301.677 413.134 300.853 412.863C299.18 409.37 300.649 405.556 301.982 406.272C303.982 407.44 306.016 412.769 306.016 412.769Z" fill="#EF233C"/>
</g>
<path d="M310.253 388.551C306.095 388.306 298.242 395.265 297.824 405.688C297.406 416.112 306.095 412.769 306.095 412.769L318.738 439.218C318.738 439.218 327.778 446.365 331.8 445.395C335.823 444.425 317.032 388.965 310.253 388.551Z" stroke="#263238" stroke-linecap="round" stroke-linejoin="round"/>
<path d="M327.472 450.951C327.472 450.951 317.981 438.107 309.993 437.364C302.004 436.62 307.733 452.636 307.733 452.636" stroke="#263238" stroke-linecap="round" stroke-linejoin="round"/>
<path d="M300.106 452.194L339.879 449.256L368.997 503.539L358.884 512.39L310.807 509.565L297.734 453.964L300.106 452.194Z" fill="#EF233C"/>
<mask id="mask6_481_4328" style="mask-type:luminance" maskUnits="userSpaceOnUse" x="297" y="449" width="72" height="64">
<path d="M300.106 452.194L339.879 449.256L368.997 503.539L358.884 512.39L310.807 509.565L297.734 453.964L300.106 452.194Z" fill="white"/>
</mask>
<g mask="url(#mask6_481_4328)">
<path opacity="0.2" d="M339.947 449.378L334.546 453.088L333.507 456.685L297.734 453.964L300.106 452.184L339.879 449.256L339.947 449.378Z" fill="black"/>
<path opacity="0.6" d="M368.998 503.539L358.886 512.39L310.808 509.565L297.735 453.964L333.79 456.704L334.547 453.088L339.948 449.378L368.998 503.539Z" fill="#F4999A"/>
</g>
<path d="M300.106 452.194L339.879 449.256L368.997 503.539L358.884 512.39L310.807 509.565L297.734 453.964L300.106 452.194Z" stroke="#263238" stroke-linecap="round" stroke-linejoin="round"/>
<path d="M299.236 454.331L333.788 456.704L334.545 453.088L337.98 450.951" stroke="#263238" stroke-linecap="round" stroke-linejoin="round"/>
<path d="M335.291 459.547L357.641 508.84L359.132 499.405L365.697 502.164" stroke="#263238" stroke-linecap="round" stroke-linejoin="round"/>
<path d="M355.811 493.398L357.347 496.42" stroke="#263238" stroke-linecap="round" stroke-linejoin="round"/>
<path d="M343.167 468.549L354.319 490.413" stroke="#263238" stroke-linecap="round" stroke-linejoin="round"/>
<path d="M336.941 456.318C338.546 459.494 340.158 462.667 341.777 465.837" stroke="#263238" stroke-linecap="round" stroke-linejoin="round"/>
<path d="M319.427 457.909C319.427 457.909 312.162 438.946 304.343 438.39C296.524 437.835 303.213 456.544 303.213 456.544" stroke="#263238" stroke-linecap="round" stroke-linejoin="round"/>
<path d="M292.513 457.137L300.863 455.96L330.433 461.713L342.354 509.885L325.066 519.819L283.937 510.139L292.513 457.137Z" fill="#263238"/>
<mask id="mask7_481_4328" style="mask-type:luminance" maskUnits="userSpaceOnUse" x="283" y="455" width="60" height="65">
<path d="M292.513 457.137L300.863 455.96L330.433 461.713L342.354 509.885L325.066 519.819L283.937 510.139L292.513 457.137Z" fill="white"/>
</mask>
<g mask="url(#mask7_481_4328)">
<path opacity="0.3" d="M292.514 457.137L319.892 466.892L322.084 463.992L330.434 461.713L300.864 455.96L292.514 457.137Z" fill="black"/>
</g>
<path d="M292.513 457.137L300.863 455.96L330.433 461.713L342.354 509.885L325.066 519.819L283.937 510.139L292.513 457.137Z" stroke="#263238" stroke-linecap="round" stroke-linejoin="round"/>
<g opacity="0.5">
<path d="M293.259 458.606L320.264 468.003L323.021 464.632L329.834 462.768" stroke="#F4999A" stroke-linecap="round" stroke-linejoin="round"/>
<path d="M320.739 469.839L323.993 517.493L331.699 507.465L341.009 509.075" stroke="#F4999A" stroke-linecap="round" stroke-linejoin="round"/>
<path d="M325.959 475.621L330.433 499.951" stroke="#F4999A" stroke-linecap="round" stroke-linejoin="round"/>
<path d="M324.016 465.809L325.214 472.137" stroke="#F4999A" stroke-linecap="round" stroke-linejoin="round"/>
</g>
<path d="M297.247 463.304C297.247 463.304 292.207 440.998 302.263 438.823C312.32 436.648 311.54 468.012 311.54 468.012" stroke="#263238" stroke-linecap="round" stroke-linejoin="round"/>
<path d="M320.749 461.073C320.749 461.073 317.36 438.39 305.439 438.851" stroke="#263238" stroke-linecap="round" stroke-linejoin="round"/>
<path d="M184.968 513.953C184.968 513.953 200.651 498.256 209.916 499.678C219.182 501.1 200.877 514.386 200.877 514.386" stroke="#263238" stroke-linecap="round" stroke-linejoin="round"/>
<path d="M155.308 550.439L162.743 563.142L198.64 561.974L214.628 518.67L205.657 514.009L175.466 512.879L175.353 513.115L155.308 550.439Z" fill="#F4999A"/>
<mask id="mask8_481_4328" style="mask-type:luminance" maskUnits="userSpaceOnUse" x="155" y="512" width="60" height="52">
<path d="M155.308 550.439L162.743 563.142L198.64 561.974L214.628 518.67L205.657 514.009L175.466 512.879L175.353 513.115L155.308 550.439Z" fill="white"/>
</mask>
<g mask="url(#mask8_481_4328)">
<path opacity="0.4" d="M175.353 513.115L179.895 516.674L181.714 522.399L212.109 518.397L205.657 514.009L175.466 512.879L175.353 513.115Z" fill="black"/>
</g>
<path d="M155.308 550.439L162.743 563.142L198.64 561.974L214.628 518.67L205.657 514.009L175.466 512.879L175.353 513.115L155.308 550.439Z" stroke="#263238" stroke-linecap="round" stroke-linejoin="round"/>
<path d="M176.969 514.386L179.895 516.674L181.703 522.408L209.804 518.698" stroke="#263238" stroke-linecap="round" stroke-linejoin="round"/>
<path d="M180.73 525.713L165.092 560.533L164.516 550.327L158.641 550.223" stroke="#263238" stroke-linecap="round" stroke-linejoin="round"/>
<path d="M170.822 537.408L176.698 524.922" stroke="#263238" stroke-linecap="round" stroke-linejoin="round"/>
<path d="M166.37 546.908C167.5 544.639 168.506 542.379 169.568 540.11" stroke="#263238" stroke-linecap="round" stroke-linejoin="round"/>
<path d="M193.137 522.427C193.137 522.427 203.758 499.659 210.673 499.358C217.588 499.057 208.493 520.233 208.493 520.233" stroke="#263238" stroke-linecap="round" stroke-linejoin="round"/>
<path d="M226.47 517.86L217.995 517.606L189.601 526.561L185.409 575.627L204.12 583.574L243.35 569.459L226.47 517.86Z" fill="#263238"/>
<mask id="mask9_481_4328" style="mask-type:luminance" maskUnits="userSpaceOnUse" x="185" y="517" width="59" height="67">
<path d="M226.47 517.86L217.995 517.606L189.601 526.561L185.409 575.627L204.12 583.574L243.35 569.459L226.47 517.86Z" fill="white"/>
</mask>
<g mask="url(#mask9_481_4328)">
<path opacity="0.3" d="M226.469 517.86L200.877 530.543L198.244 527.907L189.6 526.56L217.995 517.606L226.469 517.86Z" fill="black"/>
</g>
<path d="M226.47 517.86L217.995 517.606L189.601 526.561L185.409 575.627L204.12 583.574L243.35 569.459L226.47 517.86Z" stroke="#263238" stroke-linecap="round" stroke-linejoin="round"/>
<g opacity="0.5">
<path d="M225.962 519.404L200.675 531.683L197.409 528.641L190.359 527.549" stroke="#F4999A" stroke-linecap="round" stroke-linejoin="round"/>
<path d="M200.495 533.557L204.822 581.154L195.591 572.058L186.619 574.685" stroke="#F4999A" stroke-linecap="round" stroke-linejoin="round"/>
<path d="M196.234 539.856L195.658 564.469" stroke="#F4999A" stroke-linecap="round" stroke-linejoin="round"/>
<path d="M196.607 529.922L196.427 536.325" stroke="#F4999A" stroke-linecap="round" stroke-linejoin="round"/>
</g>
<path d="M222.74 524.499C222.74 524.499 224.209 501.835 213.905 500.808C203.6 499.782 209.317 530.723 209.317 530.723" stroke="#263238" stroke-linecap="round" stroke-linejoin="round"/>
<path d="M199.103 524.866C199.103 524.866 198.843 502.013 210.752 501.156" stroke="#263238" stroke-linecap="round" stroke-linejoin="round"/>
<path d="M322.332 437.448C311.033 434.925 297.734 443.296 278.989 442.42C276.13 442.288 268.413 441.177 267.588 441.431C266.763 441.685 262.051 447.081 262.887 449.124C263.554 450.772 272.661 454.557 274.48 454.077L276.299 453.597C277.838 453.753 279.398 453.558 280.815 453.035C282.231 452.511 283.451 451.677 284.344 450.621C284.344 450.621 319.801 454.077 331.721 445.395" fill="#F4999A"/>
<path d="M322.332 437.448C311.033 434.925 297.734 443.296 278.989 442.42C276.13 442.288 268.413 441.177 267.588 441.431C266.763 441.685 262.051 447.081 262.887 449.124C263.554 450.772 272.661 454.557 274.48 454.077L276.299 453.597C277.838 453.753 279.398 453.558 280.815 453.035C282.231 452.511 283.451 451.677 284.344 450.621C284.344 450.621 319.801 454.077 331.721 445.395" stroke="#263238" stroke-linecap="round" stroke-linejoin="round"/>
<path d="M276.355 453.597C276.355 453.597 277.892 450.772 276.886 450.772" stroke="#263238" stroke-linecap="round" stroke-linejoin="round"/>
<path d="M278.31 449.746C277.291 450.699 275.904 451.325 274.389 451.516" stroke="#263238" stroke-linecap="round" stroke-linejoin="round"/>
<path d="M270.627 453.305C270.084 453.116 271.598 448.597 272.491 447.796" stroke="#263238" stroke-linecap="round" stroke-linejoin="round"/>
<path d="M267.519 452.081C266.909 451.139 269.361 446.676 269.361 446.676" stroke="#263238" stroke-linecap="round" stroke-linejoin="round"/>
<path d="M264.875 450.753C264.118 449.293 266.909 445.546 266.909 445.546" stroke="#263238" stroke-linecap="round" stroke-linejoin="round"/>
<path d="M302.264 438.851C312.321 436.695 311.541 468.041 311.541 468.041" stroke="#263238" stroke-linecap="round" stroke-linejoin="round"/>
<path d="M320.749 461.073C320.749 461.073 317.36 438.39 305.439 438.851" stroke="#263238" stroke-linecap="round" stroke-linejoin="round"/>
<path d="M327.472 450.951C327.472 450.951 317.981 438.108 309.993 437.364" stroke="#263238" stroke-linecap="round" stroke-linejoin="round"/>
<path d="M319.427 457.909C319.427 457.909 312.162 438.945 304.343 438.39" stroke="#263238" stroke-linecap="round" stroke-linejoin="round"/>
<path d="M337.981 448.813C337.981 448.813 322.863 434.105 313.948 436.572" stroke="#263238" stroke-linecap="round" stroke-linejoin="round"/>
<path d="M334.184 457.203C334.184 457.203 320.049 435.8 313.145 436.252" stroke="#263238" stroke-linecap="round" stroke-linejoin="round"/>
<path d="M258.605 384.192C258.605 384.192 265.113 387.318 266.684 388.551C267.129 388.885 267.45 389.317 267.61 389.798C267.77 390.278 267.762 390.786 267.588 391.263" stroke="#263238" stroke-linecap="round" stroke-linejoin="round"/>
<path d="M270.039 391.263C270.699 390.671 271.498 390.198 272.386 389.874C273.274 389.55 274.233 389.382 275.203 389.38C278.525 389.38 291.169 390.114 297.248 390.03" stroke="#263238" stroke-linecap="round" stroke-linejoin="round"/>
<path d="M249.916 598.696C248.69 600.434 247.243 602.056 245.6 603.536L246.729 598.008C246.026 597.935 245.312 598.001 244.644 598.201C243.977 598.4 243.375 598.728 242.888 599.157C242.888 599.157 243.577 603.178 241.758 604.656C235.713 609.609 221.25 616.624 218.99 616.991C208.346 618.77 208.346 619.58 208.346 619.58C208.346 619.58 213.115 626.972 228.504 628.102C228.504 628.102 238.153 624.608 243.475 624.608C248.797 624.608 247.385 633.177 247.385 633.177H253.758C253.758 633.177 259.407 626.972 260.141 620.757C260.876 614.543 259.351 610.475 262.842 602.726C262.842 602.726 258.718 600.438 255.17 598.771C251.622 597.104 249.916 598.696 249.916 598.696Z" fill="#263238"/>
<path d="M297.258 591.426C297.744 594.487 297.258 595.193 297.258 595.193L294.434 587.726C294.434 587.726 291.462 589.929 292.355 592.293C292.355 592.293 295.394 595.946 295.021 598.036C293.79 605.032 287.349 617.904 285.824 619.335C278.626 626.105 279.214 626.745 279.214 626.745C279.214 626.745 288.366 630.239 301.45 623.393C301.45 623.393 306.614 615.748 310.851 613.036C315.088 610.324 320.173 617.904 320.173 617.904L325.269 614.693C325.269 614.693 325.269 606.887 321.359 601.577C317.45 596.266 313.812 592.49 310.975 584.553H308.218C308.218 584.553 310.173 587.161 304.275 589.769C302.107 590.737 299.713 591.302 297.258 591.426Z" fill="#263238"/>
<path d="M206.56 489.782C203.171 496.166 199.51 501.486 200.402 504.687C201.295 507.889 207.351 509.64 210.752 508.84C214.153 508.039 219.961 507.295 219.294 504.405C218.929 502.766 218.407 501.154 217.735 499.584C218.379 496.528 218.306 493.398 217.52 490.366" fill="#F4999A"/>
<path d="M206.56 489.782C203.171 496.166 199.51 501.486 200.402 504.687C201.295 507.889 207.351 509.64 210.752 508.84C214.153 508.039 219.961 507.295 219.294 504.405C218.929 502.766 218.407 501.154 217.735 499.584C218.379 496.528 218.306 493.398 217.52 490.366" stroke="#263238" stroke-linecap="round" stroke-linejoin="round"/>
<path d="M213.08 499.584C213.08 499.584 216.47 498.765 217.724 499.584" stroke="#263238" stroke-linecap="round" stroke-linejoin="round"/>
<path d="M205.442 502.588C205.442 502.588 201.646 507.042 201.307 510.441" stroke="#263238" stroke-linecap="round" stroke-linejoin="round"/>
<path d="M197.951 504.537C197.951 504.537 202.392 500.629 205.657 500.818" stroke="#263238" stroke-linecap="round" stroke-linejoin="round"/>
<path d="M199.104 511.307C199.104 511.307 202.934 504.339 205.476 502.004" stroke="#263238" stroke-linecap="round" stroke-linejoin="round"/>
<path d="M205.657 496.42C205.657 496.42 205.194 501.909 205.657 503.303C206.12 504.697 213.261 507.578 213.261 507.578C213.261 507.578 213.713 505.459 209.352 502.004C209.352 502.004 213.872 500.384 214.38 497.041" fill="#F4999A"/>
<path d="M205.657 496.42C205.657 496.42 205.194 501.909 205.657 503.303C206.12 504.697 213.261 507.578 213.261 507.578C213.261 507.578 213.713 505.459 209.352 502.004C209.352 502.004 213.872 500.384 214.38 497.041" stroke="#263238" stroke-linecap="round" stroke-linejoin="round"/>
<path d="M207.735 509.904C207.735 509.904 207.566 507.079 207.735 504.97Z" fill="#F4999A"/>
<path d="M207.735 509.904C207.735 509.904 207.566 507.079 207.735 504.97" stroke="#263238" stroke-linecap="round" stroke-linejoin="round"/>
<path d="M211.69 500.771C211.69 500.771 214.38 500.771 214.38 504.961" stroke="#263238" stroke-linecap="round" stroke-linejoin="round"/>
<path d="M214.628 499.311C215.47 499.6 216.171 500.118 216.617 500.78C216.941 502.001 217.093 503.249 217.069 504.499" stroke="#263238" stroke-linecap="round" stroke-linejoin="round"/>
<path d="M295.382 372.478C294.713 374.297 294.248 376.163 293.993 378.053C292.212 377.489 290.6 376.607 289.273 375.468C287.945 374.329 286.934 372.961 286.309 371.461L295.382 372.478Z" fill="#263238"/>
<path d="M278.988 366.414C268.977 355.115 277.27 334.306 287.925 331.51C307.789 326.293 313.687 338.016 314.004 344.325C314.263 349.664 309.676 356.066 309.958 359.287C310.67 367.337 300.501 375.36 294.931 375.294C291.439 375.294 288.061 373.684 284.513 371.122" fill="#F4999A"/>
<path d="M278.988 366.414C268.977 355.115 277.27 334.306 287.925 331.51C307.789 326.293 313.687 338.016 314.004 344.325C314.263 349.664 309.676 356.066 309.958 359.287C310.67 367.337 300.501 375.36 294.931 375.294C291.439 375.294 288.061 373.684 284.513 371.122" stroke="#263238" stroke-linecap="round" stroke-linejoin="round"/>
<path d="M285.203 349.409C285.994 348.34 287.129 347.477 288.479 346.918C289.829 346.358 291.34 346.126 292.841 346.246" stroke="#263238" stroke-linecap="round" stroke-linejoin="round"/>
<path d="M305.359 347.828C305.359 347.828 309.879 347.413 311.111 350.897" stroke="#263238" stroke-linecap="round" stroke-linejoin="round"/>
<path d="M292.83 352.941C292.671 353.957 292.005 354.73 291.327 354.654C290.649 354.579 290.197 353.713 290.389 352.677C290.581 351.641 291.225 350.888 291.892 350.963C292.558 351.039 292.988 351.877 292.83 352.941Z" fill="#263238"/>
<path d="M307.021 354.136C306.874 355.153 306.196 355.925 305.518 355.85C304.84 355.775 304.388 354.908 304.58 353.873C304.772 352.837 305.416 352.084 306.083 352.159C306.75 352.234 307.179 353.11 307.021 354.136Z" fill="#263238"/>
<path d="M299.552 356.49C299.952 357.465 300.672 358.326 301.631 358.976C302.975 359.654 299.552 362.074 299.552 362.074" stroke="#263238" stroke-linecap="round" stroke-linejoin="round"/>
<path d="M300.751 365.181C300.751 365.181 294.931 365.549 291.056 363.505" stroke="#263238" stroke-linecap="round" stroke-linejoin="round"/>
<path d="M291.609 363.778C291.609 363.778 293.145 367.29 296.343 367.724C299.541 368.157 299.846 365.21 299.846 365.21" stroke="#263238" stroke-linecap="round" stroke-linejoin="round"/>
<path d="M276.807 350.897C277.681 351.146 278.477 351.554 279.137 352.092C279.798 352.629 280.306 353.283 280.626 354.004C280.626 354.004 294.886 345.935 295.733 336.867C295.733 336.867 312.682 343.129 312.286 354.833C312.286 354.833 319.212 354.127 318.614 344.937C318.015 335.747 302.23 321.971 288.106 329.419C288.106 329.419 278.807 326.19 271.463 337.244C264.118 348.298 268.073 361.575 276.954 363.505C276.92 363.505 273.892 356.49 276.807 350.897Z" fill="#263238"/>
<path d="M278.988 352.79C278.988 352.79 275.113 348.666 273.181 350.031C271.248 351.396 270.491 357.291 273.181 359.287C275.87 361.283 277.791 363.053 278.243 361.17" fill="#F4999A"/>
<path d="M278.988 352.79C278.988 352.79 275.113 348.666 273.181 350.031C271.248 351.396 270.491 357.291 273.181 359.287C275.87 361.283 277.791 363.053 278.243 361.17" stroke="#263238" stroke-linecap="round" stroke-linejoin="round"/>
<path d="M293.303 410.377C294.246 411.679 295.57 412.759 297.151 413.517C298.732 414.275 300.519 414.685 302.343 414.709" stroke="#263238" stroke-linecap="round" stroke-linejoin="round"/>
<path d="M254.615 399.926C254.615 399.926 274.423 400.726 284.637 395.745" stroke="#263238" stroke-linecap="round" stroke-linejoin="round"/>
<path d="M253.045 422.553C253.045 422.553 262.356 426.253 267.734 431.215" stroke="#263238" stroke-linecap="round" stroke-linejoin="round"/>
<path d="M239.418 465.837C241.802 475.912 255.236 492.419 254.615 501.91" stroke="#263238" stroke-linecap="round" stroke-linejoin="round"/>
<path d="M283.644 459.585C283.644 459.585 275.169 472.062 267.723 474.481" stroke="#263238" stroke-linecap="round" stroke-linejoin="round"/>
<path d="M423.322 580.589C423.322 580.589 435.92 594.468 438.293 598.479C438.293 598.479 431.954 607.311 429.796 608.639C427.638 609.967 420.632 625.371 409.548 627.085C398.464 628.798 393.661 625.371 393.661 625.371C394.067 623.542 393.631 621.653 392.441 620.079C390.419 617.16 403.537 607.509 404.565 605.494C405.593 603.479 409.424 589.167 405.616 586.229C401.808 583.291 423.322 580.589 423.322 580.589Z" fill="#263238"/>
<path d="M458.055 600.014C458.055 600.014 457.841 614.336 452.959 617.716C448.078 621.096 434.768 620.729 434.485 623.893C434.203 627.057 434.485 633.139 434.485 633.139C434.485 633.139 450.462 637.489 466.699 634.881C466.699 634.881 471.761 630.785 475.343 630.785H478.913L484.947 627.64C484.947 627.64 483.388 608.432 480.699 604.336C478.01 600.24 458.055 600.014 458.055 600.014Z" fill="#263238"/>
<path d="M376.803 386.047C376.803 386.047 375.323 412.976 383.075 418.391C390.826 423.805 408.735 402.223 408.735 402.223L376.803 386.047Z" fill="#F4999A" stroke="#263238" stroke-linecap="round" stroke-linejoin="round"/>
<path d="M370.656 370.369C370.656 370.369 367.73 373.401 367.425 374.634C367.12 375.868 370.656 377.224 370.656 377.224C370.656 377.224 367.956 381.084 369.041 382.572C370.125 384.06 372.939 384.286 372.939 384.286C372.939 384.286 373.097 387.666 373.831 388.052C375.156 388.365 376.523 388.539 377.899 388.57C377.899 388.57 377.56 391.263 381.73 391.338C385.899 391.414 386.249 366.33 386.249 366.33L370.656 370.369Z" fill="#F4999A" stroke="#263238" stroke-linecap="round" stroke-linejoin="round"/>
<path d="M413.92 451.657C413.92 451.657 374.091 514.17 372.769 527.728C371.447 541.287 400.508 591.22 400.508 591.22L398.723 597.613C398.723 597.613 411.231 602.604 421.965 596.531C432.699 590.457 430.903 588.518 430.903 588.518C430.903 588.518 407.175 543.142 413.468 531.598C419.762 520.054 438.055 495.121 438.055 495.121C438.055 495.121 444.315 535.28 447.445 539.602C450.574 543.924 455.93 603.159 455.93 604.459C455.93 605.758 451.015 607.575 455.93 610.391C460.845 613.206 481.862 613.536 484.54 610.391C487.217 607.246 483.206 609.722 484.54 596.568C485.873 583.414 487.771 539.715 485.489 533.482C483.206 527.248 484.991 481.864 484.099 469.18C483.206 456.497 480.076 449.266 480.076 449.266L413.92 451.657Z" fill="#EF233C"/>
<mask id="mask10_481_4328" style="mask-type:luminance" maskUnits="userSpaceOnUse" x="372" y="449" width="115" height="164">
<path d="M413.92 451.657C413.92 451.657 374.091 514.17 372.769 527.728C371.447 541.287 400.508 591.22 400.508 591.22L398.723 597.613C398.723 597.613 411.231 602.604 421.965 596.531C432.699 590.457 430.903 588.518 430.903 588.518C430.903 588.518 407.175 543.142 413.468 531.598C419.762 520.054 438.055 495.121 438.055 495.121C438.055 495.121 444.315 535.28 447.445 539.602C450.574 543.924 455.93 603.159 455.93 604.459C455.93 605.758 451.015 607.575 455.93 610.391C460.845 613.206 481.862 613.536 484.54 610.391C487.217 607.246 483.206 609.722 484.54 596.568C485.873 583.414 487.771 539.715 485.489 533.482C483.206 527.248 484.991 481.864 484.099 469.18C483.206 456.497 480.076 449.266 480.076 449.266L413.92 451.657Z" fill="white"/>
</mask>
<g mask="url(#mask10_481_4328)">
<path opacity="0.15" d="M484.259 473.775C454.994 473.775 425.504 463.031 410.724 456.685C412.702 453.521 413.888 451.657 413.888 451.657L480.044 449.19C480.044 449.19 483.174 456.421 484.067 469.105C484.191 470.366 484.259 471.948 484.259 473.775Z" fill="black"/>
<path opacity="0.15" d="M472.44 607.641C472.44 607.641 461.141 611.841 453.83 607.368C454.214 606.135 455.932 605.193 455.932 604.421C455.932 603.121 450.576 543.886 447.446 539.564C444.316 535.242 438.057 495.121 438.057 495.121C438.057 495.121 419.729 520.083 413.47 531.636C407.21 543.189 430.904 588.555 430.904 588.555C430.904 588.555 432.689 590.485 421.967 596.568C411.244 602.651 398.724 597.651 398.724 597.651L400.51 591.257C400.51 591.257 373.494 544.837 372.748 529.367C378.895 529.941 388.103 530.308 396.408 528.425C410.464 525.346 423.526 499.961 423.526 499.961C423.526 499.961 412.306 495.46 412.724 493.822C413.142 492.183 429.673 491.938 429.673 491.938C429.673 491.938 422.317 482.758 424.452 479.472C424.452 479.472 440.633 487.39 452.836 496.307C465.039 505.224 463.796 509.913 463.796 509.913C463.796 509.913 453.22 508.247 447.503 503.576C441.785 498.906 450.192 534.743 457.389 539.545C464.406 544.253 471.084 542.219 471.423 542.116C471.231 542.615 464.146 559.695 457.389 556.918C450.632 554.14 462.79 588.338 465.05 593.545C467.31 598.752 462.519 599.703 462.519 599.703L472.44 607.641Z" fill="black"/>
</g>
<path d="M413.92 451.657C413.92 451.657 374.091 514.17 372.769 527.728C371.447 541.287 400.508 591.22 400.508 591.22L398.723 597.613C398.723 597.613 411.231 602.604 421.965 596.531C432.699 590.457 430.903 588.518 430.903 588.518C430.903 588.518 407.175 543.142 413.468 531.598C419.762 520.054 438.055 495.121 438.055 495.121C438.055 495.121 444.315 535.28 447.445 539.602C450.574 543.924 455.93 603.159 455.93 604.459C455.93 605.758 451.015 607.575 455.93 610.391C460.845 613.206 481.862 613.536 484.54 610.391C487.217 607.246 483.206 609.722 484.54 596.568C485.873 583.414 487.771 539.715 485.489 533.482C483.206 527.248 484.991 481.864 484.099 469.18C483.206 456.497 480.076 449.266 480.076 449.266L413.92 451.657Z" stroke="#263238" stroke-linecap="round" stroke-linejoin="round"/>
<path d="M445.06 367.422C445.06 367.422 493.036 358.675 515.488 368.675C521.069 371.161 524.877 378.759 524.425 388.448C523.973 398.137 487.037 443.155 487.488 449.2C487.94 455.245 489.274 455.377 486.596 456.431C483.918 457.486 427.841 457.034 413.287 453.898C407.446 452.646 413.773 446.799 413.773 446.799C413.773 446.799 424.959 396.838 445.06 367.422Z" fill="#263238"/>
<path d="M500.63 365.708C500.63 365.708 475.964 373.947 467.863 365.341C469.237 365.406 470.608 365.181 471.85 364.687C473.092 364.193 474.165 363.447 474.97 362.516C476.241 360.883 476.931 358.983 476.959 357.036C477.069 355.212 476.928 353.383 476.541 351.584C475.591 346.763 499.918 349.88 499.918 349.88C499.918 349.88 494.687 363.298 500.63 365.708Z" fill="#F4999A" stroke="#263238" stroke-linecap="round" stroke-linejoin="round"/>
<path d="M453.998 408.645V413.118L451.32 415.359V434.859L425.988 445.546L372.724 436.252L374.08 413.861L374.136 412.873L371.786 411.997L371.447 411.875V406.658L373.39 406.385L380.498 405.406L398.271 402.939L440.925 407.308L453.998 408.645Z" fill="#F4999A"/>
<mask id="mask11_481_4328" style="mask-type:luminance" maskUnits="userSpaceOnUse" x="371" y="402" width="83" height="44">
<path d="M453.998 408.645V413.118L451.32 415.359V434.859L425.988 445.546L372.724 436.252L374.08 413.861L374.136 412.873L371.786 411.997L371.447 411.875V406.658L373.39 406.385L380.498 405.406L398.271 402.939L440.925 407.308L453.998 408.645Z" fill="white"/>
</mask>
<g mask="url(#mask11_481_4328)">
<path opacity="0.4" d="M453.997 408.645V408.664L429.637 414.737L373.39 406.385L380.497 405.406L426.767 409.144L440.924 407.308L453.997 408.645Z" fill="#F4999A"/>
<path opacity="0.4" d="M453.997 412.958V413.118L451.32 415.359V422.261L427.501 422.939L374.079 413.862L374.135 412.873L371.785 411.998L428.439 420.133L453.997 412.958Z" fill="black"/>
</g>
<path d="M453.998 408.645V413.118L451.32 415.359V434.859L425.988 445.546L372.724 436.252L374.08 413.861L374.136 412.873L371.786 411.997L371.447 411.875V406.658L373.39 406.385L380.498 405.406L398.271 402.939L440.925 407.308L453.998 408.645Z" stroke="#263238" stroke-linecap="round" stroke-linejoin="round"/>
<path d="M377.899 407.845L429.649 414.737L450.348 410.406" stroke="#263238" stroke-linecap="round" stroke-linejoin="round"/>
<path d="M371.458 411.875L428.44 420.133L453.998 413.118" stroke="#263238" stroke-linecap="round" stroke-linejoin="round"/>
<path d="M425.988 443.889L427.548 422.185" stroke="#263238" stroke-linecap="round" stroke-linejoin="round"/>
<path d="M451.32 347.668V354.409L447.738 356.49L448.066 361.179L448.925 373.627L448.936 373.806L389.333 380.887H372.769L372.724 380.67L368.995 362.074L366.148 360.982L366.464 352.959L422.711 341.086L451.32 347.668Z" fill="#EF233C"/>
<mask id="mask12_481_4328" style="mask-type:luminance" maskUnits="userSpaceOnUse" x="366" y="341" width="86" height="40">
<path d="M451.32 347.668V354.409L447.738 356.49L448.066 361.179L448.925 373.627L448.936 373.806L389.333 380.887H372.769L372.724 380.67L368.995 362.074L366.148 360.982L366.464 352.959L422.711 341.086L451.32 347.668Z" fill="white"/>
</mask>
<g mask="url(#mask12_481_4328)">
<path opacity="0.4" d="M451.319 354.409L447.737 356.49L448.065 361.179L424.416 351.905L368.994 362.074L366.147 360.982L424.416 349.25L451.319 354.24V354.409Z" fill="black"/>
<path opacity="0.4" d="M448.935 373.806L389.343 380.887H372.767V380.67C384.394 378.213 428.732 369.456 428.732 369.456L448.923 373.656L448.935 373.806Z" fill="black"/>
</g>
<path d="M451.32 347.668V354.409L447.738 356.49L448.066 361.179L448.925 373.627L448.936 373.806L389.333 380.887H372.769L372.724 380.67L368.995 362.074L366.148 360.982L366.464 352.959L422.711 341.086L451.32 347.668Z" stroke="#263238" stroke-linecap="round" stroke-linejoin="round"/>
<path d="M371.458 360.982L424.417 349.25L451.32 354.409" stroke="#263238" stroke-linecap="round" stroke-linejoin="round"/>
<path d="M375.933 380.002L427.547 369.268L445.106 372.836" stroke="#263238" stroke-linecap="round" stroke-linejoin="round"/>
<path d="M427.547 369.267L424.417 352.761" stroke="#263238" stroke-linecap="round" stroke-linejoin="round"/>
<path d="M457.354 378.571V383.57H454.371L454.45 390.34L454.62 404.483L435.558 406.291L379.831 404.276L381.04 385.585L377.899 384.776L377.91 384.634L378.181 379.804L435.795 372.516L457.354 378.571Z" fill="#EF233C"/>
<mask id="mask13_481_4328" style="mask-type:luminance" maskUnits="userSpaceOnUse" x="377" y="372" width="81" height="35">
<path d="M457.354 378.571V383.57H454.371L454.45 390.34L454.62 404.483L435.558 406.291L379.831 404.276L381.04 385.585L377.899 384.776L377.91 384.634L378.181 379.804L435.795 372.516L457.354 378.571Z" fill="white"/>
</mask>
<g mask="url(#mask13_481_4328)">
<path opacity="0.5" d="M457.354 378.571V383.57H454.371L454.45 390.34L454.62 404.483L435.558 406.291L379.831 404.276L381.04 385.585L377.899 384.776L377.91 384.634L378.181 379.804L435.795 372.516L457.354 378.571Z" fill="#F4999A"/>
<path opacity="0.2" d="M457.354 383.571H454.371L454.45 390.341L434.925 382.139L381.04 385.586L377.899 384.776L377.91 384.635L436.044 379.343L457.354 383.184V383.571Z" fill="black"/>
</g>
<path d="M457.354 378.571V383.57H454.371L454.45 390.34L454.62 404.483L435.558 406.291L379.831 404.276L381.04 385.585L377.899 384.776L377.91 384.634L378.181 379.804L435.795 372.516L457.354 378.571Z" stroke="#263238" stroke-linecap="round" stroke-linejoin="round"/>
<path d="M381.729 384.286L436.044 379.343L453.998 382.328" stroke="#263238" stroke-linecap="round" stroke-linejoin="round"/>
<path d="M434.925 383.26V404.493" stroke="#263238" stroke-linecap="round" stroke-linejoin="round"/>
<g opacity="0.5">
<path d="M489.68 391.32C489.68 391.32 489.014 389.437 489.68 388.655C490.347 387.874 501.533 389.126 505.104 391.32" stroke="#F4999A" stroke-linecap="round" stroke-linejoin="round"/>
<path d="M491.738 386.235C496.144 382.444 502.132 380.212 508.46 380.001" stroke="#F4999A" stroke-linecap="round" stroke-linejoin="round"/>
<path d="M463.76 369.268C463.76 369.268 477.251 373.891 491.737 369.268" stroke="#F4999A" stroke-linecap="round" stroke-linejoin="round"/>
<path d="M423.525 449.924C423.525 449.924 463.309 449.293 479.851 433.042" stroke="#F4999A" stroke-linecap="round" stroke-linejoin="round"/>
<path d="M483.128 388.438C483.128 388.438 485.885 397.788 496.167 400.575" stroke="#F4999A" stroke-linecap="round" stroke-linejoin="round"/>
<path d="M457.354 386.235C457.354 386.235 458.326 405.792 467.637 413.616" stroke="#F4999A" stroke-linecap="round" stroke-linejoin="round"/>
</g>
<path d="M491.737 391.32C495.695 392.374 499.355 394.086 502.498 396.351C505.64 398.617 508.198 401.39 510.019 404.502C510.019 404.502 487.071 437.863 483.127 439.341C481.884 439.812 476.45 441.921 475.116 442.081C462.766 443.55 453.919 443.399 441.479 444.162C434.53 444.595 427.717 443.766 420.745 444.049C418.011 444.153 416.903 445.094 414.158 445.151C413.084 445.151 411.638 444.812 410.564 444.821C408.542 444.821 405.401 445.81 403.446 445.348C402.847 445.207 401.909 444.84 401.322 444.67C399.808 444.228 396.339 445.555 394.475 444.849C394.068 444.689 392.429 443.427 392.011 443.333C390.018 442.775 388.12 442.006 386.362 441.045C385.604 440.298 385.104 439.393 384.916 438.428C387.797 437.816 391.107 437.844 394.09 437.59C394.09 437.59 386.181 435.706 386.181 433.042C386.181 430.377 387.966 430.019 387.966 430.019C392.528 432.328 397.843 433.385 403.164 433.042C412.553 432.627 414.135 434.868 417.852 434.868C434.914 434.868 452.36 427.336 458.947 426.253C465.535 425.17 469.738 424.577 469.738 424.577C469.738 424.577 477.229 410.274 483.116 404.502C486.912 400.573 489.832 396.108 491.737 391.32Z" fill="#F4999A" stroke="#263238" stroke-linecap="round" stroke-linejoin="round"/>
<path d="M469.75 424.567C471.524 424.297 473.342 424.297 475.117 424.567" stroke="#263238" stroke-linecap="round" stroke-linejoin="round"/>
<path d="M394.101 437.58C396.429 437.796 398.724 438.213 400.949 438.823" stroke="#263238" stroke-linecap="round" stroke-linejoin="round"/>
<path d="M438.802 458.606C438.802 459.548 433.74 480.941 437.31 490.366" stroke="#263238" stroke-linecap="round" stroke-linejoin="round"/>
<path d="M444.168 458.606C444.168 458.606 442.371 470.79 442.97 474.481C443.569 478.172 436.089 478.521 436.089 478.521" stroke="#263238" stroke-linecap="round" stroke-linejoin="round"/>
<path d="M465.049 454.124C465.049 454.124 470.856 466.223 479.873 469.839" stroke="#263238" stroke-linecap="round" stroke-linejoin="round"/>
<path d="M423.525 453.305C423.525 453.305 417.683 458.295 410.813 459.547" stroke="#263238" stroke-linecap="round" stroke-linejoin="round"/>
<path d="M434.033 487.89C434.033 487.89 418.824 514.188 412.723 523.133C406.621 532.079 405.424 533.811 407.209 535.544C408.994 537.276 408.746 549.95 410.813 553.18C412.881 556.409 421.073 585.956 423.525 587.199C425.977 588.442 425.988 591.907 425.988 591.907" stroke="#263238" stroke-linecap="round" stroke-linejoin="round"/>
<path d="M408.734 494.914C408.734 494.914 427.309 496.684 436.032 493.398" stroke="#263238" stroke-linecap="round" stroke-linejoin="round"/>
<path d="M441.479 490.413C441.479 490.413 461.908 510.883 467.637 512.436" stroke="#263238" stroke-linecap="round" stroke-linejoin="round"/>
<path d="M479.851 534.056C479.851 534.056 469.196 556.654 462.903 556.908" stroke="#263238" stroke-linecap="round" stroke-linejoin="round"/>
<path d="M409.898 530.901C409.898 530.901 401.808 542.351 388.136 539.912" stroke="#263238" stroke-linecap="round" stroke-linejoin="round"/>
<path d="M425.988 584.572C425.988 584.572 416.451 598.112 404.52 591.898" stroke="#263238" stroke-linecap="round" stroke-linejoin="round"/>
<path d="M459.659 604.345C459.659 604.345 469.535 609.731 476.947 606.765" stroke="#263238" stroke-linecap="round" stroke-linejoin="round"/>
<path d="M486.009 355.116C486.009 355.116 481.761 361.217 474.97 362.507C476.241 360.874 476.931 358.974 476.959 357.027C481.557 355.916 486.009 355.116 486.009 355.116Z" fill="#263238"/>
<path d="M499.918 348.76C506.799 340.286 517.274 306.755 483.444 313.3C466.62 316.557 468.755 334.956 468.755 334.956L462.45 343.628L467.75 344.325L467.546 348.317L469.185 348.798C469.185 348.798 467.75 358.477 469.185 359.089C471.806 360.2 489.015 358.458 489.015 354.974" fill="#F4999A"/>
<path d="M499.918 348.76C506.799 340.286 517.274 306.755 483.444 313.3C466.62 316.557 468.755 334.956 468.755 334.956L462.45 343.628L467.75 344.325L467.546 348.317L469.185 348.798C469.185 348.798 467.75 358.477 469.185 359.089C471.806 360.2 489.015 358.458 489.015 354.974" stroke="#263238" stroke-linecap="round" stroke-linejoin="round"/>
<path d="M469.23 348.76C469.23 348.76 475.037 350.031 476.54 351.585C476.54 351.585 471.919 352.931 471.162 350.991" stroke="#263238" stroke-linecap="round" stroke-linejoin="round"/>
<path d="M471.67 327.565C471.67 327.565 477.399 327.085 480.133 330.314" stroke="#263238" stroke-linecap="round" stroke-linejoin="round"/>
<path d="M475.105 334.909C475.105 335.851 474.642 336.642 474.066 336.642C473.489 336.642 473.026 335.87 473.026 334.909C473.026 333.949 473.501 333.177 474.066 333.177C474.631 333.177 475.105 333.958 475.105 334.909Z" fill="#263238"/>
<path d="M472.065 320.747C472.065 320.747 469.014 314.269 474.065 310.202C479.116 306.134 495.465 310.333 495.465 310.333L492.313 311.388C492.313 311.388 504.64 313.478 510.392 318.403C516.143 323.327 510.674 346.556 499.929 352.027C499.929 352.027 496.053 351.528 494.618 347.47C493.183 343.411 488.279 339.381 488.279 339.381V331.576C488.279 331.576 484.065 327.499 487.793 321.736C487.816 321.736 479.409 318.911 472.065 320.747Z" fill="#263238"/>
<path d="M487.15 340.54C487.15 340.54 492.461 334.589 495.184 335.531C497.907 336.472 498.574 341.971 497.184 344.476C495.794 346.98 490.596 352.112 489.444 350.21" fill="#F4999A"/>
<path d="M487.15 340.54C487.15 340.54 492.461 334.589 495.184 335.531C497.907 336.472 498.574 341.971 497.184 344.476C495.794 346.98 490.596 352.112 489.444 350.21" stroke="#263238" stroke-linecap="round" stroke-linejoin="round"/>
<g filter="url(#filter0_f_481_4328)">
<circle cx="384.848" cy="612.898" r="88.1017" fill="#EF233C"/>
</g>
<g opacity="0.45" filter="url(#filter1_f_481_4328)">
<circle cx="225.797" cy="405.508" r="88.1017" fill="#EF233C"/>
</g>
<defs>
<filter id="filter0_f_481_4328" x="-20.2542" y="207.796" width="810.203" height="810.204" filterUnits="userSpaceOnUse" color-interpolation-filters="sRGB">
<feFlood flood-opacity="0" result="BackgroundImageFix"/>
<feBlend mode="normal" in="SourceGraphic" in2="BackgroundImageFix" result="shape"/>
<feGaussianBlur stdDeviation="158.5" result="effect1_foregroundBlur_481_4328"/>
</filter>
<filter id="filter1_f_481_4328" x="-179.305" y="0.406738" width="810.203" height="810.204" filterUnits="userSpaceOnUse" color-interpolation-filters="sRGB">
<feFlood flood-opacity="0" result="BackgroundImageFix"/>
<feBlend mode="normal" in="SourceGraphic" in2="BackgroundImageFix" result="shape"/>
<feGaussianBlur stdDeviation="158.5" result="effect1_foregroundBlur_481_4328"/>
</filter>
</defs>
</svg>
