<svg width="135" height="66" viewBox="0 0 135 66" fill="none" xmlns="http://www.w3.org/2000/svg">
<g clip-path="url(#clip0_23_433)">
<mask id="mask0_23_433" style="mask-type:luminance" maskUnits="userSpaceOnUse" x="0" y="-1" width="40" height="54">
<path d="M0.143555 -0.126343H39.5186V52.8993H0.143555V-0.126343Z" fill="white"/>
</mask>
<g mask="url(#mask0_23_433)">
<path d="M39.1845 22.2556L38.2851 14.2994C38.124 12.9068 36.9433 11.8461 35.54 11.8461H31.0693V9.57797C31.0693 4.25132 26.748 -0.0793457 21.4306 -0.0793457C16.1103 -0.0793457 11.789 4.25132 11.789 9.57797V11.8461H7.32125C5.91793 11.8461 4.73434 12.9068 4.57613 14.2994L0.536094 49.8026C0.339805 51.5037 1.66988 52.9845 3.38082 52.9845H4.88375C11.0888 26.3101 30.9726 22.6111 39.1845 22.2556ZM29.8388 14.743C30.5156 14.743 31.0693 15.2983 31.0693 15.977C31.0693 16.6557 30.5156 17.211 29.8388 17.211C29.1621 17.211 28.6084 16.6557 28.6084 15.977C28.6084 15.2983 29.1621 14.743 29.8388 14.743ZM14.2529 9.58973C14.2529 5.63219 17.4668 2.40036 21.4306 2.40036C25.3945 2.40036 28.6084 5.63219 28.6084 9.58973V11.8579H14.2529V9.58973ZM13.0224 14.743C13.6992 14.743 14.2529 15.2983 14.2529 15.977C14.2529 16.6557 13.6992 17.211 13.0224 17.211C12.3457 17.211 11.789 16.6557 11.789 15.977C11.789 15.2983 12.3457 14.743 13.0224 14.743Z" fill="#EF233C"/>
</g>
<path d="M32.7881 39.2407C33.8896 38.4739 34.5635 37.2105 34.5635 35.8561C34.5635 33.5321 32.5391 31.7957 29.8174 31.7957H23.3135V47.5906H29.9961C32.7412 47.5906 34.9707 45.5575 34.9707 43.0308C34.9707 41.3385 34.1592 39.987 32.7881 39.2407ZM31.2559 36.3761C31.2559 37.3692 30.5586 38.0684 29.501 38.0684H26.6445V34.7044H29.501C30.5586 34.7044 31.2559 35.3831 31.2559 36.3761ZM29.6826 44.4528H26.6445V40.9095H29.6826C30.8076 40.9095 31.5488 41.6558 31.5488 42.6694C31.5488 43.7094 30.8076 44.4528 29.6826 44.4528Z" fill="#003E29"/>
<path d="M49.325 41.453C49.325 37.9333 46.7585 35.0452 43.0261 35.0452C39.4255 35.0452 36.7244 37.8187 36.7244 41.4736C36.7244 45.1314 39.446 47.9284 43.0261 47.9284C45.8591 47.9284 48.1765 46.2361 49.0554 43.5743H45.613C45.1179 44.4528 44.1716 44.9934 43.0261 44.9934C41.4265 44.9934 40.3484 44.0708 40.0554 42.3991H49.2576C49.3015 42.0847 49.325 41.7674 49.325 41.453ZM43.0261 37.8657C44.5085 37.8657 45.5662 38.6766 46.0408 40.1662H40.1433C40.5271 38.7206 41.5613 37.8657 43.0261 37.8657Z" fill="#003E29"/>
<path d="M51.666 47.5671H54.9502V31.0054H51.666V47.5671Z" fill="#003E29"/>
<path d="M68.0002 35.383L67.6633 36.5318C66.6057 35.6093 65.2317 35.0452 63.6584 35.0452C60.011 35.0452 57.2893 37.7981 57.2893 41.4736C57.2893 45.152 60.011 47.9284 63.6584 47.9284C65.2083 47.9284 66.5588 47.3878 67.5959 46.4624L67.886 47.5671H70.4524V35.383H68.0002ZM63.928 44.8141C62.0149 44.8141 60.6204 43.3716 60.6204 41.4736C60.6204 39.558 62.0149 38.136 63.928 38.136C65.8411 38.136 67.2356 39.558 67.2356 41.4736C67.2356 43.3921 65.8411 44.8141 63.928 44.8141Z" fill="#003E29"/>
<path d="M80.5312 35.1128C78.8906 35.1128 77.4287 35.812 76.5059 36.8932L75.876 35.3831H73.626V47.5671H76.9102V41.1828C76.9102 39.2172 77.9443 38.0009 79.6318 38.0009C81.0498 38.0009 81.7471 38.8794 81.7471 40.7303V47.5671H85.0312V40.1897C85.0312 37.096 83.2998 35.1128 80.5312 35.1128Z" fill="#003E29"/>
<path d="M88.3179 33.7584H91.5786V30.7116H88.3179V33.7584ZM85.4585 51.9683H87.0347C89.7124 51.9683 91.6021 50.0703 91.6021 47.4085V35.3831H88.3179V47.1617C88.3179 48.3339 87.688 48.9421 86.5161 48.9421H85.4585V51.9683Z" fill="#003E29"/>
<path d="M104.653 35.383L104.316 36.5318C103.258 35.6093 101.884 35.0452 100.311 35.0452C96.6636 35.0452 93.9419 37.7981 93.9419 41.4736C93.9419 45.152 96.6636 47.9284 100.311 47.9284C101.861 47.9284 103.211 47.3878 104.249 46.4624L104.539 47.5671H107.105V35.383H104.653ZM100.581 44.8141C98.6675 44.8141 97.273 43.3716 97.273 41.4736C97.273 39.558 98.6675 38.136 100.581 38.136C102.494 38.136 103.888 39.558 103.888 41.4736C103.888 43.3921 102.494 44.8141 100.581 44.8141Z" fill="#003E29"/>
<path d="M110.029 47.5671H113.519V44.0473H110.029V47.5671Z" fill="#003E29"/>
<path d="M116.443 33.7584H119.704V30.7116H116.443V33.7584ZM116.443 47.5671H119.728V35.3831H116.443V47.5671Z" fill="#003E29"/>
<path d="M131.788 31.0054V36.0588C130.841 35.4036 129.716 35.0452 128.457 35.0452C124.768 35.0452 122.067 37.7981 122.067 41.4971C122.067 45.1755 124.768 47.952 128.457 47.952C129.942 47.952 131.249 47.4319 132.259 46.574L132.643 47.5906H135.072V31.0054H131.788ZM128.726 44.8376C126.816 44.8376 125.418 43.3921 125.418 41.4971C125.418 39.5786 126.816 38.1565 128.726 38.1565C130.639 38.1565 132.034 39.5786 132.034 41.4971C132.034 43.3921 130.639 44.8376 128.726 44.8376Z" fill="#003E29"/>
</g>
<defs>
<clipPath id="clip0_23_433">
<rect width="135" height="66" fill="white"/>
</clipPath>
</defs>
</svg>
