<svg width="600" height="535" viewBox="0 0 600 535" fill="none" xmlns="http://www.w3.org/2000/svg">
<path d="M586.632 299.465H203.47V319.839H586.632" stroke="#F4999A" stroke-linecap="round" stroke-linejoin="round"/>
<path d="M221.426 321.843V474.013" stroke="#F4999A" stroke-linecap="round" stroke-linejoin="round"/>
<path d="M575.691 260.227C581.589 253.85 502.258 253.754 485.592 254.382C468.926 255.01 478.491 263.802 478.491 263.802C478.491 263.802 461.317 276.676 473.418 279.103L470.448 291.18" stroke="#F4999A" stroke-linecap="round" stroke-linejoin="round"/>
<path d="M495.823 262.352C495.823 262.352 565.836 264.985 576.009 268.017C586.183 271.048 575.69 279.767 575.69 279.767C575.69 279.767 584.748 288.33 583.734 291.156" stroke="#F4999A" stroke-linecap="round" stroke-linejoin="round"/>
<path d="M481.389 280.311C481.389 280.311 550.763 288.137 564.937 282.062" stroke="#F4999A" stroke-linecap="round" stroke-linejoin="round"/>
<path d="M455.028 260.275C460.926 253.899 381.58 253.802 364.929 254.43C348.277 255.058 357.828 263.85 357.828 263.85C357.828 263.85 340.64 276.724 352.741 279.151L349.842 291.228" stroke="#F4999A" stroke-linecap="round" stroke-linejoin="round"/>
<path d="M375.16 262.401C375.16 262.401 445.172 265.034 455.331 268.065C465.49 271.096 455.027 279.816 455.027 279.816C455.027 279.816 464.07 288.378 463.07 291.204" stroke="#F4999A" stroke-linecap="round" stroke-linejoin="round"/>
<path d="M360.727 280.359C360.727 280.359 430.101 288.173 444.26 282.11" stroke="#F4999A" stroke-linecap="round" stroke-linejoin="round"/>
<path d="M338.712 262.727C344.595 256.35 265.265 256.266 248.598 256.894C231.932 257.522 241.512 266.302 241.512 266.302C241.512 266.302 224.324 279.188 236.425 281.615L233.526 293.692" stroke="#F4999A" stroke-linecap="round" stroke-linejoin="round"/>
<path d="M258.845 264.864C258.845 264.864 328.843 267.485 339.017 270.516C349.19 273.548 338.712 282.279 338.712 282.279C338.712 282.279 347.756 290.842 346.756 293.656" stroke="#F4999A" stroke-linecap="round" stroke-linejoin="round"/>
<path d="M244.396 282.823C244.396 282.823 313.785 290.637 327.944 284.574" stroke="#F4999A" stroke-linecap="round" stroke-linejoin="round"/>
<path d="M594.313 170.64H493.62V196.895H594.313V170.64Z" stroke="#F4999A" stroke-linecap="round" stroke-linejoin="round"/>
<path d="M538.604 247.135V196.895" stroke="#F4999A" stroke-linecap="round" stroke-linejoin="round"/>
<path d="M549.879 197.548V248.645" stroke="#F4999A" stroke-linecap="round" stroke-linejoin="round"/>
<path d="M253.947 354.632V443.168H397.725V351.77H283.453" stroke="#F4999A" stroke-linecap="round" stroke-linejoin="round"/>
<path d="M564.937 368.642V444.219H419.159V353.352H549.88" stroke="#F4999A" stroke-linecap="round" stroke-linejoin="round"/>
<path d="M124.167 141.028H41.8652V241.955H124.167V141.028Z" stroke="#F4999A" stroke-linecap="round" stroke-linejoin="round"/>
<path d="M76.1982 241.955V482.104" stroke="#F4999A" stroke-linecap="round" stroke-linejoin="round"/>
<path d="M89.3423 251.048V488.517" stroke="#F4999A" stroke-linecap="round" stroke-linejoin="round"/>
<path d="M170.5 179.42C154.935 180.314 150.877 196.074 140.573 228.561C130.269 261.048 134.66 254.768 126.255 263.862C119.994 270.649 102.168 322.689 102.168 322.689C102.168 322.689 116.313 322.037 117.385 319.839C127.704 298.547 144.414 280.214 143.37 272.304C142.327 264.393 162.949 232.861 162.949 232.861L170.5 179.42Z" fill="#F4999A"/>
<mask id="mask0_129_166" style="mask-type:luminance" maskUnits="userSpaceOnUse" x="102" y="179" width="69" height="144">
<path d="M170.5 179.42C154.935 180.314 150.877 196.074 140.573 228.561C130.269 261.048 134.66 254.768 126.255 263.862C119.994 270.649 102.168 322.689 102.168 322.689C102.168 322.689 116.313 322.037 117.385 319.839C127.704 298.547 144.414 280.214 143.37 272.304C142.327 264.393 162.949 232.861 162.949 232.861L170.5 179.42Z" fill="white"/>
</mask>
<g mask="url(#mask0_129_166)">
<path opacity="0.4" d="M168.777 191.606L162.98 232.861C162.98 232.861 154.502 245.807 148.69 257.183C143.154 244.974 143.372 228.356 145.372 213.525C152.067 192.862 156.82 181.896 167.733 179.71L168.777 191.606Z" fill="#EF233C"/>
</g>
<path d="M170.5 179.42C154.935 180.314 150.877 196.074 140.573 228.561C130.269 261.048 134.66 254.768 126.255 263.862C119.994 270.649 102.168 322.689 102.168 322.689C102.168 322.689 116.313 322.037 117.385 319.839C127.704 298.547 144.414 280.214 143.37 272.304C142.327 264.393 162.949 232.861 162.949 232.861L170.5 179.42Z" stroke="#263238" stroke-linecap="round" stroke-linejoin="round"/>
<path d="M140.574 291.156C140.574 291.156 149.269 352.096 180.732 384.8C212.195 417.505 219.644 457.805 219.644 457.805L238.484 453.277C238.484 453.277 229.673 432.915 228.078 415.053C226.136 393.399 220.325 381.926 209.238 371.721C196.108 359.644 200.543 293.559 200.543 293.559L140.574 291.156Z" fill="#F4999A"/>
<mask id="mask1_129_166" style="mask-type:luminance" maskUnits="userSpaceOnUse" x="140" y="291" width="99" height="167">
<path d="M140.574 291.156C140.574 291.156 149.269 352.096 180.732 384.8C212.195 417.505 219.644 457.805 219.644 457.805L238.484 453.277C238.484 453.277 229.673 432.915 228.078 415.053C226.136 393.399 220.325 381.926 209.238 371.721C196.108 359.644 200.543 293.559 200.543 293.559L140.574 291.156Z" fill="white"/>
</mask>
<g mask="url(#mask1_129_166)">
<path opacity="0.4" d="M228.397 418.471C218.387 417.4 208.764 414.567 200.166 410.162C194.739 401.18 188.228 392.682 180.732 384.8C149.371 352.096 140.574 291.156 140.574 291.156L200.485 293.571C200.485 293.571 195.992 359.692 209.18 371.733C220.325 381.938 226.136 393.411 228.02 415.065C228.122 416.188 228.252 417.324 228.397 418.471Z" fill="#EF233C"/>
</g>
<path d="M140.574 291.156C140.574 291.156 149.269 352.096 180.732 384.8C212.195 417.505 219.644 457.805 219.644 457.805L238.484 453.277C238.484 453.277 229.673 432.915 228.078 415.053C226.136 393.399 220.325 381.926 209.238 371.721C196.108 359.644 200.543 293.559 200.543 293.559L140.574 291.156Z" stroke="#263238" stroke-linecap="round" stroke-linejoin="round"/>
<path d="M170.065 319.899C167.166 321.469 159.514 366.697 164.094 379.438C164.094 379.438 162.934 400.138 158.746 434.799C157.559 444.618 155.774 454.381 153.398 464.049C153.398 464.049 168.644 471.742 170.065 468.3C180.731 442.661 198.499 421.647 193.325 392.324C190.716 377.542 207.817 352.41 209.092 324.983C210.368 297.557 170.065 319.899 170.065 319.899Z" fill="#F4999A"/>
<mask id="mask2_129_166" style="mask-type:luminance" maskUnits="userSpaceOnUse" x="153" y="311" width="57" height="159">
<path d="M170.065 319.899C167.166 321.469 159.514 366.697 164.094 379.438C164.094 379.438 162.934 400.138 158.746 434.799C157.559 444.618 155.774 454.381 153.398 464.049C153.398 464.049 168.644 471.742 170.065 468.3C180.731 442.661 198.499 421.647 193.325 392.324C190.716 377.542 207.817 352.41 209.092 324.983C210.368 297.557 170.065 319.899 170.065 319.899Z" fill="white"/>
</mask>
<g mask="url(#mask2_129_166)">
<path opacity="0.4" d="M209.093 324.923C208.425 334.821 206.378 344.621 202.992 354.125C197.655 352.135 192.193 350.385 186.63 348.884C179.368 346.895 171.677 346.232 164.08 346.939C165.761 333.244 168.558 320.648 170.065 319.839C170.065 319.899 210.238 297.496 209.093 324.923Z" fill="#EF233C"/>
</g>
<path d="M170.065 319.899C167.166 321.469 159.514 366.697 164.094 379.438C164.094 379.438 162.934 400.138 158.746 434.799C157.559 444.618 155.774 454.381 153.398 464.049C153.398 464.049 168.644 471.742 170.065 468.3C180.731 442.661 198.499 421.647 193.325 392.324C190.716 377.542 207.817 352.41 209.092 324.983C210.368 297.557 170.065 319.899 170.065 319.899Z" stroke="#263238" stroke-linecap="round" stroke-linejoin="round"/>
<path d="M244.468 138.974C239.497 147.344 240.309 167.645 233.729 170.99V168.37C230.715 170.99 226.846 172.816 222.599 173.623C215.599 174.903 194.165 174.336 188.6 164.3C188.833 166.132 189.457 167.915 190.441 169.565C190.441 169.565 183.687 168.056 181.745 162.597L181.571 166.22C181.571 166.22 178.673 166.667 175.412 157.126C172.151 147.585 181.064 141.547 181.745 137.018C182.426 132.489 190.441 123.214 206.498 121.064C222.556 118.915 244.468 138.974 244.468 138.974Z" fill="#263238"/>
<path d="M320.799 307.629L313.915 324.826L268.047 328.401L251.468 275.069L249.396 268.403L287.539 262.715L287.742 262.993L320.799 307.629Z" fill="#EF233C"/>
<mask id="mask3_129_166" style="mask-type:luminance" maskUnits="userSpaceOnUse" x="249" y="262" width="72" height="67">
<path d="M320.799 307.629L313.915 324.826L268.047 328.401L251.468 275.069L249.396 268.403L287.539 262.715L287.742 262.993L320.799 307.629Z" fill="white"/>
</mask>
<g mask="url(#mask3_129_166)">
<path opacity="0.4" d="M287.742 262.993L282.684 268.161L281.539 275.697L251.468 275.069L249.396 268.403L287.539 262.715L287.742 262.993Z" fill="black"/>
</g>
<path d="M320.799 307.629L313.915 324.826L268.047 328.401L251.468 275.069L249.396 268.403L287.539 262.715L287.742 262.993L320.799 307.629Z" stroke="#263238" stroke-linecap="round" stroke-linejoin="round"/>
<path d="M285.945 264.84L282.684 268.173L281.54 275.71L253.888 275.13" stroke="#263238" stroke-linecap="round" stroke-linejoin="round"/>
<path d="M283.453 279.767L310.394 321.843L309.061 308.788L316.51 307.822" stroke="#263238" stroke-linecap="round" stroke-linejoin="round"/>
<path d="M298.424 293.257L288.497 278.209" stroke="#263238" stroke-linecap="round" stroke-linejoin="round"/>
<path d="M306.003 304.646C304.191 301.904 302.365 299.175 300.554 296.446" stroke="#263238" stroke-linecap="round" stroke-linejoin="round"/>
<path d="M271.888 266.543C271.888 266.543 252.497 247.679 241.062 250.843C229.628 254.007 253.106 270.07 253.106 270.07" stroke="#263238" stroke-linecap="round" stroke-linejoin="round"/>
<path d="M267.019 277.304C267.019 277.304 248.889 249.853 240.034 250.432C231.179 251.012 247.048 276.664 247.048 276.664" stroke="#263238" stroke-linecap="round" stroke-linejoin="round"/>
<path d="M170.5 179.42C170.5 179.42 183.239 184.48 195.065 186.147C206.89 187.814 229.31 184.48 236.266 189.251C243.223 194.021 239.701 213.622 232.571 226.52C225.441 239.418 202.992 254.237 202.992 254.237C202.992 254.237 214.586 281.941 221.441 305.407C228.296 328.872 228.89 338.365 228.89 338.365C228.89 338.365 186.456 353.183 137.153 338.365C137.153 338.365 137.487 290.721 146.327 260.01C149.762 248.065 155.022 244.503 150.341 237.353C142.602 225.409 137.153 212.233 152.066 199.818C161.399 192.029 155.53 186.533 162.674 182.137C164.9 180.602 167.625 179.656 170.5 179.42Z" fill="#EF233C"/>
<mask id="mask4_129_166" style="mask-type:luminance" maskUnits="userSpaceOnUse" x="137" y="179" width="104" height="166">
<path d="M170.5 179.42C170.5 179.42 183.239 184.48 195.065 186.147C206.89 187.814 229.31 184.48 236.266 189.251C243.223 194.021 239.701 213.622 232.571 226.52C225.441 239.418 202.992 254.237 202.992 254.237C202.992 254.237 214.586 281.941 221.441 305.407C228.296 328.872 228.89 338.365 228.89 338.365C228.89 338.365 186.456 353.183 137.153 338.365C137.153 338.365 137.487 290.721 146.327 260.01C149.762 248.065 155.022 244.503 150.341 237.353C142.602 225.409 137.153 212.233 152.066 199.818C161.399 192.029 155.53 186.533 162.674 182.137C164.9 180.602 167.625 179.656 170.5 179.42Z" fill="white"/>
</mask>
<g mask="url(#mask4_129_166)">
<path opacity="0.15" d="M202.991 254.237C202.991 254.237 214.585 281.941 221.44 305.407C228.295 328.872 228.889 338.365 228.889 338.365C218.243 341.641 207.104 343.673 195.788 344.403C196.846 338.606 199.354 323.486 197.759 319.042C195.774 313.583 202.411 292.339 202.194 289.864C201.977 287.388 190.325 293.982 190.325 293.982C190.325 293.982 185.977 293.293 191.991 288.33C198.006 283.366 195.354 253.126 195.354 253.126C191.571 253.844 187.603 253.376 184.209 251.809C178.615 249.176 174.064 238.368 174.064 238.368C174.064 238.368 187.108 243.923 197.035 241.906C206.962 239.889 218.005 221.375 218.005 221.375H221.396C218.614 218.235 220.251 211.207 220.251 211.207L239.773 203.815C238.854 211.654 236.407 219.315 232.526 226.496C225.44 239.418 202.991 254.237 202.991 254.237Z" fill="black"/>
</g>
<path d="M170.5 179.42C170.5 179.42 183.239 184.48 195.065 186.147C206.89 187.814 229.31 184.48 236.266 189.251C243.223 194.021 239.701 213.622 232.571 226.52C225.441 239.418 202.992 254.237 202.992 254.237C202.992 254.237 214.586 281.941 221.441 305.407C228.296 328.872 228.89 338.365 228.89 338.365C228.89 338.365 186.456 353.183 137.153 338.365C137.153 338.365 137.487 290.721 146.327 260.01C149.762 248.065 155.022 244.503 150.341 237.353C142.602 225.409 137.153 212.233 152.066 199.818C161.399 192.029 155.53 186.533 162.674 182.137C164.9 180.602 167.625 179.656 170.5 179.42Z" stroke="#263238" stroke-linecap="round" stroke-linejoin="round"/>
<path d="M230.889 187.584C230.889 187.584 192.832 200.869 178.151 198.091C167.325 196.038 170.499 179.42 170.499 179.42C170.499 179.42 188.122 178.212 192.527 175.326C202.44 168.72 192.527 150.955 192.527 150.955L222.28 156.86C220.345 160.709 218.666 164.644 217.251 168.647C216.393 170.98 215.796 173.373 215.469 175.797C215.282 177.01 215.391 178.242 215.788 179.42C217.483 183.43 230.889 187.584 230.889 187.584Z" fill="#F4999A" stroke="#263238" stroke-linecap="round" stroke-linejoin="round"/>
<path d="M236.324 189.251C230.991 188.937 220.919 197.862 220.383 211.231C219.846 224.6 230.991 220.313 230.991 220.313L247.208 254.237C247.208 254.237 258.802 263.403 263.961 262.159C269.12 260.915 245.019 189.782 236.324 189.251Z" fill="#F4999A"/>
<mask id="mask5_129_166" style="mask-type:luminance" maskUnits="userSpaceOnUse" x="220" y="189" width="45" height="74">
<path d="M236.324 189.251C230.991 188.937 220.919 197.862 220.383 211.231C219.846 224.6 230.991 220.313 230.991 220.313L247.208 254.237C247.208 254.237 258.802 263.403 263.961 262.159C269.12 260.915 245.019 189.782 236.324 189.251Z" fill="white"/>
</mask>
<g mask="url(#mask5_129_166)">
<path opacity="0.4" d="M230.89 220.313C229.851 220.699 228.731 220.908 227.593 220.929C226.456 220.95 225.325 220.781 224.267 220.433C222.122 215.953 224.006 211.062 225.716 211.979C228.282 213.477 230.89 220.313 230.89 220.313Z" fill="#EF233C"/>
</g>
<path d="M236.324 189.251C230.991 188.937 220.919 197.862 220.383 211.231C219.846 224.6 230.991 220.313 230.991 220.313L247.208 254.237C247.208 254.237 258.802 263.403 263.961 262.159C269.12 260.915 245.019 189.782 236.324 189.251Z" stroke="#263238" stroke-linecap="round" stroke-linejoin="round"/>
<path d="M258.41 269.285C258.41 269.285 246.237 252.812 235.991 251.858C225.745 250.903 233.092 271.446 233.092 271.446" stroke="#263238" stroke-linecap="round" stroke-linejoin="round"/>
<path d="M223.31 270.879L274.323 267.111L311.67 336.734L298.7 348.087L237.035 344.463L220.267 273.149L223.31 270.879Z" fill="#EF233C"/>
<mask id="mask6_129_166" style="mask-type:luminance" maskUnits="userSpaceOnUse" x="220" y="267" width="92" height="82">
<path d="M223.31 270.879L274.323 267.111L311.67 336.734L298.7 348.087L237.035 344.463L220.267 273.149L223.31 270.879Z" fill="white"/>
</mask>
<g mask="url(#mask6_129_166)">
<path opacity="0.2" d="M274.41 267.268L267.483 272.026L266.15 276.639L220.267 273.149L223.31 270.867L274.323 267.111L274.41 267.268Z" fill="black"/>
<path opacity="0.6" d="M311.672 336.734L298.701 348.087L237.036 344.463L220.269 273.149L266.514 276.664L267.485 272.026L274.412 267.268L311.672 336.734Z" fill="#F4999A"/>
</g>
<path d="M223.31 270.879L274.323 267.111L311.67 336.734L298.7 348.087L237.035 344.463L220.267 273.149L223.31 270.879Z" stroke="#263238" stroke-linecap="round" stroke-linejoin="round"/>
<path d="M222.193 273.62L266.511 276.664L267.482 272.026L271.888 269.285" stroke="#263238" stroke-linecap="round" stroke-linejoin="round"/>
<path d="M268.438 280.311L297.104 343.534L299.017 331.432L307.437 334.971" stroke="#263238" stroke-linecap="round" stroke-linejoin="round"/>
<path d="M294.757 323.727L296.728 327.604" stroke="#263238" stroke-linecap="round" stroke-linejoin="round"/>
<path d="M278.54 291.856L292.844 319.899" stroke="#263238" stroke-linecap="round" stroke-linejoin="round"/>
<path d="M270.555 276.168C272.613 280.242 274.681 284.312 276.758 288.378" stroke="#263238" stroke-linecap="round" stroke-linejoin="round"/>
<path d="M248.092 278.209C248.092 278.209 238.773 253.886 228.745 253.174C218.716 252.461 227.295 276.458 227.295 276.458" stroke="#263238" stroke-linecap="round" stroke-linejoin="round"/>
<path d="M213.571 277.219L224.281 275.709L262.208 283.088L277.497 344.874L255.324 357.615L202.572 345.2L213.571 277.219Z" fill="#263238"/>
<mask id="mask7_129_166" style="mask-type:luminance" maskUnits="userSpaceOnUse" x="202" y="275" width="76" height="83">
<path d="M213.571 277.219L224.281 275.709L262.208 283.088L277.497 344.874L255.324 357.615L202.572 345.2L213.571 277.219Z" fill="white"/>
</mask>
<g mask="url(#mask7_129_166)">
<path opacity="0.3" d="M213.573 277.219L248.688 289.731L251.499 286.011L262.209 283.088L224.283 275.709L213.573 277.219Z" fill="black"/>
</g>
<path d="M213.571 277.219L224.281 275.709L262.208 283.088L277.497 344.874L255.324 357.615L202.572 345.2L213.571 277.219Z" stroke="#263238" stroke-linecap="round" stroke-linejoin="round"/>
<g opacity="0.5">
<path d="M214.528 279.103L249.164 291.156L252.701 286.832L261.439 284.441" stroke="#F4999A" stroke-linecap="round" stroke-linejoin="round"/>
<path d="M249.773 293.511L253.947 354.632L263.831 341.77L275.773 343.836" stroke="#F4999A" stroke-linecap="round" stroke-linejoin="round"/>
<path d="M256.469 300.926L262.208 332.133" stroke="#F4999A" stroke-linecap="round" stroke-linejoin="round"/>
<path d="M253.978 288.342L255.514 296.458" stroke="#F4999A" stroke-linecap="round" stroke-linejoin="round"/>
</g>
<path d="M219.642 285.129C219.642 285.129 213.179 256.519 226.077 253.729C238.975 250.94 237.975 291.168 237.975 291.168" stroke="#263238" stroke-linecap="round" stroke-linejoin="round"/>
<path d="M249.787 282.267C249.787 282.267 245.44 253.174 230.15 253.766" stroke="#263238" stroke-linecap="round" stroke-linejoin="round"/>
<path d="M75.6328 350.091C75.6328 350.091 95.7481 329.959 107.632 331.783C119.516 333.606 96.038 350.647 96.038 350.647" stroke="#263238" stroke-linecap="round" stroke-linejoin="round"/>
<path d="M37.5908 396.89L47.1268 413.181L93.1689 411.684L113.675 356.142L102.169 350.164L63.4451 348.715L63.3002 349.017L37.5908 396.89Z" fill="#F4999A"/>
<mask id="mask8_129_166" style="mask-type:luminance" maskUnits="userSpaceOnUse" x="37" y="348" width="77" height="66">
<path d="M37.5908 396.89L47.1268 413.181L93.1689 411.684L113.675 356.142L102.169 350.164L63.4451 348.715L63.3002 349.017L37.5908 396.89Z" fill="white"/>
</mask>
<g mask="url(#mask8_129_166)">
<path opacity="0.4" d="M63.3003 349.017L69.1262 353.582L71.4595 360.924L110.444 355.792L102.169 350.164L63.4452 348.715L63.3003 349.017Z" fill="black"/>
</g>
<path d="M37.5908 396.89L47.1268 413.181L93.1689 411.684L113.675 356.142L102.169 350.164L63.4451 348.715L63.3002 349.017L37.5908 396.89Z" stroke="#263238" stroke-linecap="round" stroke-linejoin="round"/>
<path d="M65.373 350.647L69.1266 353.582L71.4453 360.936L107.488 356.178" stroke="#263238" stroke-linecap="round" stroke-linejoin="round"/>
<path d="M70.1977 365.175L50.1403 409.836L49.4012 396.745L41.8652 396.612" stroke="#263238" stroke-linecap="round" stroke-linejoin="round"/>
<path d="M57.4893 380.175L65.0253 364.161" stroke="#263238" stroke-linecap="round" stroke-linejoin="round"/>
<path d="M51.7793 392.361C53.2285 389.45 54.5183 386.552 55.8806 383.641" stroke="#263238" stroke-linecap="round" stroke-linejoin="round"/>
<path d="M86.1108 360.961C86.1108 360.961 99.7336 331.759 108.603 331.372C117.472 330.986 105.806 358.147 105.806 358.147" stroke="#263238" stroke-linecap="round" stroke-linejoin="round"/>
<path d="M128.863 355.103L117.994 354.777L81.5749 366.262L76.1982 429.195L100.198 439.388L150.515 421.285L128.863 355.103Z" fill="#263238"/>
<mask id="mask9_129_166" style="mask-type:luminance" maskUnits="userSpaceOnUse" x="76" y="354" width="75" height="86">
<path d="M128.863 355.103L117.994 354.777L81.5749 366.262L76.1982 429.195L100.198 439.388L150.515 421.285L128.863 355.103Z" fill="white"/>
</mask>
<g mask="url(#mask9_129_166)">
<path opacity="0.3" d="M128.863 355.103L96.0375 371.371L92.6608 367.989L81.5742 366.262L117.993 354.777L128.863 355.103Z" fill="black"/>
</g>
<path d="M128.863 355.103L117.994 354.777L81.5749 366.262L76.1982 429.195L100.198 439.388L150.515 421.285L128.863 355.103Z" stroke="#263238" stroke-linecap="round" stroke-linejoin="round"/>
<g opacity="0.5">
<path d="M128.212 357.084L95.7784 372.832L91.5901 368.931L82.5469 367.53" stroke="#F4999A" stroke-linecap="round" stroke-linejoin="round"/>
<path d="M95.5475 375.235L101.098 436.284L89.2579 424.618L77.751 427.988" stroke="#F4999A" stroke-linecap="round" stroke-linejoin="round"/>
<path d="M90.0829 383.315L89.3438 414.884" stroke="#F4999A" stroke-linecap="round" stroke-linejoin="round"/>
<path d="M90.5615 370.574L90.3296 378.786" stroke="#F4999A" stroke-linecap="round" stroke-linejoin="round"/>
</g>
<path d="M124.08 363.618C124.08 363.618 125.964 334.548 112.747 333.232C99.5302 331.916 106.863 371.6 106.863 371.6" stroke="#263238" stroke-linecap="round" stroke-linejoin="round"/>
<path d="M93.7623 364.088C93.7623 364.088 93.429 334.778 108.704 333.679" stroke="#263238" stroke-linecap="round" stroke-linejoin="round"/>
<path d="M251.817 251.966C237.325 248.73 220.267 259.466 196.224 258.343C192.558 258.174 182.66 256.749 181.602 257.075C180.544 257.401 174.5 264.321 175.573 266.942C176.428 269.055 188.109 273.91 190.442 273.294L192.775 272.678C194.748 272.878 196.75 272.629 198.567 271.957C200.384 271.285 201.948 270.216 203.094 268.862C203.094 268.862 248.571 273.294 263.86 262.159" fill="#F4999A"/>
<path d="M251.817 251.966C237.325 248.73 220.267 259.466 196.224 258.343C192.558 258.174 182.66 256.749 181.602 257.075C180.544 257.401 174.5 264.321 175.573 266.942C176.428 269.055 188.109 273.91 190.442 273.294L192.775 272.678C194.748 272.878 196.75 272.629 198.567 271.957C200.384 271.285 201.948 270.216 203.094 268.862C203.094 268.862 248.571 273.294 263.86 262.159" stroke="#263238" stroke-linecap="round" stroke-linejoin="round"/>
<path d="M192.847 272.678C192.847 272.678 194.818 269.055 193.528 269.055" stroke="#263238" stroke-linecap="round" stroke-linejoin="round"/>
<path d="M195.355 267.739C194.047 268.961 192.269 269.765 190.326 270.009" stroke="#263238" stroke-linecap="round" stroke-linejoin="round"/>
<path d="M185.499 272.304C184.804 272.062 186.746 266.265 187.89 265.239" stroke="#263238" stroke-linecap="round" stroke-linejoin="round"/>
<path d="M181.514 270.734C180.731 269.526 183.876 263.802 183.876 263.802" stroke="#263238" stroke-linecap="round" stroke-linejoin="round"/>
<path d="M178.122 269.031C177.151 267.159 180.731 262.352 180.731 262.352" stroke="#263238" stroke-linecap="round" stroke-linejoin="round"/>
<path d="M226.078 253.766C238.976 251 237.976 291.204 237.976 291.204" stroke="#263238" stroke-linecap="round" stroke-linejoin="round"/>
<path d="M249.787 282.267C249.787 282.267 245.44 253.174 230.15 253.766" stroke="#263238" stroke-linecap="round" stroke-linejoin="round"/>
<path d="M258.41 269.285C258.41 269.285 246.237 252.812 235.991 251.858" stroke="#263238" stroke-linecap="round" stroke-linejoin="round"/>
<path d="M248.091 278.209C248.091 278.209 238.773 253.886 228.744 253.174" stroke="#263238" stroke-linecap="round" stroke-linejoin="round"/>
<path d="M271.889 266.543C271.889 266.543 252.498 247.679 241.063 250.843" stroke="#263238" stroke-linecap="round" stroke-linejoin="round"/>
<path d="M267.018 277.304C267.018 277.304 248.888 249.853 240.034 250.432" stroke="#263238" stroke-linecap="round" stroke-linejoin="round"/>
<path d="M170.08 183.659C170.08 183.659 178.428 187.669 180.442 189.251C181.013 189.678 181.425 190.233 181.63 190.849C181.836 191.465 181.826 192.117 181.601 192.729" stroke="#263238" stroke-linecap="round" stroke-linejoin="round"/>
<path d="M184.746 192.729C185.592 191.969 186.616 191.362 187.756 190.947C188.895 190.531 190.125 190.316 191.369 190.313C195.63 190.313 211.847 191.255 219.644 191.147" stroke="#263238" stroke-linecap="round" stroke-linejoin="round"/>
<path d="M158.935 458.784C157.363 461.013 155.507 463.094 153.399 464.991L154.849 457.902C153.946 457.808 153.03 457.893 152.174 458.149C151.318 458.405 150.546 458.825 149.921 459.375C149.921 459.375 150.805 464.532 148.472 466.428C140.719 472.781 122.168 481.778 119.27 482.249C105.618 484.532 105.618 485.57 105.618 485.57C105.618 485.57 111.734 495.051 131.472 496.5C131.472 496.5 143.849 492.019 150.675 492.019C157.501 492.019 155.689 503.009 155.689 503.009H163.863C163.863 503.009 171.109 495.051 172.051 487.08C172.993 479.109 171.036 473.892 175.515 463.953C175.515 463.953 170.225 461.018 165.674 458.88C161.124 456.743 158.935 458.784 158.935 458.784Z" fill="#263238"/>
<path d="M219.658 449.46C220.281 453.385 219.658 454.291 219.658 454.291L216.035 444.714C216.035 444.714 212.223 447.54 213.368 450.571C213.368 450.571 217.266 455.257 216.788 457.938C215.208 466.911 206.948 483.421 204.991 485.256C195.76 493.94 196.513 494.761 196.513 494.761C196.513 494.761 208.252 499.241 225.034 490.462C225.034 490.462 231.657 480.655 237.092 477.177C242.526 473.699 249.048 483.421 249.048 483.421L255.584 479.302C255.584 479.302 255.584 469.291 250.57 462.479C245.555 455.668 240.889 450.825 237.251 440.644H233.715C233.715 440.644 236.222 443.989 228.657 447.335C225.877 448.576 222.806 449.301 219.658 449.46Z" fill="#263238"/>
<path d="M103.327 319.09C98.9797 327.278 94.2842 334.101 95.4291 338.208C96.5739 342.314 104.342 344.56 108.704 343.534C113.066 342.507 120.515 341.553 119.66 337.845C119.191 335.743 118.522 333.676 117.66 331.662C118.487 327.743 118.393 323.728 117.385 319.839" fill="#F4999A"/>
<path d="M103.327 319.09C98.9797 327.278 94.2842 334.101 95.4291 338.208C96.5739 342.314 104.342 344.56 108.704 343.534C113.066 342.507 120.515 341.553 119.66 337.845C119.191 335.743 118.522 333.676 117.66 331.662C118.487 327.743 118.393 323.728 117.385 319.839" stroke="#263238" stroke-linecap="round" stroke-linejoin="round"/>
<path d="M111.69 331.662C111.69 331.662 116.038 330.611 117.646 331.662" stroke="#263238" stroke-linecap="round" stroke-linejoin="round"/>
<path d="M101.893 335.515C101.893 335.515 97.0236 341.227 96.5889 345.587" stroke="#263238" stroke-linecap="round" stroke-linejoin="round"/>
<path d="M92.2852 338.014C92.2852 338.014 97.9806 333.002 102.169 333.244" stroke="#263238" stroke-linecap="round" stroke-linejoin="round"/>
<path d="M93.7632 346.698C93.7632 346.698 98.6761 337.761 101.937 334.766" stroke="#263238" stroke-linecap="round" stroke-linejoin="round"/>
<path d="M102.169 327.604C102.169 327.604 101.575 334.645 102.169 336.432C102.763 338.22 111.922 341.915 111.922 341.915C111.922 341.915 112.502 339.198 106.908 334.766C106.908 334.766 112.705 332.689 113.357 328.401" fill="#F4999A"/>
<path d="M102.169 327.604C102.169 327.604 101.575 334.645 102.169 336.432C102.763 338.22 111.922 341.915 111.922 341.915C111.922 341.915 112.502 339.198 106.908 334.766C106.908 334.766 112.705 332.689 113.357 328.401" stroke="#263238" stroke-linecap="round" stroke-linejoin="round"/>
<path d="M104.834 344.898C104.834 344.898 104.617 341.275 104.834 338.57V344.898Z" fill="#F4999A"/>
<path d="M104.834 344.898C104.834 344.898 104.617 341.275 104.834 338.57" stroke="#263238" stroke-linecap="round" stroke-linejoin="round"/>
<path d="M109.907 333.184C109.907 333.184 113.356 333.184 113.356 338.558" stroke="#263238" stroke-linecap="round" stroke-linejoin="round"/>
<path d="M113.675 331.312C114.755 331.682 115.654 332.346 116.225 333.196C116.642 334.762 116.836 336.363 116.805 337.966" stroke="#263238" stroke-linecap="round" stroke-linejoin="round"/>
<path d="M217.252 168.635C216.393 170.967 215.796 173.361 215.469 175.785C213.185 175.062 211.118 173.93 209.415 172.47C207.713 171.009 206.415 169.255 205.614 167.331L217.252 168.635Z" fill="#263238"/>
<path d="M196.223 160.858C183.383 146.366 194.02 119.676 207.687 116.089C233.164 109.398 240.729 124.434 241.135 132.525C241.468 139.373 235.584 147.585 235.947 151.716C236.86 162.041 223.817 172.331 216.672 172.246C212.194 172.246 207.861 170.181 203.31 166.896" fill="#F4999A"/>
<path d="M196.223 160.858C183.383 146.366 194.02 119.676 207.687 116.089C233.164 109.398 240.729 124.434 241.135 132.525C241.468 139.373 235.584 147.585 235.947 151.716C236.86 162.041 223.817 172.331 216.672 172.246C212.194 172.246 207.861 170.181 203.31 166.896" stroke="#263238" stroke-linecap="round" stroke-linejoin="round"/>
<path d="M204.195 139.047C205.21 137.675 206.665 136.568 208.397 135.851C210.129 135.134 212.067 134.835 213.992 134.989" stroke="#263238" stroke-linecap="round" stroke-linejoin="round"/>
<path d="M230.048 137.018C230.048 137.018 235.845 136.487 237.424 140.955" stroke="#263238" stroke-linecap="round" stroke-linejoin="round"/>
<path d="M213.977 143.576C213.774 144.88 212.919 145.87 212.049 145.774C211.18 145.677 210.6 144.566 210.847 143.238C211.093 141.909 211.919 140.943 212.774 141.04C213.629 141.136 214.18 142.211 213.977 143.576Z" fill="#263238"/>
<path d="M232.179 145.11C231.991 146.414 231.121 147.404 230.252 147.308C229.382 147.211 228.802 146.1 229.049 144.771C229.295 143.443 230.121 142.477 230.976 142.573C231.831 142.67 232.382 143.793 232.179 145.11Z" fill="#263238"/>
<path d="M222.599 148.129C223.112 149.379 224.036 150.483 225.266 151.317C226.99 152.187 222.599 155.29 222.599 155.29" stroke="#263238" stroke-linecap="round" stroke-linejoin="round"/>
<path d="M224.137 159.276C224.137 159.276 216.673 159.747 211.702 157.126" stroke="#263238" stroke-linecap="round" stroke-linejoin="round"/>
<path d="M212.411 157.476C212.411 157.476 214.382 161.981 218.483 162.537C222.585 163.092 222.976 159.312 222.976 159.312" stroke="#263238" stroke-linecap="round" stroke-linejoin="round"/>
<path d="M193.426 140.955C194.547 141.274 195.568 141.798 196.415 142.487C197.262 143.177 197.915 144.015 198.325 144.94C198.325 144.94 216.614 134.591 217.701 122.96C217.701 122.96 239.439 130.992 238.932 146.003C238.932 146.003 247.816 145.097 247.048 133.31C246.28 121.523 226.034 103.855 207.919 113.408C207.919 113.408 195.991 109.265 186.571 123.444C177.151 137.622 182.224 154.65 193.615 157.126C193.571 157.126 189.687 148.129 193.426 140.955Z" fill="#263238"/>
<path d="M196.224 143.383C196.224 143.383 191.253 138.093 188.775 139.844C186.297 141.595 185.326 149.155 188.775 151.716C192.224 154.276 194.688 156.546 195.268 154.131" fill="#F4999A"/>
<path d="M196.224 143.383C196.224 143.383 191.253 138.093 188.775 139.844C186.297 141.595 185.326 149.155 188.775 151.716C192.224 154.276 194.688 156.546 195.268 154.131" stroke="#263238" stroke-linecap="round" stroke-linejoin="round"/>
<path d="M214.585 217.245C215.794 218.914 217.492 220.3 219.52 221.272C221.548 222.243 223.84 222.77 226.179 222.8" stroke="#263238" stroke-linecap="round" stroke-linejoin="round"/>
<path d="M164.963 203.84C164.963 203.84 190.368 204.866 203.469 198.478" stroke="#263238" stroke-linecap="round" stroke-linejoin="round"/>
<path d="M162.949 232.861C162.949 232.861 174.891 237.607 181.789 243.971" stroke="#263238" stroke-linecap="round" stroke-linejoin="round"/>
<path d="M145.471 288.378C148.529 301.3 165.76 322.471 164.963 334.645" stroke="#263238" stroke-linecap="round" stroke-linejoin="round"/>
<path d="M202.195 280.359C202.195 280.359 191.326 296.361 181.775 299.465" stroke="#263238" stroke-linecap="round" stroke-linejoin="round"/>
<path d="M381.347 435.56C381.347 435.56 397.506 453.361 400.549 458.506C400.549 458.506 392.419 469.834 389.651 471.537C386.883 473.24 377.898 492.998 363.681 495.196C349.464 497.394 343.305 492.998 343.305 492.998C343.825 490.652 343.266 488.229 341.74 486.21C339.146 482.467 355.971 470.088 357.29 467.503C358.609 464.919 363.522 446.562 358.638 442.794C353.754 439.026 381.347 435.56 381.347 435.56Z" fill="#263238"/>
<path d="M425.897 460.474C425.897 460.474 425.621 478.844 419.361 483.179C413.1 487.515 396.028 487.044 395.666 491.102C395.304 495.159 395.666 502.961 395.666 502.961C395.666 502.961 416.158 508.541 436.983 505.195C436.983 505.195 443.476 499.942 448.07 499.942H452.65L460.389 495.908C460.389 495.908 458.389 471.271 454.939 466.018C451.49 460.764 425.897 460.474 425.897 460.474Z" fill="#263238"/>
<path d="M321.683 186.038C321.683 186.038 319.784 220.578 329.726 227.523C339.668 234.467 362.638 206.786 362.638 206.786L321.683 186.038Z" fill="#F4999A" stroke="#263238" stroke-linecap="round" stroke-linejoin="round"/>
<path d="M313.799 165.93C313.799 165.93 310.045 169.819 309.654 171.401C309.263 172.983 313.799 174.722 313.799 174.722C313.799 174.722 310.335 179.674 311.726 181.582C313.117 183.49 316.726 183.78 316.726 183.78C316.726 183.78 316.929 188.116 317.871 188.611C319.57 189.012 321.323 189.235 323.088 189.275C323.088 189.275 322.653 192.729 328.001 192.826C333.349 192.922 333.798 160.749 333.798 160.749L313.799 165.93Z" fill="#F4999A" stroke="#263238" stroke-linecap="round" stroke-linejoin="round"/>
<path d="M369.289 270.19C369.289 270.19 318.203 350.369 316.508 367.76C314.812 385.151 352.086 449.195 352.086 449.195L349.797 457.395C349.797 457.395 365.84 463.796 379.607 456.006C393.375 448.216 391.071 445.729 391.071 445.729C391.071 445.729 360.637 387.53 368.709 372.724C376.781 357.917 400.244 325.938 400.244 325.938C400.244 325.938 408.273 377.446 412.288 382.989C416.302 388.532 423.171 464.508 423.171 466.175C423.171 467.841 416.867 470.172 423.171 473.783C429.475 477.394 456.431 477.817 459.866 473.783C463.301 469.75 458.156 472.926 459.866 456.054C461.576 439.183 464.011 383.134 461.083 375.139C458.156 367.144 460.446 308.933 459.301 292.666C458.156 276.398 454.141 267.123 454.141 267.123L369.289 270.19Z" fill="#EF233C"/>
<mask id="mask10_129_166" style="mask-type:luminance" maskUnits="userSpaceOnUse" x="316" y="267" width="147" height="210">
<path d="M369.289 270.19C369.289 270.19 318.203 350.369 316.508 367.76C314.812 385.151 352.086 449.195 352.086 449.195L349.797 457.395C349.797 457.395 365.84 463.796 379.607 456.006C393.375 448.216 391.071 445.729 391.071 445.729C391.071 445.729 360.637 387.53 368.709 372.724C376.781 357.917 400.244 325.938 400.244 325.938C400.244 325.938 408.273 377.446 412.288 382.989C416.302 388.532 423.171 464.508 423.171 466.175C423.171 467.841 416.867 470.172 423.171 473.783C429.475 477.394 456.431 477.817 459.866 473.783C463.301 469.75 458.156 472.926 459.866 456.054C461.576 439.183 464.011 383.134 461.083 375.139C458.156 367.144 460.446 308.933 459.301 292.666C458.156 276.398 454.141 267.123 454.141 267.123L369.289 270.19Z" fill="white"/>
</mask>
<g mask="url(#mask10_129_166)">
<path opacity="0.15" d="M459.506 298.559C421.971 298.559 384.146 284.779 365.19 276.639C367.726 272.582 369.248 270.19 369.248 270.19L454.1 267.026C454.1 267.026 458.115 276.301 459.26 292.569C459.419 294.187 459.506 296.216 459.506 298.559Z" fill="black"/>
<path opacity="0.15" d="M444.347 470.257C444.347 470.257 429.854 475.643 420.478 469.907C420.971 468.324 423.173 467.117 423.173 466.126C423.173 464.46 416.304 388.484 412.29 382.941C408.275 377.397 400.247 325.937 400.247 325.937C400.247 325.937 376.74 357.953 368.711 372.772C360.683 387.59 391.073 445.777 391.073 445.777C391.073 445.777 393.363 448.253 379.609 456.054C365.856 463.856 349.799 457.443 349.799 457.443L352.089 449.243C352.089 449.243 317.437 389.704 316.481 369.861C324.365 370.598 336.176 371.069 346.828 368.654C364.856 364.704 381.609 332.145 381.609 332.145C381.609 332.145 367.219 326.372 367.755 324.271C368.291 322.169 389.493 321.855 389.493 321.855C389.493 321.855 380.059 310.08 382.798 305.866C382.798 305.866 403.551 316.022 419.203 327.459C434.854 338.896 433.26 344.91 433.26 344.91C433.26 344.91 419.695 342.773 412.362 336.783C405.029 330.792 415.811 376.757 425.043 382.916C434.043 388.955 442.608 386.346 443.042 386.213C442.796 386.854 433.709 408.761 425.043 405.198C416.377 401.636 431.97 445.499 434.869 452.178C437.767 458.856 431.622 460.076 431.622 460.076L444.347 470.257Z" fill="black"/>
</g>
<path d="M369.289 270.19C369.289 270.19 318.203 350.369 316.508 367.76C314.812 385.151 352.086 449.195 352.086 449.195L349.797 457.395C349.797 457.395 365.84 463.796 379.607 456.006C393.375 448.216 391.071 445.729 391.071 445.729C391.071 445.729 360.637 387.53 368.709 372.724C376.781 357.917 400.244 325.938 400.244 325.938C400.244 325.938 408.273 377.446 412.288 382.989C416.302 388.532 423.171 464.508 423.171 466.175C423.171 467.841 416.867 470.172 423.171 473.783C429.475 477.394 456.431 477.817 459.866 473.783C463.301 469.75 458.156 472.926 459.866 456.054C461.576 439.183 464.011 383.134 461.083 375.139C458.156 367.144 460.446 308.933 459.301 292.666C458.156 276.398 454.141 267.123 454.141 267.123L369.289 270.19Z" stroke="#263238" stroke-linecap="round" stroke-linejoin="round"/>
<path d="M409.229 162.15C409.229 162.15 470.764 150.931 499.56 163.756C506.719 166.945 511.603 176.691 511.023 189.118C510.444 201.545 463.068 259.285 463.648 267.038C464.228 274.792 465.938 274.961 462.503 276.313C459.069 277.666 387.143 277.086 368.477 273.065C360.985 271.458 369.1 263.959 369.1 263.959C369.1 263.959 383.448 199.878 409.229 162.15Z" fill="#263238"/>
<path d="M480.504 159.952C480.504 159.952 448.867 170.519 438.476 159.481C440.238 159.564 441.997 159.275 443.591 158.642C445.184 158.009 446.56 157.051 447.592 155.858C449.223 153.763 450.107 151.326 450.142 148.829C450.283 146.489 450.104 144.143 449.606 141.837C448.389 135.653 479.591 139.651 479.591 139.651C479.591 139.651 472.881 156.86 480.504 159.952Z" fill="#F4999A" stroke="#263238" stroke-linecap="round" stroke-linejoin="round"/>
<path d="M420.693 215.023V220.76L417.259 223.634V248.645L384.767 262.352L316.45 250.433L318.189 221.714L318.262 220.445L315.247 219.322L314.812 219.165V212.475L317.305 212.124L326.421 210.868L349.217 207.704L403.926 213.308L420.693 215.023Z" fill="#F4999A"/>
<mask id="mask11_129_166" style="mask-type:luminance" maskUnits="userSpaceOnUse" x="314" y="207" width="107" height="56">
<path d="M420.693 215.023V220.76L417.259 223.634V248.645L384.767 262.352L316.45 250.433L318.189 221.714L318.262 220.445L315.247 219.322L314.812 219.165V212.475L317.305 212.124L326.421 210.868L349.217 207.704L403.926 213.308L420.693 215.023Z" fill="white"/>
</mask>
<g mask="url(#mask11_129_166)">
<path opacity="0.4" d="M420.692 215.023V215.047L389.447 222.837L317.304 212.124L326.42 210.868L385.766 215.663L403.925 213.308L420.692 215.023Z" fill="#F4999A"/>
<path opacity="0.4" d="M420.692 220.554V220.76L417.258 223.634V232.486L386.708 233.356L318.188 221.714L318.261 220.446L315.246 219.322L387.911 229.757L420.692 220.554Z" fill="black"/>
</g>
<path d="M420.693 215.023V220.76L417.259 223.634V248.645L384.767 262.352L316.45 250.433L318.189 221.714L318.262 220.445L315.247 219.322L314.812 219.165V212.475L317.305 212.124L326.421 210.868L349.217 207.704L403.926 213.308L420.693 215.023Z" stroke="#263238" stroke-linecap="round" stroke-linejoin="round"/>
<path d="M323.087 213.996L389.462 222.837L416.012 217.281" stroke="#263238" stroke-linecap="round" stroke-linejoin="round"/>
<path d="M314.827 219.165L387.912 229.757L420.694 220.76" stroke="#263238" stroke-linecap="round" stroke-linejoin="round"/>
<path d="M384.768 260.227L386.768 232.39" stroke="#263238" stroke-linecap="round" stroke-linejoin="round"/>
<path d="M417.259 136.813V145.46L412.665 148.129L413.085 154.143L414.186 170.109L414.201 170.338L337.754 179.42H316.508L316.45 179.142L311.668 155.29L308.016 153.89L308.421 143.6L380.564 128.371L417.259 136.813Z" fill="#EF233C"/>
<mask id="mask12_129_166" style="mask-type:luminance" maskUnits="userSpaceOnUse" x="308" y="128" width="110" height="52">
<path d="M417.259 136.813V145.46L412.665 148.129L413.085 154.143L414.186 170.109L414.201 170.338L337.754 179.42H316.508L316.45 179.142L311.668 155.29L308.016 153.89L308.421 143.6L380.564 128.371L417.259 136.813Z" fill="white"/>
</mask>
<g mask="url(#mask12_129_166)">
<path opacity="0.4" d="M417.257 145.46L412.663 148.129L413.083 154.143L382.751 142.247L311.666 155.29L308.014 153.89L382.751 138.842L417.257 145.242V145.46Z" fill="black"/>
<path opacity="0.4" d="M414.199 170.338L337.766 179.42H316.506V179.142C331.418 175.99 388.286 164.759 388.286 164.759L414.184 170.145L414.199 170.338Z" fill="black"/>
</g>
<path d="M417.259 136.813V145.46L412.665 148.129L413.085 154.143L414.186 170.109L414.201 170.338L337.754 179.42H316.508L316.45 179.142L311.668 155.29L308.016 153.89L308.421 143.6L380.564 128.371L417.259 136.813Z" stroke="#263238" stroke-linecap="round" stroke-linejoin="round"/>
<path d="M314.827 153.89L382.753 138.842L417.259 145.46" stroke="#263238" stroke-linecap="round" stroke-linejoin="round"/>
<path d="M320.566 178.285L386.767 164.517L409.288 169.094" stroke="#263238" stroke-linecap="round" stroke-linejoin="round"/>
<path d="M386.766 164.517L382.752 143.346" stroke="#263238" stroke-linecap="round" stroke-linejoin="round"/>
<path d="M424.997 176.449V182.862H421.171L421.273 191.545L421.49 209.685L397.042 212.004L325.566 209.419L327.116 185.447L323.087 184.408L323.102 184.227L323.45 178.031L397.346 168.684L424.997 176.449Z" fill="#EF233C"/>
<mask id="mask13_129_166" style="mask-type:luminance" maskUnits="userSpaceOnUse" x="323" y="168" width="102" height="45">
<path d="M424.997 176.449V182.862H421.171L421.273 191.545L421.49 209.685L397.042 212.004L325.566 209.419L327.116 185.447L323.087 184.408L323.102 184.227L323.45 178.031L397.346 168.684L424.997 176.449Z" fill="white"/>
</mask>
<g mask="url(#mask13_129_166)">
<path opacity="0.5" d="M424.997 176.449V182.862H421.171L421.273 191.545L421.49 209.685L397.042 212.004L325.566 209.419L327.116 185.447L323.087 184.408L323.102 184.227L323.45 178.031L397.346 168.684L424.997 176.449Z" fill="#F4999A"/>
<path opacity="0.2" d="M424.997 182.862H421.171L421.273 191.545L396.23 181.026L327.116 185.446L323.087 184.408L323.102 184.227L397.665 177.439L424.997 182.367V182.862Z" fill="black"/>
</g>
<path d="M424.997 176.449V182.862H421.171L421.273 191.545L421.49 209.685L397.042 212.004L325.566 209.419L327.116 185.447L323.087 184.408L323.102 184.227L323.45 178.031L397.346 168.684L424.997 176.449Z" stroke="#263238" stroke-linecap="round" stroke-linejoin="round"/>
<path d="M328 183.78L397.665 177.439L420.693 181.268" stroke="#263238" stroke-linecap="round" stroke-linejoin="round"/>
<path d="M396.23 182.464V209.697" stroke="#263238" stroke-linecap="round" stroke-linejoin="round"/>
<g opacity="0.5">
<path d="M466.46 192.801C466.46 192.801 465.605 190.386 466.46 189.384C467.315 188.381 481.662 189.988 486.242 192.801" stroke="#F4999A" stroke-linecap="round" stroke-linejoin="round"/>
<path d="M469.099 186.28C474.751 181.418 482.431 178.555 490.547 178.285" stroke="#F4999A" stroke-linecap="round" stroke-linejoin="round"/>
<path d="M433.214 164.517C433.214 164.517 450.518 170.447 469.097 164.517" stroke="#F4999A" stroke-linecap="round" stroke-linejoin="round"/>
<path d="M381.608 267.968C381.608 267.968 432.635 267.159 453.852 246.314" stroke="#F4999A" stroke-linecap="round" stroke-linejoin="round"/>
<path d="M458.055 189.106C458.055 189.106 461.591 201.098 474.779 204.673" stroke="#F4999A" stroke-linecap="round" stroke-linejoin="round"/>
<path d="M424.998 186.28C424.998 186.28 426.244 211.364 438.186 221.4" stroke="#F4999A" stroke-linecap="round" stroke-linejoin="round"/>
</g>
<path d="M469.098 192.801C474.174 194.154 478.869 196.349 482.899 199.255C486.929 202.161 490.211 205.717 492.546 209.709C492.546 209.709 463.112 252.498 458.055 254.394C456.461 254.998 449.49 257.703 447.78 257.908C431.939 259.792 420.592 259.599 404.636 260.577C395.723 261.133 386.984 260.07 378.043 260.432C374.535 260.565 373.115 261.773 369.594 261.845C368.217 261.845 366.362 261.41 364.985 261.423C362.391 261.423 358.362 262.691 355.855 262.099C355.087 261.918 353.884 261.447 353.13 261.229C351.188 260.662 346.739 262.365 344.348 261.459C343.826 261.253 341.725 259.635 341.189 259.514C338.632 258.799 336.197 257.813 333.942 256.58C332.97 255.621 332.329 254.461 332.087 253.222C335.783 252.437 340.029 252.474 343.855 252.147C343.855 252.147 333.711 249.732 333.711 246.314C333.711 242.897 336 242.438 336 242.438C341.851 245.398 348.668 246.754 355.493 246.314C367.536 245.783 369.565 248.657 374.333 248.657C396.216 248.657 418.592 238.996 427.041 237.607C435.49 236.218 440.881 235.457 440.881 235.457C440.881 235.457 450.49 217.112 458.04 209.709C462.909 204.669 466.654 198.943 469.098 192.801Z" fill="#F4999A" stroke="#263238" stroke-linecap="round" stroke-linejoin="round"/>
<path d="M440.896 235.445C443.172 235.098 445.504 235.098 447.78 235.445" stroke="#263238" stroke-linecap="round" stroke-linejoin="round"/>
<path d="M343.869 252.135C346.855 252.412 349.798 252.947 352.651 253.73" stroke="#263238" stroke-linecap="round" stroke-linejoin="round"/>
<path d="M401.202 279.103C401.202 280.311 394.71 307.75 399.289 319.839" stroke="#263238" stroke-linecap="round" stroke-linejoin="round"/>
<path d="M408.085 279.103C408.085 279.103 405.78 294.731 406.548 299.465C407.317 304.199 397.723 304.646 397.723 304.646" stroke="#263238" stroke-linecap="round" stroke-linejoin="round"/>
<path d="M434.867 273.355C434.867 273.355 442.316 288.873 453.881 293.511" stroke="#263238" stroke-linecap="round" stroke-linejoin="round"/>
<path d="M381.608 272.304C381.608 272.304 374.116 278.705 365.304 280.311" stroke="#263238" stroke-linecap="round" stroke-linejoin="round"/>
<path d="M395.086 316.662C395.086 316.662 375.579 350.393 367.754 361.866C359.928 373.34 358.391 375.562 360.681 377.784C362.971 380.006 362.652 396.262 365.304 400.404C367.956 404.546 378.463 442.444 381.608 444.038C384.753 445.632 384.767 450.076 384.767 450.076" stroke="#263238" stroke-linecap="round" stroke-linejoin="round"/>
<path d="M362.637 325.672C362.637 325.672 386.462 327.942 397.65 323.727" stroke="#263238" stroke-linecap="round" stroke-linejoin="round"/>
<path d="M404.637 319.899C404.637 319.899 430.839 346.154 438.186 348.147" stroke="#263238" stroke-linecap="round" stroke-linejoin="round"/>
<path d="M453.853 375.876C453.853 375.876 440.186 404.86 432.114 405.186" stroke="#263238" stroke-linecap="round" stroke-linejoin="round"/>
<path d="M364.13 371.83C364.13 371.83 353.754 386.515 336.218 383.387" stroke="#263238" stroke-linecap="round" stroke-linejoin="round"/>
<path d="M384.767 440.668C384.767 440.668 372.535 458.035 357.231 450.064" stroke="#263238" stroke-linecap="round" stroke-linejoin="round"/>
<path d="M427.954 466.03C427.954 466.03 440.62 472.938 450.127 469.134" stroke="#263238" stroke-linecap="round" stroke-linejoin="round"/>
<path d="M461.751 146.366C461.751 146.366 456.302 154.191 447.592 155.846C449.223 153.751 450.107 151.314 450.142 148.817C456.041 147.392 461.751 146.366 461.751 146.366Z" fill="#263238"/>
<path d="M479.591 138.214C488.416 127.344 501.851 84.3385 458.461 92.732C436.882 96.9106 439.621 120.509 439.621 120.509L431.534 131.632L438.331 132.525L438.07 137.646L440.172 138.262C440.172 138.262 438.331 150.677 440.172 151.462C443.534 152.887 465.606 150.653 465.606 146.184" fill="#F4999A"/>
<path d="M479.591 138.214C488.416 127.344 501.851 84.3385 458.461 92.732C436.882 96.9106 439.621 120.509 439.621 120.509L431.534 131.632L438.331 132.525L438.07 137.646L440.172 138.262C440.172 138.262 438.331 150.677 440.172 151.462C443.534 152.887 465.606 150.653 465.606 146.184" stroke="#263238" stroke-linecap="round" stroke-linejoin="round"/>
<path d="M440.229 138.214C440.229 138.214 447.679 139.844 449.606 141.837C449.606 141.837 443.679 143.564 442.708 141.076" stroke="#263238" stroke-linecap="round" stroke-linejoin="round"/>
<path d="M443.36 111.028C443.36 111.028 450.707 110.413 454.215 114.555" stroke="#263238" stroke-linecap="round" stroke-linejoin="round"/>
<path d="M447.765 120.448C447.765 121.656 447.171 122.671 446.432 122.671C445.693 122.671 445.099 121.68 445.099 120.448C445.099 119.217 445.707 118.226 446.432 118.226C447.157 118.226 447.765 119.229 447.765 120.448Z" fill="#263238"/>
<path d="M443.866 102.285C443.866 102.285 439.953 93.9758 446.431 88.7586C452.909 83.5413 473.88 88.9277 473.88 88.9277L469.836 90.2803C469.836 90.2803 485.647 92.9614 493.024 99.2776C500.401 105.594 493.386 135.388 479.604 142.404C479.604 142.404 474.633 141.764 472.793 136.559C470.952 131.354 464.663 126.185 464.663 126.185V116.173C464.663 116.173 459.257 110.944 464.039 103.553C464.068 103.553 453.286 99.9297 443.866 102.285Z" fill="#263238"/>
<path d="M463.214 127.671C463.214 127.671 470.026 120.038 473.518 121.246C477.011 122.453 477.866 129.506 476.084 132.719C474.301 135.931 467.635 142.513 466.156 140.074" fill="#F4999A"/>
<path d="M463.214 127.671C463.214 127.671 470.026 120.038 473.518 121.246C477.011 122.453 477.866 129.506 476.084 132.719C474.301 135.931 467.635 142.513 466.156 140.074" stroke="#263238" stroke-linecap="round" stroke-linejoin="round"/>
</svg>
